<svg xmlns="http://www.w3.org/2000/svg" width="24" height="24" viewBox="0 0 24 24" fill="none">
    <path d="M11.6437 3.95156C11.7188 3.825 11.8547 3.75 12 3.75C12.1453 3.75 12.2812 3.825 12.3563 3.95156L21.6516 19.2188C21.7172 19.3266 21.75 19.4484 21.75 19.5703C21.75 19.9453 21.4453 20.25 21.0703 20.25H2.92969C2.55469 20.25 2.25 19.9453 2.25 19.5703C2.25 19.4438 2.28281 19.3219 2.34844 19.2188L11.6437 3.95156ZM9.72187 2.77969L0.426563 18.0469C0.145313 18.5063 0 19.0312 0 19.5703C0 21.1875 1.3125 22.5 2.92969 22.5H21.0703C22.6875 22.5 24 21.1875 24 19.5703C24 19.0312 23.85 18.5063 23.5734 18.0469L14.2781 2.77969C13.7953 1.9875 12.9328 1.5 12 1.5C11.0672 1.5 10.2047 1.9875 9.72187 2.77969ZM13.5 17.25C13.5 16.8522 13.342 16.4706 13.0607 16.1893C12.7794 15.908 12.3978 15.75 12 15.75C11.6022 15.75 11.2206 15.908 10.9393 16.1893C10.658 16.4706 10.5 16.8522 10.5 17.25C10.5 17.6478 10.658 18.0294 10.9393 18.3107C11.2206 18.592 11.6022 18.75 12 18.75C12.3978 18.75 12.7794 18.592 13.0607 18.3107C13.342 18.0294 13.5 17.6478 13.5 17.25ZM13.125 8.625C13.125 8.00156 12.6234 7.5 12 7.5C11.3766 7.5 10.875 8.00156 10.875 8.625V13.125C10.875 13.7484 11.3766 14.25 12 14.25C12.6234 14.25 13.125 13.7484 13.125 13.125V8.625Z" fill="black"/>
</svg>
