<svg xmlns="http://www.w3.org/2000/svg" width="24" height="24" viewBox="0 0 24 24" fill="none">
    <g clip-path="url(#clip0_125_9490)">
        <path d="M14.6718 0.328149C15.1077 0.764087 15.1124 1.46721 14.6812 1.90784L22.0921 9.31878C22.5327 8.88752 23.2358 8.89221 23.6718 9.32815C24.1124 9.76877 24.1124 10.4813 23.6718 10.9172L22.889 11.7047L18.4218 16.1719L17.6718 16.9219C17.2312 17.3625 16.5187 17.3625 16.0827 16.9219C15.6608 16.5 15.6421 15.8203 16.0405 15.3797L8.6249 7.96409C8.18428 8.35784 7.50459 8.34377 7.08272 7.9219C6.64209 7.48127 6.64209 6.76877 7.08272 6.33284L7.83272 5.58284L12.2952 1.11565L13.078 0.328149C13.5187 -0.112476 14.2312 -0.112476 14.6671 0.328149H14.6718ZM13.0921 3.50159L10.214 6.37502L17.6249 13.786L20.4983 10.9125L13.0921 3.50159ZM10.4718 11.9344L12.0608 13.5235L9.72647 15.8578L10.0546 16.186C10.6405 16.7719 10.6405 17.7235 10.0546 18.3094L4.80459 23.5594C4.21865 24.1453 3.26709 24.1453 2.68115 23.5594L0.431152 21.3094C-0.154785 20.7235 -0.154785 19.7719 0.431152 19.186L5.68115 13.936C6.26709 13.35 7.21865 13.35 7.80459 13.936L8.13272 14.2641L10.4671 11.9297L10.4718 11.9344ZM6.7499 16.0594L2.55928 20.25L3.7499 21.4406L7.94053 17.25L6.7499 16.0594Z" fill="black"/>
    </g>
    <defs>
        <clipPath id="clip0_125_9490">
            <rect width="24" height="24" fill="white"/>
        </clipPath>
    </defs>
</svg>
