<svg width="24" height="25" viewBox="0 0 24 25" fill="none" xmlns="http://www.w3.org/2000/svg">
<g clip-path="url(#clip0_66_698)">
<g clip-path="url(#clip1_66_698)">
<path d="M3 3.00861C3 1.76642 4.00781 0.758606 5.25 0.758606V3.00861V21.4492L11.3484 17.0945C11.7375 16.8133 12.2672 16.8133 12.6562 17.0945L18.75 21.4492V3.00861H5.25V0.758606H18.75C19.9922 0.758606 21 1.76642 21 3.00861V23.6336C21 24.0555 20.7656 24.4399 20.3906 24.632C20.0156 24.8242 19.5656 24.7914 19.2234 24.5477L12 19.3914L4.77656 24.5477C4.43438 24.7914 3.98438 24.8242 3.60938 24.632C3.23438 24.4399 3 24.0555 3 23.6336V3.00861Z"/>
</g>
</g>
<defs>
<clipPath id="clip0_66_698">
<rect width="24" height="24" transform="translate(0 0.758606)"/>
</clipPath>
<clipPath id="clip1_66_698">
<rect width="18" height="24" transform="translate(3 0.758606)"/>
</clipPath>
</defs>
</svg>
