<svg xmlns="http://www.w3.org/2000/svg" width="24" height="24" viewBox="0 0 24 24" fill="none">
    <g clip-path="url(#clip0_125_9544)">
        <path d="M23.6483 23.6483C23.1793 24.1172 22.4206 24.1172 21.9511 23.6483L12.0011 13.6961L2.04892 23.6483C1.57996 24.1172 0.821207 24.1172 0.351721 23.6483C-0.11724 23.1793 -0.11724 22.4206 0.351721 21.9511L10.3062 12.0011L0.353221 2.04892C-0.11574 1.57996 -0.11574 0.821207 0.353221 0.351721C0.822182 -0.11724 1.58093 -0.11724 2.05042 0.351721L12.0011 10.3062L21.9533 0.353971C22.4223 -0.11499 23.181 -0.11499 23.6505 0.353971C24.1195 0.822932 24.1195 1.58168 23.6505 2.05117L13.6961 12.0011L23.6483 21.9533C24.1208 22.4183 24.1208 23.1833 23.6483 23.6483Z" fill="black"/>
    </g>
    <defs>
        <clipPath id="clip0_125_9544">
            <rect width="24" height="24" fill="white" transform="matrix(0 -1 1 0 0 24)"/>
        </clipPath>
    </defs>
</svg>
