<svg xmlns="http://www.w3.org/2000/svg" width="18" height="24" viewBox="0 0 18 24" fill="none">
    <g clip-path="url(#clip0_118_7931)">
        <path d="M3 21.75C2.5875 21.75 2.25 21.4125 2.25 21V3C2.25 2.5875 2.5875 2.25 3 2.25H10.5V6C10.5 6.82969 11.1703 7.5 12 7.5H15.75V21C15.75 21.4125 15.4125 21.75 15 21.75H3ZM3 0C1.34531 0 0 1.34531 0 3V21C0 22.6547 1.34531 24 3 24H15C16.6547 24 18 22.6547 18 21V7.24219C18 6.44531 17.6859 5.68125 17.1234 5.11875L12.8766 0.876563C12.3141 0.314063 11.5547 0 10.7578 0H3ZM13.5469 12.5438C13.9875 12.1031 13.9875 11.3906 13.5469 10.9547C13.1062 10.5188 12.3938 10.5141 11.9578 10.9547L7.75312 15.1594L6.04688 13.4531C5.60625 13.0125 4.89375 13.0125 4.45781 13.4531C4.02187 13.8938 4.01719 14.6062 4.45781 15.0422L6.95625 17.5406C7.16719 17.7516 7.45312 17.8688 7.75312 17.8688C8.05312 17.8688 8.33906 17.7516 8.55 17.5406L13.5469 12.5438Z" fill="black"/>
    </g>
    <defs>
        <clipPath id="clip0_118_7931">
            <rect width="18" height="24" fill="white"/>
        </clipPath>
    </defs>
</svg>
