<svg xmlns="http://www.w3.org/2000/svg" width="18" height="24" viewBox="0 0 18 24" fill="none">
    <g clip-path="url(#clip0_118_7934)">
        <path d="M15 21.75C15.4125 21.75 15.75 21.4125 15.75 21V7.5H12C11.1703 7.5 10.5 6.82969 10.5 6V2.25H3C2.5875 2.25 2.25 2.5875 2.25 3V21C2.25 21.4125 2.5875 21.75 3 21.75H15ZM0 3C0 1.34531 1.34531 0 3 0H10.7578C11.5547 0 12.3187 0.314063 12.8812 0.876563L17.1234 5.11875C17.6859 5.68125 18 6.44531 18 7.24219V21C18 22.6547 16.6547 24 15 24H3C1.34531 24 0 22.6547 0 21V3Z" fill="black"/>
    </g>
    <defs>
        <clipPath id="clip0_118_7934">
            <rect width="18" height="24" fill="white"/>
        </clipPath>
    </defs>
</svg>
