<svg xmlns="http://www.w3.org/2000/svg" width="24" height="24" viewBox="0 0 24 24" fill="none">
    <path d="M9.99141 2.41875L9.10087 3.75H15.8971L15.0065 2.41875C14.9362 2.31562 14.8191 2.25 14.6925 2.25H10.3008C10.1742 2.25 10.057 2.31094 9.98672 2.41875H9.99141ZM16.8814 1.17188L18.6015 3.75H19.2483H21.4981H21.8731C22.4964 3.75 22.9979 4.25156 22.9979 4.875C22.9979 5.49844 22.4964 6 21.8731 6H21.4981V20.25C21.4981 22.3219 19.8201 24 17.7485 24H7.24949C5.17781 24 3.49985 22.3219 3.49985 20.25V6H3.12489C2.50151 6 2 5.49844 2 4.875C2 4.25156 2.50151 3.75 3.12489 3.75H3.49985H5.74963H6.39644L8.11659 1.16719C8.60404 0.440625 9.42427 0 10.3008 0H14.6925C15.569 0 16.3892 0.440625 16.8767 1.16719L16.8814 1.17188ZM5.74963 6V20.25C5.74963 21.0797 6.41988 21.75 7.24949 21.75H17.7485C18.5781 21.75 19.2483 21.0797 19.2483 20.25V6H5.74963ZM9.49927 9V18.75C9.49927 19.1625 9.1618 19.5 8.74934 19.5C8.33688 19.5 7.99941 19.1625 7.99941 18.75V9C7.99941 8.5875 8.33688 8.25 8.74934 8.25C9.1618 8.25 9.49927 8.5875 9.49927 9ZM13.2489 9V18.75C13.2489 19.1625 12.9114 19.5 12.499 19.5C12.0865 19.5 11.749 19.1625 11.749 18.75V9C11.749 8.5875 12.0865 8.25 12.499 8.25C12.9114 8.25 13.2489 8.5875 13.2489 9ZM16.9985 9V18.75C16.9985 19.1625 16.6611 19.5 16.2486 19.5C15.8361 19.5 15.4987 19.1625 15.4987 18.75V9C15.4987 8.5875 15.8361 8.25 16.2486 8.25C16.6611 8.25 16.9985 8.5875 16.9985 9Z" fill="black"/>
</svg>
