<svg width="24" height="25" viewBox="0 0 24 25" fill="none" xmlns="http://www.w3.org/2000/svg">
<path d="M14.6719 0.586755C15.1078 1.02269 15.1125 1.72582 14.6812 2.16644L22.0922 9.57738C22.5328 9.14613 23.2359 9.15082 23.6719 9.58676C24.1125 10.0274 24.1125 10.7399 23.6719 11.1758L22.8891 11.9633L18.4219 16.4305L17.6719 17.1805C17.2312 17.6211 16.5187 17.6211 16.0828 17.1805C15.6609 16.7586 15.6422 16.0789 16.0406 15.6383L8.62499 8.22269C8.18437 8.61644 7.50468 8.60238 7.08281 8.18051C6.64218 7.73988 6.64218 7.02738 7.08281 6.59144L7.83281 5.84144L12.2953 1.37426L13.0781 0.586755C13.5187 0.14613 14.2312 0.14613 14.6672 0.586755H14.6719ZM13.0922 3.76019L10.2141 6.63363L17.625 14.0446L20.4984 11.1711L13.0922 3.76019ZM10.4719 12.193L12.0609 13.7821L9.72656 16.1164L10.0547 16.4446C10.6406 17.0305 10.6406 17.9821 10.0547 18.568L4.80468 23.818C4.21874 24.4039 3.26718 24.4039 2.68124 23.818L0.431244 21.568C-0.154694 20.9821 -0.154694 20.0305 0.431244 19.4446L5.68124 14.1946C6.26718 13.6086 7.21874 13.6086 7.80468 14.1946L8.13281 14.5227L10.4672 12.1883L10.4719 12.193ZM6.74999 16.318L2.55937 20.5086L3.74999 21.6993L7.94062 17.5086L6.74999 16.318Z"/>
</svg>
