<svg width="24" height="24" viewBox="0 0 24 24" fill="none" xmlns="http://www.w3.org/2000/svg">
<g clip-path="url(#clip0_66_751)">
<path d="M9.75467 2.40938C10.3265 2.30625 10.9219 2.25 11.5312 2.25C12.1406 2.25 12.7359 2.30625 13.3078 2.40938L13.7062 4.05469C13.8984 4.85156 14.4375 5.45156 15.0609 5.80781L15.1265 5.84531C15.7453 6.20625 16.5375 6.375 17.325 6.14531L18.9469 5.66719C19.2937 6.075 19.6125 6.51094 19.889 6.97031L20.0765 7.29375C20.3297 7.75313 20.55 8.24063 20.7281 8.74219L19.5 9.90937C18.9047 10.4719 18.6562 11.2406 18.6609 11.9578V11.9953V12.0328C18.6562 12.75 18.9094 13.5141 19.5 14.0812L20.7281 15.2484C20.55 15.75 20.3297 16.2375 20.0765 16.6969L19.889 17.0203C19.6125 17.4797 19.2937 17.9156 18.9469 18.3234L17.325 17.8453C16.5375 17.6109 15.7453 17.7797 15.1265 18.1453L15.0609 18.1828C14.4422 18.5391 13.8984 19.1391 13.7062 19.9359L13.3078 21.5812C12.7312 21.6891 12.1359 21.7406 11.5312 21.7406C10.9265 21.7406 10.3265 21.6844 9.75467 21.5812L9.35624 19.9359C9.16405 19.1391 8.62499 18.5391 8.00155 18.1828L7.93592 18.1453C7.31717 17.7844 6.52499 17.6156 5.73749 17.8453L4.1203 18.3328C3.77342 17.925 3.45467 17.4891 3.17811 17.0297L2.99061 16.7016C2.73749 16.2422 2.51717 15.7547 2.33905 15.2531L3.56717 14.0859C4.16249 13.5234 4.41092 12.7547 4.40624 12.0375V12V11.9625C4.41092 11.2453 4.1578 10.4812 3.56717 9.91406L2.33905 8.74688C2.51717 8.24531 2.73749 7.75781 2.99061 7.29844L3.17811 6.975C3.45467 6.51562 3.77342 6.07969 4.1203 5.67188L5.74217 6.15C6.52967 6.38437 7.32186 6.21563 7.94061 5.85L8.00624 5.8125C8.62499 5.45625 9.16874 4.85625 9.36092 4.05937L9.75936 2.41406L9.75467 2.40938ZM11.5312 0C10.7344 0 9.95623 0.0796875 9.19686 0.225C8.82655 0.295313 8.17499 0.510937 7.81874 1.16719C7.72499 1.34062 7.64999 1.52344 7.60311 1.72031L7.16717 3.525C7.14373 3.61875 7.06405 3.75 6.88592 3.85312C6.8578 3.87187 6.82967 3.88594 6.79686 3.90469C6.61874 4.00781 6.46874 4.0125 6.3703 3.98438L4.59374 3.45938C4.40624 3.40313 4.21405 3.375 4.02186 3.37031C3.26717 3.34688 2.75624 3.81094 2.5078 4.09219C2.03905 4.62656 1.61717 5.20781 1.24686 5.82187L1.23749 5.84062L1.04061 6.18281L1.03124 6.20156C0.689048 6.81563 0.40311 7.4625 0.173423 8.1375C0.0468603 8.48906 -0.0937647 9.15469 0.29061 9.79219C0.393735 9.96094 0.520298 10.1203 0.66561 10.2609L2.01561 11.5453C2.08592 11.6156 2.15624 11.7469 2.15624 11.9531V12.0047V12.0563C2.15624 12.2578 2.08592 12.3937 2.01561 12.4641L0.66561 13.7391C0.520298 13.8797 0.393735 14.0391 0.29061 14.2078C-0.0937647 14.8453 0.0468603 15.5109 0.168735 15.8625C0.398423 16.5375 0.68436 17.1844 1.02655 17.7984L1.03592 17.8172L1.23749 18.1641L1.24686 18.1828C1.61717 18.7969 2.03905 19.3734 2.5078 19.9078C2.75624 20.1891 3.27186 20.6531 4.02186 20.6297C4.21405 20.625 4.40624 20.5922 4.59374 20.5406L6.37499 20.0156C6.46874 19.9875 6.62342 19.9922 6.80155 20.0953C6.82967 20.1141 6.8578 20.1281 6.89061 20.1469C7.06874 20.25 7.14842 20.3766 7.17186 20.475L7.6078 22.2797C7.65467 22.4766 7.72967 22.6641 7.82342 22.8328C8.18436 23.4891 8.83592 23.7 9.20155 23.775C9.95624 23.925 10.739 24 11.5359 24C12.3328 24 13.1109 23.9203 13.8703 23.775C14.2406 23.7047 14.8922 23.4891 15.2484 22.8328C15.3422 22.6594 15.4172 22.4766 15.464 22.2797L15.9 20.475C15.9234 20.3812 16.0031 20.25 16.1812 20.1469C16.2094 20.1281 16.2375 20.1141 16.2703 20.0953C16.4484 19.9922 16.5984 19.9875 16.6969 20.0156L18.4781 20.5406C18.6656 20.5969 18.8578 20.625 19.05 20.6297C19.8047 20.6531 20.3156 20.1891 20.564 19.9078C21.0328 19.3734 21.4547 18.7922 21.825 18.1781L21.8344 18.1594L22.0312 17.8172L22.0406 17.7984C22.3828 17.1844 22.6687 16.5375 22.8984 15.8625C23.0203 15.5062 23.1609 14.8406 22.7719 14.2031C22.6687 14.0344 22.5422 13.875 22.3969 13.7344L21.0469 12.4547C20.9765 12.3844 20.9062 12.2531 20.9062 12.0469V11.9953V11.9438C20.9062 11.7422 20.9765 11.6063 21.0469 11.5359L22.3922 10.2563C22.5375 10.1156 22.664 9.95625 22.7672 9.7875C23.1515 9.15 23.0109 8.48438 22.8937 8.12812C22.664 7.45312 22.3781 6.80625 22.0359 6.19219L22.0265 6.17344L21.8297 5.83125L21.8203 5.8125C21.45 5.19844 21.0281 4.62187 20.5594 4.08281C20.3109 3.80156 19.7953 3.3375 19.0453 3.36094C18.8531 3.36562 18.6609 3.39844 18.4734 3.45L16.6875 3.98438C16.5937 4.0125 16.439 4.00781 16.2609 3.90469C16.2328 3.88594 16.2047 3.87187 16.1719 3.85312C15.9937 3.75 15.914 3.62344 15.8906 3.525L15.4547 1.72031C15.4078 1.52344 15.3328 1.33594 15.239 1.16719C14.8781 0.510937 14.2265 0.3 13.8609 0.225C13.1062 0.0796875 12.3281 0 11.5312 0ZM9.28124 12C9.28124 11.4033 9.51829 10.831 9.94024 10.409C10.3622 9.98705 10.9345 9.75 11.5312 9.75C12.128 9.75 12.7003 9.98705 13.1222 10.409C13.5442 10.831 13.7812 11.4033 13.7812 12C13.7812 12.5967 13.5442 13.169 13.1222 13.591C12.7003 14.0129 12.128 14.25 11.5312 14.25C10.9345 14.25 10.3622 14.0129 9.94024 13.591C9.51829 13.169 9.28124 12.5967 9.28124 12ZM16.0312 12C16.0312 10.8065 15.5571 9.66193 14.7132 8.81802C13.8693 7.97411 12.7247 7.5 11.5312 7.5C10.3378 7.5 9.19317 7.97411 8.34925 8.81802C7.50534 9.66193 7.03124 10.8065 7.03124 12C7.03124 13.1935 7.50534 14.3381 8.34925 15.182C9.19317 16.0259 10.3378 16.5 11.5312 16.5C12.7247 16.5 13.8693 16.0259 14.7132 15.182C15.5571 14.3381 16.0312 13.1935 16.0312 12Z"/>
</g>
<defs>
<clipPath id="clip0_66_751">
<rect width="24" height="24"/>
</clipPath>
</defs>
</svg>
