<svg xmlns="http://www.w3.org/2000/svg" width="22" height="24" viewBox="0 0 22 24" fill="none">
    <g clip-path="url(#clip0_125_13539)">
        <path d="M0.5 4.12497C0.5 3.50153 1.00156 2.99997 1.625 2.99997H20.375C20.9984 2.99997 21.5 3.50153 21.5 4.12497C21.5 4.74841 20.9984 5.24997 20.375 5.24997H1.625C1.00156 5.24997 0.5 4.74841 0.5 4.12497ZM0.5 11.625C0.5 11.0015 1.00156 10.5 1.625 10.5H14.375C14.9984 10.5 15.5 11.0015 15.5 11.625C15.5 12.2484 14.9984 12.75 14.375 12.75H1.625C1.00156 12.75 0.5 12.2484 0.5 11.625ZM9.5 19.125C9.5 19.7484 8.99844 20.25 8.375 20.25H1.625C1.00156 20.25 0.5 19.7484 0.5 19.125C0.5 18.5015 1.00156 18 1.625 18H8.375C8.99844 18 9.5 18.5015 9.5 19.125Z" fill="black"/>
    </g>
    <defs>
        <clipPath id="clip0_125_13539">
            <rect width="21" height="24" fill="white" transform="translate(0.5)"/>
        </clipPath>
    </defs>
</svg>
