<svg xmlns="http://www.w3.org/2000/svg" width="24" height="24" viewBox="0 0 24 24" fill="none">
    <g clip-path="url(#clip0_125_9494)">
        <path d="M9.75446 2.40938C10.3263 2.30625 10.9216 2.25 11.531 2.25C12.1404 2.25 12.7357 2.30625 13.3076 2.40938L13.706 4.05469C13.8982 4.85156 14.4373 5.45156 15.0607 5.80781L15.1263 5.84531C15.7451 6.20625 16.5373 6.375 17.3248 6.14531L18.9466 5.66719C19.2935 6.075 19.6123 6.51094 19.8888 6.97031L20.0763 7.29375C20.3295 7.75313 20.5498 8.24063 20.7279 8.74219L19.4998 9.90937C18.9045 10.4719 18.656 11.2406 18.6607 11.9578V11.9953V12.0328C18.656 12.75 18.9091 13.5141 19.4998 14.0812L20.7279 15.2484C20.5498 15.75 20.3295 16.2375 20.0763 16.6969L19.8888 17.0203C19.6123 17.4797 19.2935 17.9156 18.9466 18.3234L17.3248 17.8453C16.5373 17.6109 15.7451 17.7797 15.1263 18.1453L15.0607 18.1828C14.442 18.5391 13.8982 19.1391 13.706 19.9359L13.3076 21.5812C12.731 21.6891 12.1357 21.7406 11.531 21.7406C10.9263 21.7406 10.3263 21.6844 9.75446 21.5812L9.35602 19.9359C9.16383 19.1391 8.62477 18.5391 8.00133 18.1828L7.93571 18.1453C7.31696 17.7844 6.52477 17.6156 5.73727 17.8453L4.12008 18.3328C3.77321 17.925 3.45446 17.4891 3.1779 17.0297L2.9904 16.7016C2.73727 16.2422 2.51696 15.7547 2.33883 15.2531L3.56696 14.0859C4.16227 13.5234 4.41071 12.7547 4.40602 12.0375V12V11.9625C4.41071 11.2453 4.15758 10.4812 3.56696 9.91406L2.33883 8.74688C2.51696 8.24531 2.73727 7.75781 2.9904 7.29844L3.1779 6.975C3.45446 6.51562 3.77321 6.07969 4.12008 5.67188L5.74196 6.15C6.52946 6.38437 7.32165 6.21563 7.9404 5.85L8.00602 5.8125C8.62477 5.45625 9.16852 4.85625 9.36071 4.05937L9.75915 2.41406L9.75446 2.40938ZM11.531 0C10.7341 0 9.95602 0.0796875 9.19665 0.225C8.82633 0.295313 8.17477 0.510937 7.81852 1.16719C7.72477 1.34062 7.64977 1.52344 7.6029 1.72031L7.16696 3.525C7.14352 3.61875 7.06383 3.75 6.88571 3.85312C6.85758 3.87187 6.82946 3.88594 6.79665 3.90469C6.61852 4.00781 6.46852 4.0125 6.37008 3.98438L4.59352 3.45938C4.40602 3.40313 4.21383 3.375 4.02165 3.37031C3.26696 3.34688 2.75602 3.81094 2.50758 4.09219C2.03883 4.62656 1.61696 5.20781 1.24665 5.82187L1.23727 5.84062L1.0404 6.18281L1.03102 6.20156C0.688834 6.81563 0.402897 7.4625 0.173209 8.1375C0.0466467 8.48906 -0.0939783 9.15469 0.290397 9.79219C0.393522 9.96094 0.520084 10.1203 0.665397 10.2609L2.0154 11.5453C2.08571 11.6156 2.15602 11.7469 2.15602 11.9531V12.0047V12.0563C2.15602 12.2578 2.08571 12.3937 2.0154 12.4641L0.665397 13.7391C0.520084 13.8797 0.393522 14.0391 0.290397 14.2078C-0.0939783 14.8453 0.0466467 15.5109 0.168522 15.8625C0.398209 16.5375 0.684147 17.1844 1.02633 17.7984L1.03571 17.8172L1.23727 18.1641L1.24665 18.1828C1.61696 18.7969 2.03883 19.3734 2.50758 19.9078C2.75602 20.1891 3.27165 20.6531 4.02165 20.6297C4.21383 20.625 4.40602 20.5922 4.59352 20.5406L6.37477 20.0156C6.46852 19.9875 6.62321 19.9922 6.80133 20.0953C6.82946 20.1141 6.85758 20.1281 6.8904 20.1469C7.06852 20.25 7.14821 20.3766 7.17165 20.475L7.60758 22.2797C7.65446 22.4766 7.72946 22.6641 7.82321 22.8328C8.18415 23.4891 8.83571 23.7 9.20133 23.775C9.95602 23.925 10.7388 24 11.5357 24C12.3326 24 13.1107 23.9203 13.8701 23.775C14.2404 23.7047 14.892 23.4891 15.2482 22.8328C15.342 22.6594 15.417 22.4766 15.4638 22.2797L15.8998 20.475C15.9232 20.3812 16.0029 20.25 16.181 20.1469C16.2091 20.1281 16.2373 20.1141 16.2701 20.0953C16.4482 19.9922 16.5982 19.9875 16.6966 20.0156L18.4779 20.5406C18.6654 20.5969 18.8576 20.625 19.0498 20.6297C19.8045 20.6531 20.3154 20.1891 20.5638 19.9078C21.0326 19.3734 21.4545 18.7922 21.8248 18.1781L21.8341 18.1594L22.031 17.8172L22.0404 17.7984C22.3826 17.1844 22.6685 16.5375 22.8982 15.8625C23.0201 15.5062 23.1607 14.8406 22.7716 14.2031C22.6685 14.0344 22.542 13.875 22.3966 13.7344L21.0466 12.4547C20.9763 12.3844 20.906 12.2531 20.906 12.0469V11.9953V11.9438C20.906 11.7422 20.9763 11.6063 21.0466 11.5359L22.392 10.2563C22.5373 10.1156 22.6638 9.95625 22.767 9.7875C23.1513 9.15 23.0107 8.48438 22.8935 8.12812C22.6638 7.45312 22.3779 6.80625 22.0357 6.19219L22.0263 6.17344L21.8295 5.83125L21.8201 5.8125C21.4498 5.19844 21.0279 4.62187 20.5591 4.08281C20.3107 3.80156 19.7951 3.3375 19.0451 3.36094C18.8529 3.36562 18.6607 3.39844 18.4732 3.45L16.6873 3.98438C16.5935 4.0125 16.4388 4.00781 16.2607 3.90469C16.2326 3.88594 16.2045 3.87187 16.1716 3.85312C15.9935 3.75 15.9138 3.62344 15.8904 3.525L15.4545 1.72031C15.4076 1.52344 15.3326 1.33594 15.2388 1.16719C14.8779 0.510937 14.2263 0.3 13.8607 0.225C13.106 0.0796875 12.3279 0 11.531 0ZM9.28102 12C9.28102 11.4033 9.51807 10.831 9.94003 10.409C10.362 9.98705 10.9343 9.75 11.531 9.75C12.1278 9.75 12.7001 9.98705 13.122 10.409C13.544 10.831 13.781 11.4033 13.781 12C13.781 12.5967 13.544 13.169 13.122 13.591C12.7001 14.0129 12.1278 14.25 11.531 14.25C10.9343 14.25 10.362 14.0129 9.94003 13.591C9.51807 13.169 9.28102 12.5967 9.28102 12ZM16.031 12C16.031 10.8065 15.5569 9.66193 14.713 8.81802C13.8691 7.97411 12.7245 7.5 11.531 7.5C10.3375 7.5 9.19296 7.97411 8.34904 8.81802C7.50513 9.66193 7.03102 10.8065 7.03102 12C7.03102 13.1935 7.50513 14.3381 8.34904 15.182C9.19296 16.0259 10.3375 16.5 11.531 16.5C12.7245 16.5 13.8691 16.0259 14.713 15.182C15.5569 14.3381 16.031 13.1935 16.031 12Z" fill="black"/>
    </g>
    <defs>
        <clipPath id="clip0_125_9494">
            <rect width="24" height="24" fill="white"/>
        </clipPath>
    </defs>
</svg>
