<svg xmlns="http://www.w3.org/2000/svg" width="24" height="24" viewBox="0 0 24 24" fill="none">
    <path d="M13.125 4.875C13.125 5.49844 12.6234 6 12 6C11.3766 6 10.875 5.49844 10.875 4.875V1.125C10.875 0.503906 11.3766 0 12 0C12.6234 0 13.125 0.503906 13.125 1.125V4.875ZM13.125 22.875C13.125 23.4984 12.6234 24 12 24C11.3766 24 10.875 23.4984 10.875 22.875V19.125C10.875 18.5016 11.3766 18 12 18C12.6234 18 13.125 18.5016 13.125 19.125V22.875ZM0 12C0 11.3766 0.503906 10.875 1.125 10.875H4.875C5.49844 10.875 6 11.3766 6 12C6 12.6234 5.49844 13.125 4.875 13.125H1.125C0.503906 13.125 0 12.6234 0 12ZM22.875 10.875C23.4984 10.875 24 11.3766 24 12C24 12.6234 23.4984 13.125 22.875 13.125H19.125C18.5016 13.125 18 12.6234 18 12C18 11.3766 18.5016 10.875 19.125 10.875H22.875ZM20.4844 3.51469C20.925 3.95391 20.925 4.66641 20.4844 5.10469L17.8359 7.75781C17.3953 8.19844 16.6828 8.19844 16.2422 7.75781C15.8016 7.31719 15.8016 6.60469 16.2422 6.16875L18.8953 3.51469C19.3359 3.07547 20.0438 3.07547 20.4844 3.51469ZM5.10469 20.4844C4.66406 20.925 3.95625 20.925 3.47344 20.4844C3.07547 20.0438 3.07547 19.3313 3.47344 18.8953L6.16406 16.2422C6.60469 15.8016 7.31719 15.8016 7.75781 16.2422C8.19844 16.6828 8.19844 17.3953 7.75781 17.8312L5.10469 20.4844ZM3.47344 3.51469C3.95625 3.07547 4.66406 3.07547 5.10469 3.51469L7.75781 6.16875C8.19844 6.60469 8.19844 7.31719 7.75781 7.75781C7.31719 8.19844 6.60469 8.19844 6.16406 7.75781L3.47344 5.10469C3.07547 4.66641 3.07547 3.95391 3.47344 3.51469ZM20.4844 18.8953C20.925 19.3313 20.925 20.0438 20.4844 20.4844C20.0438 20.925 19.3359 20.925 18.8953 20.4844L16.2422 17.8312C15.8016 17.3953 15.8016 16.6828 16.2422 16.2422C16.6828 15.8016 17.3953 15.8016 17.8359 16.2422L20.4844 18.8953Z" fill="black"/>
</svg>
