<svg width="24" height="20" viewBox="0 0 24 20" fill="none" xmlns="http://www.w3.org/2000/svg">
<g clip-path="url(#clip0_66_742)">
<path d="M11.9775 0.158533C12.3938 0.147283 12.765 0.424783 12.87 0.829783L15.8438 12.226L16.86 10.0623C17.205 9.32728 17.9475 8.85478 18.7612 8.85478H23.1C23.5988 8.85478 24 9.25603 24 9.75478C24 10.2535 23.5988 10.6548 23.1 10.6548H18.7612C18.645 10.6548 18.54 10.7223 18.4913 10.8273L16.4138 15.241C16.2525 15.5823 15.8925 15.7885 15.5175 15.7548C15.1425 15.721 14.8238 15.451 14.73 15.0873L12.1013 5.01103L9.28125 18.6423C9.19875 19.051 8.84625 19.3473 8.43 19.3585C8.01375 19.3698 7.6425 19.0998 7.53375 18.6985L5.37375 10.8798C5.33625 10.7485 5.22 10.6585 5.085 10.6585H0.9C0.40125 10.6585 0 10.2573 0 9.75853C0 9.25978 0.40125 8.85853 0.9 8.85853H5.085C6.03 8.85853 6.85875 9.48853 7.11 10.3998L8.2725 14.6223L11.1188 0.874783C11.205 0.466033 11.5575 0.169783 11.9775 0.158533Z"/>
</g>
<defs>
<clipPath id="clip0_66_742">
<rect width="24" height="19.2" transform="translate(0 0.158569)"/>
</clipPath>
</defs>
</svg>
