<svg xmlns="http://www.w3.org/2000/svg" width="24" height="24" viewBox="0 0 24 24" fill="none">
    <g clip-path="url(#clip0_125_9495)">
        <path d="M7.44828 2.48276H2.48276V7.44828H7.44828V2.48276ZM2.48276 0H7.44828C8.81897 0 9.93104 1.11207 9.93104 2.48276V7.44828C9.93104 8.81897 8.81897 9.93104 7.44828 9.93104H2.48276C1.11207 9.93104 0 8.81897 0 7.44828V2.48276C0 1.11207 1.11207 0 2.48276 0ZM7.44828 15.7241H2.48276V20.6897H7.44828V15.7241ZM2.48276 13.2414H7.44828C8.81897 13.2414 9.93104 14.3534 9.93104 15.7241V20.6897C9.93104 22.0603 8.81897 23.1724 7.44828 23.1724H2.48276C1.11207 23.1724 0 22.0603 0 20.6897V15.7241C0 14.3534 1.11207 13.2414 2.48276 13.2414ZM15.7241 2.48276V7.44828H20.6897V2.48276H15.7241ZM13.2414 2.48276C13.2414 1.11207 14.3534 0 15.7241 0H20.6897C22.0603 0 23.1724 1.11207 23.1724 2.48276V7.44828C23.1724 8.81897 22.0603 9.93104 20.6897 9.93104H15.7241C14.3534 9.93104 13.2414 8.81897 13.2414 7.44828V2.48276ZM18.2069 12.4138C18.8948 12.4138 19.4483 12.9672 19.4483 13.6552V16.9655H22.7586C23.4466 16.9655 24 17.519 24 18.2069C24 18.8948 23.4466 19.4483 22.7586 19.4483H19.4483V22.7586C19.4483 23.4466 18.8948 24 18.2069 24C17.519 24 16.9655 23.4466 16.9655 22.7586V19.4483H13.6552C12.9672 19.4483 12.4138 18.8948 12.4138 18.2069C12.4138 17.519 12.9672 16.9655 13.6552 16.9655H16.9655V13.6552C16.9655 12.9672 17.519 12.4138 18.2069 12.4138Z" fill="black"/>
    </g>
    <defs>
        <clipPath id="clip0_125_9495">
            <rect width="24" height="24" fill="white"/>
        </clipPath>
    </defs>
</svg>
