<svg xmlns="http://www.w3.org/2000/svg" width="24" height="24" viewBox="0 0 24 24" fill="none">
    <path d="M20.5717 13.8011V11.0659C20.5689 8.9492 19.7767 6.90968 18.3501 5.34605C16.9234 3.78242 14.9649 2.80711 12.8573 2.61081V0.857155C12.8573 0.629823 12.767 0.411802 12.6063 0.251055C12.4455 0.0903071 12.2275 0 12.0002 0C11.7728 0 11.5548 0.0903071 11.3941 0.251055C11.2333 0.411802 11.143 0.629823 11.143 0.857155V2.61098C9.03549 2.80728 7.07696 3.78256 5.65031 5.34616C4.22366 6.90975 3.43147 8.94923 3.42862 11.0659V13.801C2.46132 13.9998 1.59215 14.526 0.967595 15.2909C0.343044 16.0559 0.00131174 17.0127 0 18.0002C0.000748707 18.682 0.27191 19.3356 0.753991 19.8177C1.23607 20.2998 1.8897 20.571 2.57146 20.5717H7.80105C7.99869 21.5395 8.52457 22.4094 9.28974 23.0341C10.0549 23.6588 11.0124 24 12.0002 24C12.988 24 13.9454 23.6588 14.7106 23.0341C15.4758 22.4094 16.0016 21.5395 16.1993 20.5717H21.4289C22.1106 20.571 22.7643 20.2998 23.2463 19.8177C23.7284 19.3356 23.9996 18.682 24.0003 18.0002C23.999 17.0128 23.6572 16.0559 23.0327 15.291C22.4081 14.5261 21.539 13.9999 20.5717 13.8011ZM5.14293 11.0659C5.1452 9.26837 5.86025 7.54515 7.13128 6.27412C8.4023 5.0031 10.1255 4.28804 11.923 4.28577H12.0773C13.8748 4.28804 15.598 5.0031 16.8691 6.27412C18.1401 7.54515 18.8551 9.26837 18.8574 11.0659V13.7145H5.14293V11.0659ZM12.0002 22.286C11.4701 22.2844 10.9536 22.1187 10.5214 21.8118C10.0893 21.5048 9.76277 21.0717 9.58668 20.5717H14.4137C14.2376 21.0717 13.911 21.5048 13.4789 21.8118C13.0468 22.1187 12.5302 22.2844 12.0002 22.286ZM21.4289 18.8574H2.57146C2.34417 18.8573 2.12623 18.7669 1.96551 18.6062C1.8048 18.4455 1.71445 18.2275 1.71431 18.0002C1.71506 17.3185 1.98622 16.6649 2.4683 16.1828C2.95038 15.7007 3.60401 15.4295 4.28577 15.4288H19.7146C20.3963 15.4295 21.05 15.7007 21.532 16.1828C22.0141 16.6649 22.2853 17.3185 22.286 18.0002C22.2859 18.2275 22.1955 18.4455 22.0348 18.6062C21.8741 18.7669 21.6562 18.8573 21.4289 18.8574Z" fill="black"/>
</svg>
