<svg width="24" height="24" viewBox="0 0 24 24" fill="none" xmlns="http://www.w3.org/2000/svg">
<g clip-path="url(#clip0_66_758)">
<path d="M8.25 4.125C8.25 4.12969 8.25469 4.15312 8.27813 4.19531C8.30625 4.25156 8.37187 4.34062 8.49844 4.45312C8.51719 4.46719 8.53594 4.48594 8.55469 4.5C7.67812 4.51875 6.825 4.57969 6.00469 4.69219V4.125C6.00469 3.28125 6.45937 2.60625 6.99375 2.12344C7.52812 1.64062 8.24531 1.25625 9.03281 0.95625C10.6125 0.351562 12.7266 0 15 0C17.2734 0 19.3875 0.351562 20.9672 0.951562C21.7547 1.25156 22.4719 1.63594 23.0062 2.11875C23.5406 2.60156 24 3.28125 24 4.125V9V13.875C24 14.7188 23.5453 15.3938 23.0109 15.8766C22.4766 16.3594 21.7594 16.7437 20.9719 17.0438C20.5219 17.2172 20.0297 17.3672 19.5047 17.4938V15.1688C19.7437 15.0984 19.9641 15.0234 20.1703 14.9437C20.8078 14.7 21.2484 14.4375 21.5062 14.2078C21.6328 14.0953 21.6984 14.0063 21.7266 13.95C21.7547 13.8984 21.7547 13.8797 21.7547 13.8797V11.8312C21.5063 11.9531 21.2437 12.0656 20.9719 12.1688C20.5219 12.3422 20.0297 12.4922 19.5047 12.6188V10.2938C19.7437 10.2234 19.9641 10.1484 20.1703 10.0688C20.8078 9.825 21.2484 9.5625 21.5062 9.33281C21.6328 9.22031 21.6984 9.13125 21.7266 9.075C21.75 9.03281 21.7547 9.00938 21.7547 9.00469V6.95625C21.5063 7.07812 21.2437 7.19063 20.9719 7.29375C20.3297 7.5375 19.5938 7.74375 18.8016 7.89844C18.5625 7.54688 18.2859 7.24687 18.0141 7.00312C17.5406 6.57656 16.9922 6.22969 16.4203 5.94375C17.9062 5.83594 19.2 5.55937 20.1703 5.18906C20.8078 4.94531 21.2484 4.68281 21.5062 4.45312C21.6328 4.34062 21.6984 4.25156 21.7266 4.19531C21.75 4.15312 21.7547 4.12969 21.7547 4.125C21.7547 4.125 21.7547 4.10156 21.7266 4.05469C21.6984 3.99844 21.6328 3.90937 21.5062 3.79688C21.2484 3.5625 20.8078 3.3 20.1703 3.06094C18.9 2.57344 17.0719 2.25 15 2.25C12.9281 2.25 11.1 2.57344 9.83438 3.05625C9.19688 3.3 8.75625 3.5625 8.49844 3.79219C8.37187 3.90469 8.30625 3.99375 8.27813 4.05C8.25 4.10156 8.25 4.12031 8.25 4.12031V4.125ZM2.25 10.125C2.25 10.1297 2.25469 10.1531 2.27812 10.1953C2.30625 10.2516 2.37188 10.3406 2.49844 10.4531C2.75625 10.6875 3.19688 10.95 3.83438 11.1891C5.1 11.6719 6.92812 11.9953 9 11.9953C11.0719 11.9953 12.9 11.6719 14.1656 11.1891C14.8031 10.9453 15.2438 10.6828 15.5016 10.4531C15.6281 10.3406 15.6937 10.2516 15.7219 10.1953C15.7453 10.1531 15.75 10.1297 15.75 10.125C15.75 10.125 15.75 10.1016 15.7219 10.0547C15.6937 9.99844 15.6281 9.90938 15.5016 9.79688C15.2438 9.5625 14.8031 9.3 14.1656 9.06094C12.9 8.57812 11.0719 8.25469 9 8.25469C6.92812 8.25469 5.1 8.57812 3.83438 9.06094C3.19688 9.30469 2.75625 9.56719 2.49844 9.79688C2.37188 9.90938 2.30625 9.99844 2.27812 10.0547C2.25 10.1062 2.25 10.125 2.25 10.125ZM0 10.125C0 9.28125 0.454688 8.60625 0.989063 8.12344C1.52344 7.64062 2.24062 7.25625 3.02812 6.95625C4.6125 6.35156 6.72656 6 9 6C11.2734 6 13.3875 6.35156 14.9672 6.95156C15.7547 7.25156 16.4719 7.63594 17.0062 8.11875C17.5406 8.60156 18 9.28125 18 10.125V15V19.875C18 20.7188 17.5453 21.3938 17.0109 21.8766C16.4766 22.3594 15.7594 22.7437 14.9719 23.0438C13.3875 23.6484 11.2734 24 9 24C6.72656 24 4.6125 23.6484 3.03281 23.0484C2.24531 22.7484 1.53281 22.3641 0.99375 21.8812C0.454688 21.3984 0 20.7188 0 19.875V15V10.125ZM15.75 15V12.9562C15.5016 13.0781 15.2391 13.1906 14.9672 13.2938C13.3875 13.8984 11.2734 14.25 9 14.25C6.72656 14.25 4.6125 13.8984 3.03281 13.2984C2.76094 13.1953 2.49844 13.0828 2.25 12.9609V15C2.25 15.0047 2.25469 15.0281 2.27812 15.0703C2.30625 15.1266 2.37188 15.2156 2.49844 15.3281C2.75625 15.5625 3.19688 15.825 3.83438 16.0641C5.1 16.5469 6.92812 16.8703 9 16.8703C11.0719 16.8703 12.9 16.5469 14.1656 16.0641C14.8031 15.8203 15.2438 15.5578 15.5016 15.3281C15.6281 15.2156 15.6937 15.1266 15.7219 15.0703C15.7453 15.0281 15.75 15.0047 15.75 15ZM3.03281 18.1734C2.76094 18.0703 2.49844 17.9578 2.25 17.8359V19.875C2.25 19.875 2.25 19.8984 2.27812 19.9453C2.30625 20.0016 2.37188 20.0906 2.49844 20.2031C2.75625 20.4375 3.19688 20.7 3.83438 20.9391C5.1 21.4219 6.92812 21.7453 9 21.7453C11.0719 21.7453 12.9 21.4219 14.1656 20.9391C14.8031 20.6953 15.2438 20.4328 15.5016 20.2031C15.6281 20.0906 15.6937 20.0016 15.7219 19.9453C15.75 19.8937 15.75 19.875 15.75 19.875V17.8312C15.5016 17.9531 15.2391 18.0656 14.9672 18.1688C13.3875 18.7734 11.2734 19.125 9 19.125C6.72656 19.125 4.6125 18.7734 3.03281 18.1734Z"/>
</g>
<defs>
<clipPath id="clip0_66_758">
<rect width="24" height="24"/>
</clipPath>
</defs>
</svg>
