<svg xmlns="http://www.w3.org/2000/svg" width="24" height="24" viewBox="0 0 24 24" fill="none">
    <g clip-path="url(#clip0_125_9497)">
        <path d="M9.75 19.5C9.75 18.2578 8.74219 17.25 7.5 17.25H3C2.5875 17.25 2.25 16.9125 2.25 16.5V3C2.25 2.5875 2.5875 2.25 3 2.25H21C21.4125 2.25 21.75 2.5875 21.75 3V16.5C21.75 16.9125 21.4125 17.25 21 17.25H14.4984C14.0109 17.25 13.5375 17.4094 13.1484 17.7L9.75 20.25V19.5ZM9.74063 23.0719L9.75 23.0625L14.4984 19.5H21C22.6547 19.5 24 18.1547 24 16.5V3C24 1.34531 22.6547 0 21 0H3C1.34531 0 0 1.34531 0 3V16.5C0 18.1547 1.34531 19.5 3 19.5H5.25H7.5V21.75V21.9375V21.9516V22.2516V23.25C7.5 23.5359 7.65938 23.7937 7.9125 23.9203C8.16563 24.0469 8.47031 24.0187 8.7 23.85L9.50156 23.25L9.74063 23.0719ZM5.625 9C5.00156 9 4.5 9.50156 4.5 10.125C4.5 10.7484 5.00156 11.25 5.625 11.25H12.375C12.9984 11.25 13.5 10.7484 13.5 10.125C13.5 9.50156 12.9984 9 12.375 9H5.625ZM16.125 9C15.5016 9 15 9.50156 15 10.125C15 10.7484 15.5016 11.25 16.125 11.25H18.375C18.9984 11.25 19.5 10.7484 19.5 10.125C19.5 9.50156 18.9984 9 18.375 9H16.125ZM5.625 12.75C5.00156 12.75 4.5 13.2516 4.5 13.875C4.5 14.4984 5.00156 15 5.625 15H7.875C8.49844 15 9 14.4984 9 13.875C9 13.2516 8.49844 12.75 7.875 12.75H5.625ZM11.625 12.75C11.0016 12.75 10.5 13.2516 10.5 13.875C10.5 14.4984 11.0016 15 11.625 15H18.375C18.9984 15 19.5 14.4984 19.5 13.875C19.5 13.2516 18.9984 12.75 18.375 12.75H11.625Z" fill="black"/>
    </g>
    <defs>
        <clipPath id="clip0_125_9497">
            <rect width="24" height="24" fill="white"/>
        </clipPath>
    </defs>
</svg>
