<svg xmlns="http://www.w3.org/2000/svg" width="24" height="24" viewBox="0 0 24 24" fill="none">
    <g clip-path="url(#clip0_125_9487)">
        <path d="M2.57143 2.57143V11.1429H7.71429V2.57143H2.57143ZM0 2.57143C0 1.15179 1.15179 0 2.57143 0H7.71429C9.13393 0 10.2857 1.15179 10.2857 2.57143V11.1429C10.2857 12.5625 9.13393 13.7143 7.71429 13.7143H2.57143C1.15179 13.7143 0 12.5625 0 11.1429V2.57143ZM16.2857 12.8571V21.4286H21.4286V12.8571H16.2857ZM13.7143 12.8571C13.7143 11.4375 14.8661 10.2857 16.2857 10.2857H21.4286C22.8482 10.2857 24 11.4375 24 12.8571V21.4286C24 22.8482 22.8482 24 21.4286 24H16.2857C14.8661 24 13.7143 22.8482 13.7143 21.4286V12.8571ZM7.71429 18H2.57143V21.4286H7.71429V18ZM2.57143 15.4286H7.71429C9.13393 15.4286 10.2857 16.5804 10.2857 18V21.4286C10.2857 22.8482 9.13393 24 7.71429 24H2.57143C1.15179 24 0 22.8482 0 21.4286V18C0 16.5804 1.15179 15.4286 2.57143 15.4286ZM16.2857 2.57143V6H21.4286V2.57143H16.2857ZM13.7143 2.57143C13.7143 1.15179 14.8661 0 16.2857 0H21.4286C22.8482 0 24 1.15179 24 2.57143V6C24 7.41964 22.8482 8.57143 21.4286 8.57143H16.2857C14.8661 8.57143 13.7143 7.41964 13.7143 6V2.57143Z" fill="black"/>
    </g>
    <defs>
        <clipPath id="clip0_125_9487">
            <rect width="24" height="24" fill="white"/>
        </clipPath>
    </defs>
</svg>
