<svg xmlns="http://www.w3.org/2000/svg" width="18" height="24" viewBox="0 0 18 24" fill="none">
    <g clip-path="url(#clip0_118_7974)">
        <path d="M2.25 21V3C2.25 2.5875 2.5875 2.25 3 2.25H10.5V6C10.5 6.82969 11.1703 7.5 12 7.5H15.75V21C15.75 21.4125 15.4125 21.75 15 21.75H3C2.5875 21.75 2.25 21.4125 2.25 21ZM3 0C1.34531 0 0 1.34531 0 3V21C0 22.6547 1.34531 24 3 24H15C16.6547 24 18 22.6547 18 21V7.24219C18 6.44531 17.6859 5.68125 17.1234 5.11875L12.8766 0.876563C12.3141 0.314063 11.5547 0 10.7578 0H3ZM10.125 10.875C10.125 10.2516 9.62344 9.75 9 9.75C8.37656 9.75 7.875 10.2516 7.875 10.875V15.6609L6.42188 14.2078C5.98125 13.7672 5.26875 13.7672 4.83281 14.2078C4.39687 14.6484 4.39219 15.3609 4.83281 15.7969L8.20781 19.1719C8.64844 19.6125 9.36094 19.6125 9.79688 19.1719L13.1719 15.7969C13.6125 15.3562 13.6125 14.6438 13.1719 14.2078C12.7312 13.7719 12.0188 13.7672 11.5828 14.2078L10.1297 15.6609V10.875H10.125Z" fill="black"/>
    </g>
    <defs>
        <clipPath id="clip0_118_7974">
            <rect width="18" height="24" fill="white"/>
        </clipPath>
    </defs>
</svg>
