<svg xmlns="http://www.w3.org/2000/svg" width="18" height="24" viewBox="0 0 18 24" fill="none">
    <g clip-path="url(#clip0_357_17315)">
        <path d="M2.25 21V3C2.25 2.5875 2.5875 2.25 3 2.25H10.5V6C10.5 6.82969 11.1703 7.5 12 7.5H15.75V21C15.75 21.4125 15.4125 21.75 15 21.75H3C2.5875 21.75 2.25 21.4125 2.25 21ZM3 0C1.34531 0 0 1.34531 0 3V21C0 22.6547 1.34531 24 3 24H15C16.6547 24 18 22.6547 18 21V7.24219C18 6.44531 17.6859 5.68125 17.1234 5.11875L12.8766 0.876563C12.3141 0.314063 11.5547 0 10.7578 0H3Z" fill="black"/>
        <path d="M9.00312 18.7523C8.37968 18.7523 7.87812 18.2508 7.87812 17.6273L7.87343 17.6273L7.87343 12.8414L6.42031 14.2945C5.98437 14.7351 5.27187 14.7304 4.83125 14.2945C4.39062 13.8586 4.39062 13.1461 4.83125 12.7054L8.20625 9.33044C8.64219 8.88982 9.35469 8.88982 9.79531 9.33044L13.1703 12.7054C13.6109 13.1414 13.6062 13.8539 13.1703 14.2945C12.7344 14.7351 12.0219 14.7351 11.5812 14.2945L10.1281 12.8414L10.1281 17.6273C10.1281 18.2508 9.62656 18.7523 9.00312 18.7523Z" fill="black"/>
    </g>
    <defs>
        <clipPath id="clip0_357_17315">
            <rect width="18" height="24" fill="white"/>
        </clipPath>
    </defs>
</svg>
