<svg xmlns="http://www.w3.org/2000/svg" width="24" height="24" viewBox="0 0 24 24" fill="none">
    <g clip-path="url(#clip0_125_9498)">
        <path d="M20.6719 2.76091L21.2391 3.3281C21.6797 3.76873 21.6797 4.48123 21.2391 4.91716L19.875 6.28591L17.7141 4.12498L19.0781 2.76091C19.5187 2.32029 20.2312 2.32029 20.6672 2.76091H20.6719ZM9.83437 12.0093L16.125 5.71404L18.2859 7.87497L11.9906 14.1656C11.8547 14.3015 11.6859 14.4 11.5031 14.4515L8.76094 15.2344L9.54375 12.4922C9.59531 12.3094 9.69375 12.1406 9.82969 12.0047L9.83437 12.0093ZM17.4891 1.17185L8.24062 10.4156C7.83281 10.8234 7.5375 11.325 7.38281 11.8734L6.04219 16.5609C5.92969 16.9547 6.0375 17.3765 6.32812 17.6672C6.61875 17.9578 7.04062 18.0656 7.43437 17.9531L12.1219 16.6125C12.675 16.4531 13.1766 16.1578 13.5797 15.7547L22.8281 6.51091C24.1453 5.19372 24.1453 3.05623 22.8281 1.73904L22.2609 1.17185C20.9437 -0.145337 18.8062 -0.145337 17.4891 1.17185ZM4.125 2.99998C1.84687 2.99998 0 4.84685 0 7.12497V19.875C0 22.1531 1.84687 24 4.125 24H16.875C19.1531 24 21 22.1531 21 19.875V14.625C21 14.0015 20.4984 13.5 19.875 13.5C19.2516 13.5 18.75 14.0015 18.75 14.625V19.875C18.75 20.9109 17.9109 21.75 16.875 21.75H4.125C3.08906 21.75 2.25 20.9109 2.25 19.875V7.12497C2.25 6.08904 3.08906 5.24998 4.125 5.24998H9.375C9.99844 5.24998 10.5 4.74841 10.5 4.12498C10.5 3.50154 9.99844 2.99998 9.375 2.99998H4.125Z" fill="black"/>
    </g>
    <defs>
        <clipPath id="clip0_125_9498">
            <rect width="24" height="24" fill="white"/>
        </clipPath>
    </defs>
</svg>
