<svg xmlns="http://www.w3.org/2000/svg" width="24" height="22" viewBox="0 0 24 22" fill="none">
    <g clip-path="url(#clip0_350_16107)">
        <path d="M11.9999 3.66669C9.28327 3.66669 7.04994 4.90002 5.33744 6.48752C3.73327 7.97919 2.62493 9.75002 2.05827 11C2.62493 12.25 3.73327 14.0209 5.33327 15.5125C7.04993 17.1 9.28327 18.3334 11.9999 18.3334C14.7166 18.3334 16.9499 17.1 18.6624 15.5125C20.2666 14.0209 21.3749 12.25 21.9416 11C21.3749 9.75002 20.2666 7.97919 18.6666 6.48752C16.9499 4.90002 14.7166 3.66669 11.9999 3.66669ZM3.97494 5.02502C5.93744 3.20002 8.63327 1.66669 11.9999 1.66669C15.3666 1.66669 18.0624 3.20002 20.0249 5.02502C21.9749 6.83752 23.2791 9.00002 23.8999 10.4875C24.0374 10.8167 24.0374 11.1834 23.8999 11.5125C23.2791 13 21.9749 15.1667 20.0249 16.975C18.0624 18.8 15.3666 20.3334 11.9999 20.3334C8.63327 20.3334 5.93744 18.8 3.97494 16.975C2.02494 15.1667 0.720768 13 0.104102 11.5125C-0.0333984 11.1834 -0.0333984 10.8167 0.104102 10.4875C0.720768 9.00002 2.02494 6.83335 3.97494 5.02502ZM11.9999 14.3334C13.8416 14.3334 15.3333 12.8417 15.3333 11C15.3333 9.15835 13.8416 7.66669 11.9999 7.66669C11.9708 7.66669 11.9458 7.66669 11.9166 7.66669C11.9708 7.87919 11.9999 8.10419 11.9999 8.33335C11.9999 9.80419 10.8041 11 9.33327 11C9.1041 11 8.8791 10.9709 8.6666 10.9167C8.6666 10.9459 8.6666 10.9709 8.6666 11C8.6666 12.8417 10.1583 14.3334 11.9999 14.3334ZM11.9999 5.66669C13.4144 5.66669 14.771 6.22859 15.7712 7.22878C16.7714 8.22898 17.3333 9.58553 17.3333 11C17.3333 12.4145 16.7714 13.7711 15.7712 14.7713C14.771 15.7715 13.4144 16.3334 11.9999 16.3334C10.5854 16.3334 9.22889 15.7715 8.2287 14.7713C7.22851 13.7711 6.6666 12.4145 6.6666 11C6.6666 9.58553 7.22851 8.22898 8.2287 7.22878C9.22889 6.22859 10.5854 5.66669 11.9999 5.66669Z" fill="black"/>
    </g>
    <defs>
        <clipPath id="clip0_350_16107">
            <rect width="24" height="21.3333" fill="white" transform="translate(0 0.333344)"/>
        </clipPath>
    </defs>
</svg>
