<svg width="24" height="25" viewBox="0 0 24 25" fill="none" xmlns="http://www.w3.org/2000/svg">
<g clip-path="url(#clip0_66_714)">
<g clip-path="url(#clip1_66_714)">
<path d="M18 22.0085C18.4125 22.0085 18.75 21.671 18.75 21.2585V7.75854H15C14.1703 7.75854 13.5 7.08823 13.5 6.25854V2.50854H6C5.5875 2.50854 5.25 2.84605 5.25 3.25854V21.2585C5.25 21.671 5.5875 22.0085 6 22.0085H18ZM3 3.25854C3 1.60386 4.34531 0.258545 6 0.258545H13.7578C14.5547 0.258545 15.3187 0.572607 15.8812 1.13511L20.1234 5.37729C20.6859 5.93979 21 6.70386 21 7.50073V21.2585C21 22.9132 19.6547 24.2585 18 24.2585H6C4.34531 24.2585 3 22.9132 3 21.2585V3.25854Z"/>
</g>
</g>
<defs>
<clipPath id="clip0_66_714">
<rect width="24" height="24" transform="translate(0 0.258545)"/>
</clipPath>
<clipPath id="clip1_66_714">
<rect width="18" height="24" transform="translate(3 0.258545)"/>
</clipPath>
</defs>
</svg>
