<svg width="24" height="24" viewBox="0 0 24 24" fill="none" xmlns="http://www.w3.org/2000/svg">
<path d="M7.5 3.75H3V8.25H7.5V3.75ZM3 1.5H7.5C8.74219 1.5 9.75 2.50781 9.75 3.75V8.25C9.75 9.49219 8.74219 10.5 7.5 10.5H3C1.75781 10.5 0.75 9.49219 0.75 8.25V3.75C0.75 2.50781 1.75781 1.5 3 1.5ZM7.5 15.75H3V20.25H7.5V15.75ZM3 13.5H7.5C8.74219 13.5 9.75 14.5078 9.75 15.75V20.25C9.75 21.4922 8.74219 22.5 7.5 22.5H3C1.75781 22.5 0.75 21.4922 0.75 20.25V15.75C0.75 14.5078 1.75781 13.5 3 13.5ZM15 3.75V8.25H19.5V3.75H15ZM12.75 3.75C12.75 2.50781 13.7578 1.5 15 1.5H19.5C20.7422 1.5 21.75 2.50781 21.75 3.75V8.25C21.75 9.49219 20.7422 10.5 19.5 10.5H15C13.7578 10.5 12.75 9.49219 12.75 8.25V3.75ZM17.25 12.75C17.8734 12.75 18.375 13.2516 18.375 13.875V16.875H21.375C21.9984 16.875 22.5 17.3766 22.5 18C22.5 18.6234 21.9984 19.125 21.375 19.125H18.375V22.125C18.375 22.7484 17.8734 23.25 17.25 23.25C16.6266 23.25 16.125 22.7484 16.125 22.125V19.125H13.125C12.5016 19.125 12 18.6234 12 18C12 17.3766 12.5016 16.875 13.125 16.875H16.125V13.875C16.125 13.2516 16.6266 12.75 17.25 12.75Z"/>
</svg>
