<svg xmlns="http://www.w3.org/2000/svg" width="24" height="24" viewBox="0 0 24 24" fill="none">
    <path d="M21.4286 18V20.5714C21.4286 21.0429 21.0429 21.4286 20.5714 21.4286H3.42857C2.95714 21.4286 2.57143 21.0429 2.57143 20.5714V18H21.4286ZM4.03393 15.4286H2.57143V3.42857C2.57143 2.95714 2.95714 2.57143 3.42857 2.57143H20.5714C21.0429 2.57143 21.4286 2.95714 21.4286 3.42857V15.4286H20.1643L15.2196 7.86964C14.9839 7.50536 14.5768 7.28571 14.1429 7.28571C13.7089 7.28571 13.3018 7.50536 13.0661 7.86964L10.0661 12.4554L9.17679 11.2446C8.93571 10.9125 8.55 10.7196 8.1375 10.7196C7.725 10.7196 7.34464 10.9125 7.09821 11.2446L4.03393 15.4286ZM24 15.4286V3.42857C24 1.5375 22.4625 0 20.5714 0H3.42857C1.5375 0 0 1.5375 0 3.42857V15.4286V16.7143V18V20.5714C0 22.4625 1.5375 24 3.42857 24H20.5714C22.4625 24 24 22.4625 24 20.5714V18V16.7143V15.4286ZM7.71429 6C7.71429 5.54534 7.53367 5.10931 7.21218 4.78782C6.89069 4.46633 6.45466 4.28571 6 4.28571C5.54534 4.28571 5.10931 4.46633 4.78782 4.78782C4.46633 5.10931 4.28571 5.54534 4.28571 6C4.28571 6.45466 4.46633 6.89069 4.78782 7.21218C5.10931 7.53367 5.54534 7.71429 6 7.71429C6.45466 7.71429 6.89069 7.53367 7.21218 7.21218C7.53367 6.89069 7.71429 6.45466 7.71429 6Z" fill="black"/>
</svg>
