<svg xmlns="http://www.w3.org/2000/svg" width="24" height="24" viewBox="0 0 24 24" fill="none">
    <g clip-path="url(#clip0_137_52458)">
        <path d="M21.75 12C21.75 9.41414 20.7228 6.93419 18.8943 5.10571C17.0658 3.27723 14.5859 2.25 12 2.25C9.41414 2.25 6.93419 3.27723 5.10571 5.10571C3.27723 6.93419 2.25 9.41414 2.25 12C2.25 14.5859 3.27723 17.0658 5.10571 18.8943C6.93419 20.7228 9.41414 21.75 12 21.75C14.5859 21.75 17.0658 20.7228 18.8943 18.8943C20.7228 17.0658 21.75 14.5859 21.75 12ZM0 12C0 8.8174 1.26428 5.76516 3.51472 3.51472C5.76516 1.26428 8.8174 0 12 0C15.1826 0 18.2348 1.26428 20.4853 3.51472C22.7357 5.76516 24 8.8174 24 12C24 15.1826 22.7357 18.2348 20.4853 20.4853C18.2348 22.7357 15.1826 24 12 24C8.8174 24 5.76516 22.7357 3.51472 20.4853C1.26428 18.2348 0 15.1826 0 12ZM12.975 6.2625V6.92813C13.4297 6.98438 13.8844 7.11094 14.3344 7.2375C14.4234 7.26094 14.5078 7.28438 14.5969 7.3125C15.1359 7.4625 15.4547 8.02031 15.3047 8.55938C15.1547 9.09844 14.5969 9.4125 14.0578 9.26719C13.9875 9.24844 13.9125 9.225 13.8375 9.20625C13.5094 9.1125 13.1813 9.02344 12.8484 8.95781C12.2297 8.84063 11.5125 8.89688 10.9359 9.14531C10.4203 9.37031 9.99375 9.91406 10.5797 10.2891C11.0391 10.5844 11.6016 10.7344 12.1359 10.8797C12.2484 10.9078 12.3562 10.9406 12.4641 10.9688C13.1953 11.175 14.1281 11.4422 14.8266 11.9203C15.7359 12.5437 16.1625 13.5562 15.9609 14.6437C15.7688 15.6937 15.0375 16.3828 14.1609 16.7391C13.7953 16.8891 13.3969 16.9828 12.9797 17.0297V17.7422C12.9797 18.3 12.525 18.7547 11.9672 18.7547C11.4094 18.7547 10.9547 18.3 10.9547 17.7422V16.9266C10.275 16.7719 9.60938 16.5562 8.94844 16.3406C8.41875 16.1672 8.12813 15.5906 8.30625 15.0609C8.48438 14.5312 9.05625 14.2406 9.58594 14.4188C9.70312 14.4563 9.82031 14.4984 9.9375 14.5359C10.4672 14.7141 11.0109 14.8969 11.5547 14.9859C12.3516 15.1031 12.9891 15.0328 13.4062 14.8641C13.9688 14.6391 14.2359 13.9688 13.6828 13.5938C13.2094 13.2703 12.6234 13.1109 12.0656 12.9609C11.9578 12.9328 11.8547 12.9047 11.7469 12.8719C11.0391 12.6703 10.1531 12.4219 9.4875 11.9953C8.57344 11.4094 8.10938 10.4344 8.30625 9.35156C8.49375 8.32969 9.29062 7.65 10.1344 7.28437C10.3922 7.17187 10.6687 7.08281 10.9547 7.01719V6.2625C10.9547 5.70469 11.4094 5.25 11.9672 5.25C12.525 5.25 12.9797 5.70469 12.9797 6.2625H12.975Z" fill="black"/>
    </g>
    <defs>
        <clipPath id="clip0_137_52458">
            <rect width="24" height="24" fill="white"/>
        </clipPath>
    </defs>
</svg>
