<svg xmlns="http://www.w3.org/2000/svg" width="24" height="20" viewBox="0 0 24 20" fill="none">
    <g clip-path="url(#clip0_118_7970)">
        <path d="M11.9775 -9.73104e-05C12.3938 -0.0113473 12.765 0.266153 12.87 0.671153L15.8438 12.0674L16.86 9.90365C17.205 9.16865 17.9475 8.69615 18.7612 8.69615H23.1C23.5988 8.69615 24 9.0974 24 9.59615C24 10.0949 23.5988 10.4962 23.1 10.4962H18.7612C18.645 10.4962 18.54 10.5637 18.4913 10.6687L16.4138 15.0824C16.2525 15.4237 15.8925 15.6299 15.5175 15.5962C15.1425 15.5624 14.8238 15.2924 14.73 14.9287L12.1013 4.8524L9.28125 18.4837C9.19875 18.8924 8.84625 19.1887 8.43 19.1999C8.01375 19.2112 7.6425 18.9412 7.53375 18.5399L5.37375 10.7212C5.33625 10.5899 5.22 10.4999 5.085 10.4999H0.9C0.40125 10.4999 0 10.0987 0 9.5999C0 9.10115 0.40125 8.6999 0.9 8.6999H5.085C6.03 8.6999 6.85875 9.3299 7.11 10.2412L8.2725 14.4637L11.1188 0.716153C11.205 0.307403 11.5575 0.0111527 11.9775 -9.73104e-05Z" fill="black"/>
    </g>
    <defs>
        <clipPath id="clip0_118_7970">
            <rect width="24" height="19.2" fill="white"/>
        </clipPath>
    </defs>
</svg>
