<svg xmlns="http://www.w3.org/2000/svg" width="24" height="24" viewBox="0 0 24 24" fill="none">
    <path d="M0.0140625 4.19531C0.0046875 4.29375 0 4.39687 0 4.5V7.5V19.5C0 21.1547 1.34531 22.5 3 22.5H21C22.6547 22.5 24 21.1547 24 19.5V7.5V4.5C24 2.84531 22.6547 1.5 21 1.5H3C2.89687 1.5 2.79375 1.50469 2.69531 1.51406C2.26406 1.55625 1.86094 1.69219 1.5 1.89844C1.02188 2.17969 0.628125 2.58281 0.360937 3.07031C0.178125 3.4125 0.05625 3.79219 0.0140625 4.19531ZM2.25 7.5H21.75V19.5C21.75 19.9125 21.4125 20.25 21 20.25H3C2.5875 20.25 2.25 19.9125 2.25 19.5V7.5Z" fill="black"/>
</svg>
