<svg width="256" height="256" version="1.1" viewBox="0 0 256 256" xml:space="preserve" xmlns="http://www.w3.org/2000/svg">
<style type="text/css">
	.st0{fill-rule:evenodd;clip-rule:evenodd;fill:#FDC500;}
	.st1{fill-rule:evenodd;clip-rule:evenodd;fill:#FFFBDC;}
	.st2{fill-rule:evenodd;clip-rule:evenodd;}
</style>

	
		
		
		
	<g transform="matrix(4.999 0 0 4.999 241.95 406.92)"><g transform="translate(-60.58,-82.57)" clip-rule="evenodd" fill-rule="evenodd">
			<polygon class="st0" points="12.58 51.98 12.58 1.57 55.35 1.57 62.99 8.47 62.99 51.98" fill="#fdc500"/>
			<path class="st1" d="m45.02 43.56-7.23 7.23-7.23-7.23 7.23-7.23zm0-20.76-4.29 4.29 7.37 7.4 7.71-7.71-18.02-18.02-18.02 18.02 7.9 7.44 7.06-7.23-4.18-4.18 7.23-7.23zm-7.39 7.07 10.89 10.57 13.34-13.67-24.07-24.06-24.07 24.07 13.8 13.08 0.12 0.01zm2.74-7.07-2.58 2.58-2.58-2.58 2.58-2.58zm0 20.76-2.58-2.58-2.58 2.58 2.58 2.58z" fill="#fffbdc"/>
		</g></g>
	

</svg>
