<svg width="430" height="493" viewBox="-215 -246.5 430 493" version="1.1" id="svg253" xml:space="preserve" xmlns="http://www.w3.org/2000/svg"><defs id="defs1"><style type="text/css" id="style1">.str0{stroke:#373435}.str1{stroke:#fff}.fil1{fill:#fff}.fil0{fill:#373435}.fil2{fill:#00afef}.fil3{fill:#00a859}.fil4{fill:#ed3237}.fil5{fill:#fff212}.fil6{fill:none}</style></defs><g fill-rule="evenodd" id="g253"><path class="fil0 str0" d="m92.55 239.1-6.6-22.5 4.2-18.6c.6-3.3-23.4 20.1-85.8 20.7v-21.6l10.2-16.8h-31.5l8.1 16.8v21.6c-29.4.6-56.4-8.7-81.3-19.8l3.9 18.3-3.9 26.1c-45.3-6.6-92.1-60.9-101.4-86.4l20.7 5.1 3-20.4c13.2 18.9 28.5 34.8 45.9 48.9l-19.2-33.9 19.8-18.9 16.2 16.2-.3-3.3c-7.2-6.3-12-13.8-15.3-21.6-1.5-.9-3.3 1.5-5.7-.6 0-.3-.6-1.2-.9-2.4-10.2 0-21.3 1.2-31.2-4.5-6-3.9-12.9-7.2-13.2-14.7 8.4-5.1 18.6-3.6 28.2-2.7l-5.1-22.5c-1.5-.9-3 .3-4.5-1.2-.9-.9-.6-3-1.2-3.9-14.4-3.6-27.6-12.9-33.9-26.7-.6-1.8-1.5-3.6-.3-5.4 8.7-2.7 19.2 1.5 26.7 6.9l.9-.3 1.5-21.3c-3-.9-2.4-5.1-3.9-7.5l-12.9-8.1c-7.2-6.3-15-17.1-14.4-28.8l1.8-1.2c7.8 0 16.5 4.8 22.2 10.5.9 0 1.8.9 2.7.3l3.6-16.8c-.6-1.5-.9-3.3-3-3.9l-34.8-.9-16.8-21.6 30.6 2.4.3-1.8c-3-5.7-6.6-13.2-6.3-20.1 3.3-3 9 0 12.6 1.5l13.5 9 2.4-13.5-46.2-14.4 20.1-14.7-5.7-24.9 29.1 14.4c1.5-7.2 2.4-19.5 10.2-25.2 6.9 4.2 9.3 15.6 9.9 23.7l1.2.6 12.3-8.1-.3-1.8-46.5-34.8 24-3 1.8-27 51.9 50.7h25.5l-49.8-72.6 25.2 1.5 8.4-23.1 43.8 94.2h18.3l-27.3-104.4 23.4 9 15-15.9c6 36.3 8.1 74.1 11.7 111.3h15l10.5-111.3 17.7 16.8 21-10.8-26.4 105.3h17.4l42.6-92.1 9.6 24 25.8-1.8-49.8 69.9h28.5l47.4-47.4.9 23.7 23.7 7.5-12.6 8.4-34.5 24.6 13.8 10.2 10.5-22.5 1.5.3c4.2 6.3 7.8 14.4 9.3 21.9l30.6-18.3-7.5 28.5 20.7 14.4-12.9 4.2-35.1 10.5 3 16.2c6.3-5.1 15.3-11.4 24.6-12.3 1.2 5.7-2.7 14.7-6 21h31.5l-16.5 18.9h-40.8l-.3 2.7c5.1 5.7 4.8 15 8.1 21 6.3-5.1 15.3-10.2 23.7-11.4 0 9-3.6 21.3-11.7 27.3-3.9 2.7-7.8-.3-12 1.2l-5.1 6.3c1.2 3 5.1 0 7.5.6.6 1.2 0 2.7.3 4.5l-11.7-.3c-.3 9 7.5 21.9-1.8 31.5-.6 1.2-2.7.3-4.5 1.5 0 1.2-1.2.9-1.5 2.4-1.5 4.5-1.2 6.9-1.2 10.2l9.9-7.5c0-3.3.9-7.2 3.3-10.5 7.8-5.1 17.1-6.3 25.8-6.9 0 7.5-6.3 15-11.4 20.4-2.4 2.7-7.2 4.5-11.1 3.9-1.5-.6-4.2-3.9-6.6-2.1l-7.8 5.7c2.1 3 6 .6 9.6 3 0 1.2-1.5 2.7-1.5 4.2l-12.9-3.9-2.7 23.4c-1.5 4.2-6.9 7.8-12 6.9-3 1.8-5.7 6.6-5.7 10.8 3 1.2 6.3-1.2 9.9-2.4 1.2-4.5 2.1-8.7 7.5-10.8 8.4-2.1 17.4-1.5 26.4 1.8-1.2 6.3-9.9 12-17.1 16.2-4.2 1.5-8.1 1.5-12.3-.9-.9-.9-2.4-3-3.9-3.9l-9.9 4.8c.9 1.5 3.6 2.7 6 3.9.6 1.8-.9 3.9-2.7 4.8l-8.4-8.1c0 3.3-11.1 24.9-11.7 24.9l12.9-12 19.2 18.6-19.2 32.7c18-10.8 33.3-30.3 45-47.4l2.7 20.4 19.8-5.7c-19.2 36.6-55.2 71.4-96 82.8zm-235.5-246-4.2-15.9c1.8-.6 1.8-1.8 3.6-2.7h21.6c.6 2.7 0 5.4.6 8.1l-21.6 10.5zm2.7 49.2-6-13.2c1.5-2.1 1.5-4.5 1.5-6.6 10.2-5.1 17.4-12.3 22.5-22.8l.9 28.5c-8.1 3.3-13.5 7.8-18.6 14.1h-.3zm13.8 47.4-10.2-12.3c.9-1.8.9-3.6 0-5.7 7.2-6 12-13.2 16.2-24l6.3 22.2c-5.1 4.8-9 12-12.3 19.8zm28.5 40.2-12.9-7.5c-.9-.9 0-2.4 0-3.3.9-2.4-1.5-2.7-2.4-5.1 6-8.4 6.3-18.3 7.8-27l12.6 19.8c-4.5 7.8-5.1 15.6-5.1 23.1zm29.1 2.4-8.1 11.7-3-24.6 1.2-.3c24.3 20.7 48.3 25.8 78.9 28.5 23.1-.9 58.8-12.3 72.9-24.3.3-.9 2.7-2.4 3.9-3.9l.9.6c-2.7 5.4-4.8 10.5-2.1 15.3 1.2 2.4 3.9 3.6 5.7 6l-1.8 8.4c-1.2-.3-11.7-14.7-12.6-16.2-39.3 24.6-89.4 26.4-135.9-1.2zm164.4-1.8-5.1-23.7c6-6.3 11.1-12.9 15.6-21 0 5.4-1.8 12 3 17.4.9 1.5 3.3 2.7 6 3.3 1.2 2.1 1.2 6.3 2.1 9.9l-1.2.3-5.4-5.4c-1.5 0-.6 2.7-2.7 3.3v1.2c2.1 2.4 6.3 3.6 9 6l-.6.9-20.7 7.8zm48.3-61.2-4.5-9.9c1.5 0 1.5-2.7 2.7-2.7 2.7 1.5 4.2 3.6 3.6 6.9-.9 1.8-.9 3-1.8 5.4v.3zm-19.5 22.8-12-20.1c3-8.4 5.7-15.6 7.5-24.3 1.5 5.1 3.3 12.6 8.7 15 2.1 1.2 4.5 0 7.2.9 1.5 1.8 2.4 4.5 3.6 7.2-.3 1.2-3-1.5-4.8-1.8-.9.3-1.8 2.7-1.8 4.8 2.7 1.5 5.7.9 8.4 2.7v.9c-7.2 4.2-12.6 7.8-16.8 13.8v.9zm15-47.1c-4.8-4.5-9.6-8.7-16.8-12.3l-.3-34.2c3 5.4 3.6 13.8 11.7 16.8 6.9-1.5 12.3.3 15 6.6-1.8 1.5-4.5-.3-6.9-.3l-1.2 1.8c.3.9 0 2.1 0 3 2.7 1.5 6.3-.3 10.2 0-3.6 5.4-9 10.8-11.1 18.6h-.6zm4.5-46.5c-5.4-5.1-12.3-9-20.7-12.3-1.5-3.6 0-7.2-.6-10.8l30-.6c-2.7 7.5-8.1 15-8.7 23.7z" id="path1"/><path class="fil1 str1" d="M.75 145.8c-78.9-4.2-115.8-53.4-118.5-121.8v-155.4h236.7V24c-2.1 76.2-52.2 116.7-118.2 121.8z" id="path2"/><path class="fil2" d="M.15 140.1c-72.9-4.2-108-42.6-114.3-116.1v-150.6h229.8V24c-4.2 72.3-48.9 113.1-115.5 116.1z" id="path3" style="fill:#214c92;fill-opacity:1"/><path class="fil1 str1" d="M2.85 112.2c-51.9-.3-88.2-38.4-88.8-88.2V-96.9h171.9V24c0 51.6-38.4 87-83.1 88.2z" id="path4"/><path class="fil2" d="M1.05 106.8c-37.8.9-80.4-29.4-82.8-82.8V-91.5h163.2V24c-3 61.8-48.6 81.3-80.4 82.8z" id="path5" style="fill:#214c92;fill-opacity:1"/><path class="fil3" d="M-77.85 24v-44.7h156V24c0 44.4-35.4 78.6-76.5 79.8-46.8-1.8-79.5-37.2-79.5-79.8z" id="path6" style="fill:#5a9a56;fill-opacity:1"/><path class="fil0 str0" d="M-55.65 68.7c-1.2-.3-1.2-1.2-2.1-2.1.6-2.1 0-3.6.9-5.4l11.7-5.1c3.6-3.3 8.1-9 6.9-15.3 0-1.5-1.5-3.6-3.3-4.5-3.9-1.8-8.1 1.8-12 1.2-1.2-3-1.8-5.4-5.1-6.9-4.2-1.8-9.3-.3-12.9-1.8V18l.9-.9c.6 0 2.4-.3 3 .9.9 2.7 3.6 3.6 5.7 5.4 7.5.9 15.6 2.7 23.4-1.8.9-1.8 1.8-3.9-.6-5.1-1.5 0-3 .6-5.1 1.8-1.8-.6-3-2.1-2.7-4.5.3-.9.6-3.6 2.1-4.2l2.7.6c.3-1.5.9-2.4.3-3.9-.9-.6-2.4 0-3.6-.3-1.8-1.5-1.8-5.1-1.8-7.8 7.2-3 19.8-3.3 28.5-2.7.6 2.1-1.2 3.9-.3 5.7.3 0 .9.6 1.8 1.2 0 7.2 3 15.3 9.6 19.8 21.6 4.2 44.1 3.3 66.6.9 2.7-2.1 5.1-5.1 5.1-9.3 0-2.1-1.2-6-3.6-7.5-4.8-3-9.3-1.8-14.4 0-10.5 6.9-24 18-37.2 14.4-3.9-1.5-5.7-3.6-7.2-6.6-.9-3.3 0-8.7 3.9-10.8l18.9-5.4.6.9c-.6 3.9-3.9 5.1-6.9 7.2-1.2.3-.9 2.1-1.8 3.6l-1.8.9c-.9-.9-3-3.3-5.4-1.8-.3 0-.9.6-1.2 1.8 0 1.2.3 3.9 2.7 4.8 19.8 5.4 33-27.6 54.6-12.6 0 .9 1.2.6 1.5 2.1-5.1-2.4-12.6-6.6-18.3-2.4-2.4-1.2-7.2 0-8.4 3 .6.9 0 2.4 1.8 2.7 4.5-3.6 11.1-4.8 16.8-4.2 4.5 3 8.7 9.6 7.8 15.3-.6.6-1.8 0-2.7.3-1.5 2.1-3 3.9-5.4 5.1-.9 1.2-.9 2.4-.9 4.2h1.5l6-3.3c-4.2 6.6-13.5 4.2-19.2 6.6 0 4.2-2.1 10.5 1.8 13.8 2.7 3 8.1 0 11.1 2.4l-.3 20.1h-13.5c-1.2-1.5-.3-3-1.2-4.8l8.1-3 .9-2.1c-3.9-3.6-9.6-4.5-14.4-3l-6.9 3.3c-2.1 0-2.1-1.8-3.9-2.4-7.5 1.5-10.5 7.8-15.3 12H.75c-1.8-.9-.6-2.4-.9-4.2 5.4-3 15.6-7.2 15.6-15.3-12-4.5-22.8 6.6-33.6 1.8l-12 4.2c0 1.2-.9 3-1.2 4.2-5.4 1.2-10.5 3-12.9 8.1-2.7 3-7.2.3-10.8 1.5h-.6z" id="path7"/><path class="fil0 str0" d="M66.75 24.3c3.6-4.8 5.4-11.1 2.1-17.1l1.5 1.5c2.7 4.8.9 12-3.3 15.6h-.3z" id="path8"/><path class="fil0 str0" d="M175.95-45.3v-1.5c.6-.3 2.4-.3 2.7.3l-2.7 1.2z" id="path9"/><g id="g121"><path class="fil3" d="m51.45 182.4 30-25.2c0 2.7 3.3 8.1 1.2 10.8-9.6 6.6-20.4 10.5-31.2 14.4z" id="path10" style="fill:#008245;fill-opacity:1"/><path class="fil3" d="M-55.05 181.2c-12.3-3.6-24.6-10.5-34.8-17.4l.6-1.2c.6 1.8 3 2.7 5.4 2.7 2.4-.6 3.3-3.6 2.1-6.3l26.7 22.2z" id="path11" style="fill:#008245;fill-opacity:1"/><path class="fil4" d="M-85.05 164.4c-1.2 0-1.8-.9-2.1-2.4.3-.6.9-1.5 2.1-2.1h1.5c0 .3 1.8 1.8.9 3l-2.4 1.5z" id="path12"/><path class="fil3" d="M87.45 164.4c-.3-1.5-1.2-1.8-1.8-3 .9-1.5 4.8-1.5 6.3-.3-.6 1.5-2.4 3.3-4.5 3.3z" id="path13" style="fill:#008245;fill-opacity:1"/><path class="fil4" d="m-92.55 161.7-.9-.6.3-2.1c.9-1.8 3.6-.3 5.4-.9v.9c-1.5.9-3.3 1.5-4.8 2.7z" id="path14"/><path class="fil3" d="M91.05 157.2c-1.5-.9-4.5.9-5.1-.9 1.8-2.4 3.9-3.9 6-6.6 3.3-2.4 6.6 2.7 9.9.9l-4.8 5.7c-1.2 1.5-3.3.9-5.7.9h-.3z" id="path15" style="fill:#008245;fill-opacity:1"/><path class="fil3" d="m-99.75 157.2-7.8-6.6.3-1.2 11.7 6.9c-.3 1.5-2.4.3-3.6.9h-.6z" id="path16" style="fill:#008245;fill-opacity:1"/><path class="fil3" d="M-87.75 156.3c-11.4-2.4-19.8-9-26.7-18.3-2.4-4.2-6.6-10.5-4.5-15.3 3 0 6.3.6 9.3 2.1 11.4 5.7 21 14.1 23.7 27.6h-.9c-3.9-1.8-1.2-7.2-3-9.9-2.7 0 0 3.9-1.8 4.8-1.8-.6-3.6-2.1-3.6-4.8-.3-1.8.9-5.4-1.2-6.6-1.5 1.2-.9 3.9-.9 5.4-2.4 1.2-3-1.2-4.5-2.7-.3-2.4 1.2-6.3-.9-8.1-1.8 1.5-.3 3.9-.9 5.4l-.9.3c-1.5-.6-1.8-.9-3.3-2.7-.3-2.1 1.5-5.1-.9-6.6 0 .3-1.5 1.5-1.2 3-1.2.9-1.8-1.5-3.6-1.8l-.9.9c.9 1.5 2.7 1.5 3.3 3.9-.6 1.5-2.4 0-3.3 1.5 2.7.9 8.1 0 9 4.5-.9 1.2-3.3-.9-4.5 1.2l10.8 3.3c-.6 1.8-2.7 0-3.9.9l-.6 1.5c3.3.9 8.4-1.5 10.5 3 0 .9-1.5 1.8-2.1 1.8 2.7.9 7.2.9 8.4 4.5l-.9 1.2z" id="path17" style="fill:#008245;fill-opacity:1"/><path class="fil3" d="M83.85 152.4c0-4.2 0-10.8 4.8-12.3 1.8.9 1.8 3.6 1.8 6-1.5 2.7-3.3 4.5-6.3 6l-.3.3z" id="path18" style="fill:#008245;fill-opacity:1"/><path class="fil3" d="M-82.35 150.6c-1.2-2.1 0-3.9.9-5.4l.6-.9c0-.6 1.2-.9.3-2.4-1.2 0-1.2 1.5-3 1.8-1.8-1.8 0-5.7 1.5-7.8 0-.9.9-.6 1.2-2.1l-.6-.6c-.9.3-1.2 1.8-2.4 2.4l-1.2-.3c-2.1-4.8 2.7-7.5 3-11.1-1.5 0-1.5 2.4-3.9 3-.9-2.1-1.2-4.5-.3-6.6.9-.6 1.8-1.2 2.4-3l-.6-.6c-.6.6-1.8.6-2.7 1.5-1.5-.9 0-3.9-2.1-4.8-1.5.6-.3 3-.6 4.8h-2.7c0 1.5 1.5 2.1 3 3.3.9.9.6 3.3.9 5.4-1.2.9-2.1-1.2-3.9-1.5v1.8c3.3 1.5 6.3 5.4 4.5 8.4l-6.6-3c-2.1-7.8-.9-16.2 3-24.6h1.8c10.2 8.7 12 24.6 9.9 36.9-1.5 1.5-.6 4.2-2.4 5.4z" id="path19" style="fill:#008245;fill-opacity:1"/><path class="fil3" d="M99.15 148.8c-.9-.3-2.1-.9-3.6-1.5 1.5-1.2 4.8 0 6.9-.6l.9-.9c-.9-2.1-4.2.3-5.1-2.1 1.5-3 6.9-1.2 9.3-3l-.3-.9c-.6-.9-1.5 0-3-.6V138c1.5-2.4 4.8-1.5 6.3-2.7l-.9-1.5c0-1.8 2.4-1.8 3.3-4.2l-.6-1.2c-1.5 0-2.7 2.1-3.9 3.9-1.8 0-.6-1.8-1.5-2.7h-1.2c-.9 2.4.3 5.7-3.3 6.9-1.2-.3 0-2.1-.6-3.6l-.9-.6c-1.8 2.7 0 8.4-4.8 10.2-.6-1.5.6-2.7 0-4.8h-1.8c-.6 2.1 0 3.6-1.2 5.7-.6-2.1-1.2-4.5 0-7.2 6-6.6 14.7-9.3 23.4-10.5l-5.7 12c-1.2 1.2 0 2.4-1.2 3.6-2.1 3-5.4 6-9.9 7.5h-.6z" id="path20" style="fill:#008245;fill-opacity:1"/><path class="fil3" d="m-86.55 143.7-4.5-7.2c3 1.2 5.1 3.9 4.8 6.9l-.3.3z" id="path21" style="fill:#008245;fill-opacity:1"/><path class="fil3" d="m85.95 139.8-.3-1.2c.9-.9 2.1-1.5 3.3-2.7.9 1.8-2.7 1.8-3 3.9z" id="path22" style="fill:#008245;fill-opacity:1"/><path class="fil3" d="M82.65 135.6c-1.8-.9-2.4-3.3-5.1-3.3-1.8-1.5.6-3.9 0-5.4l1.8-1.2c3.3 1.5 4.5 5.7 3.9 9.3l-.6.6z" id="path23" style="fill:#008245;fill-opacity:1"/><path class="fil3" d="M85.65 135.6c-.3-2.7 1.5-5.1 3.9-6.6.3-.6 1.5-.6 1.8-1.5l-.9-.9c-.9.3-1.5.9-3 1.5l-.9-.9c0-2.4 1.5-4.8 3.9-6.6l-2.1-1.2c-.9-1.8.3-3.3-.3-5.1h-1.5c-.9 1.5 0 3.3-1.2 4.2-.6-.3-1.5-.9-2.1-1.8l4.8-6.3c3.3 7.2 5.1 16.2 3.3 23.4-1.8-.3-3 .9-5.1 1.8h-.6z" id="path24" style="fill:#008245;fill-opacity:1"/><path class="fil4" d="m127.65 129.9-1.5-.9-.3-1.8c1.2.3 2.4.6 2.7 2.4l-.9.3z" id="path25"/><path class="fil4" d="m-124.65 128.1-.9-.3c-.6-.6-.6-1.8 0-2.7.9 0 1.5-.9 2.4-.9.9.6 1.5 1.8 1.2 3-.3 0-1.8 1.2-2.7.9z" id="path26"/><path class="fil3" d="m83.85 127.8-4.5-4.5c0-1.5 1.2-3 3-4.2 3 1.2 3.6 5.1 2.4 8.4l-.9.3z" id="path27" style="fill:#008245;fill-opacity:1"/><path class="fil3" d="M-137.85 125.1c-7.8 0-15.9-2.4-23.4-6.6-2.7-3.3-8.1-5.1-8.4-10.5 8.4-4.8 18.9-3.9 28.5-1.2l8.1 9.9v.9c-1.8 0-3.3-.9-4.8-.9l-5.1-8.1c-1.2 1.8.9 3.6 1.2 5.7-.6.9-3.3 0-4.2-.9l-3.9-6.6h-1.5c-.3 1.5.9 3 1.5 5.1-.6 1.5-3.3.3-4.5-.9-1.2-1.2-1.2-3-2.1-4.5-.6 0-2.1-1.2-2.4 0-.6.9 1.8 2.1.3 3.3h-3.3l-.3 1.5c.9 0 1.8.9 3.3 1.2 0 1.5-2.4 1.5-3 3.6l.9.6c2.4-1.8 7.8-5.4 10.2-1.5-1.5 1.8-4.2 2.4-4.8 4.2l1.2.9 6.9-4.2c1.8-.3 4.2.6 5.1 1.5-.9 1.8-3.6 1.8-4.8 4.8 4.2 0 7.8-5.7 12.9-3v1.2c-.6.6-2.1.9-2.7 1.8v.9c3 .9 6.9-4.2 10.8-1.5l-.3 1.5c-3.6 1.5-7.5 1.8-11.4 1.8z" id="path28" style="fill:#008245;fill-opacity:1"/><path class="fil3" d="M144.75 123.3c-1.2-.9-2.4 0-3.9-.9-.3-1.8-2.1-1.2-2.7-3 2.7-1.2 3.9 3 7.2 2.1 0-2.1-2.4-2.1-3.6-3.9 2.7-3.3 6 2.4 9.9 1.8v-1.8c-1.5-.6-2.4-.9-3-2.4 3.3-1.8 6-.3 9.6 0v-1.8c0-.9 2.4-.6 2.7-2.1-.6-2.4-2.7 0-4.5-.3-.9-1.2.9-2.1 0-3l-1.5.3c-.3 1.2-1.2 2.7-2.4 3.9-1.5.6-3.3 1.2-5.1 1.2 0-1.2 1.2-2.4 1.8-3.9l-.6-.9c-2.4 1.8-2.7 5.7-6.9 6.6l-.9-.3c-.3-1.5 1.2-2.4 2.1-4.5l-1.2-.6-4.5 5.4c-.6-.6.9-1.8.6-3 2.7-3.9 8.4-6 14.1-6 1.8 0 2.1.6 3.3 1.2 3-1.2 6.6 0 10.2 2.1-.6 1.8-2.7 2.7-4.5 4.8-1.8 1.8-4.2 4.2-7.2 5.7l-9 3.3z" id="path29" style="fill:#008245;fill-opacity:1"/><path class="fil4" d="m-115.65 120.6-.6-.3c-.3-.9-.3-1.8 0-2.7.6-.6 1.8-.9 2.7-.9.3.9.9 1.8.9 2.7-.6 0-.9.6-2.4 1.2h-.6z" id="path30"/><path class="fil3" d="M-126.15 119.1c-10.5-6.6-18.6-19.8-19.5-33l.6-8.7c7.2.9 12.9 6.9 16.5 12.9l6 15.3-1.2.3c-1.2 1.2-.3 3.9-2.7 4.5-3.6-3.6.3-8.7 0-12.9h-.9c-1.2.9-.6 3.3-2.1 5.1l-.9-.6c-4.2-3.6 0-7.5 0-11.7h-1.8c-.9.9-.9 3-2.4 4.2-3-2.4-.6-6.6-.3-9.9l-.9-.3c-1.8 0-.9 2.4-2.7 2.7-.9-.9-.9-3.3-3.3-4.2l-.6 1.5c0 1.2 1.2 2.7 2.1 4.2-.6 2.4-3.9-.9-4.2 1.5 1.2.9 3.6.9 5.1 2.1.9.9 2.7 2.4 2.7 3.9-1.8 1.5-4.5-1.5-6 .6 3.9 1.8 9.9 1.8 10.5 7.5-2.1 0-4.2-1.2-6.3-.3l.6.9c3.3 1.2 10.5 1.5 9.3 7.2-.9.6-2.7-2.1-4.2-.6v1.2c3 .9 8.1 2.1 7.8 6.6h-1.2z" id="path31" style="fill:#008245;fill-opacity:1"/><path class="fil3" d="M-122.25 117.6c-3.3-1.8-1.2-6.3-.3-9.6 1.5 1.5 1.2 6.9.3 9.6z" id="path32" style="fill:#008245;fill-opacity:1"/><path class="fil4" d="M113.25 117c-.3 0-1.8 0-2.4-1.2l.6-.9c.6.3.9.9 1.8 2.1z" id="path33"/><path class="fil3" d="M-119.25 116.7V114c.9-1.2 3-1.8 4.8-2.7 0 2.4-2.1 3.9-4.5 5.4h-.3z" id="path34" style="fill:#008245;fill-opacity:1"/><path class="fil3" d="M120.75 116.1c-.6-2.7-2.7-8.1-.6-12l1.8-.9 2.4.9c.6 1.2 2.1 3.3.9 5.4l-4.5 6.6z" id="path35" style="fill:#008245;fill-opacity:1"/><path class="fil3" d="M-117.75 110.4c-.6-1.8.3-4.5 2.1-6.3 1.5 0 2.1-1.5 4.5-2.4v-1.5c-1.5 0-3.3 1.8-5.1 1.2 0-2.1.6-4.8 2.7-6.3 1.8-.6 3.6-1.2 4.5-2.7l-.6-1.2c-1.5 0-2.1 1.5-3.9 2.1-2.1 0 0-2.1-.9-3 .9-2.7 3.3-3.3 5.4-4.8v-1.8c-1.5-.9-1.8 2.1-3.6.9v-5.1l-.9-.3c-.9 1.2-1.5 2.7-2.1 4.5-1.8-.6-1.8-2.1-3.6-3 0-2.7 3.3-5.1 5.7-7.8h.9c7.2 10.2 4.8 22.8.9 34.2 0 .9-.9 1.8-1.5 2.4-.9 0-2.7 0-4.2.9h-.3z" id="path36" style="fill:#008245;fill-opacity:1"/><path class="fil3" d="M134.25 107.1c-.9-.3-1.8-1.5-3.6-.6 1.8-1.2 4.5-.9 5.7-3.3-1.2-1.2-3.6 2.1-4.8-.3l.9-2.1c1.2-1.8 3.9-1.8 6.3-2.7 0-2.4-2.4 0-3.6-1.5-.9-3 3-3.9 5.1-6.3-3-.9.3-4.2.9-6-2.1-1.5-2.4 1.5-3.3 2.7-1.2.9-2.1-.3-3-.3 0 2.7.3 6-1.5 9-1.8-.9-1.8-3.3-2.4-4.8h-1.5l1.5 9.3-1.5 1.5c-1.2-.6-1.5-3.3-2.4-5.1l-1.2.9c0 1.8 1.2 3.9 1.2 6.6-2.7-2.1-2.7-6.6-1.2-9.6 1.5-6.6 8.4-8.4 12.9-13.2.3-.9 1.8 0 2.7-.6 2.1 6.6.3 13.8-1.8 20.7-.9 0-.9 1.5-1.5 2.7-1.8 0-2.4 1.8-3.9 2.7v.3z" id="path37" style="fill:#008245;fill-opacity:1"/><path class="fil3" d="M-119.25 106.5c-1.5-.3-.6-1.2-1.2-2.4l1.2 2.4z" id="path38" style="fill:#008245;fill-opacity:1"/><path class="fil3" d="M112.95 103.8c-.9-.6-1.5-1.2-3-2.1.6-1.2 3.9 0 4.5 1.5l-1.5.6z" id="path39" style="fill:#008245;fill-opacity:1"/><path class="fil3" d="M118.05 103.2c0-2.1 1.8-3.3 2.7-5.7l-.3-.9c-.6 0-1.2 1.8-2.7 2.4-2.4-.9.3-3.3 0-5.7h-1.2c-1.8-1.2-1.8-4.8-.3-7.2.3-.6 1.8-.9 3.3-.3.3.9 0 2.1.3 3l1.8 1.5c.9 3 .3 6.3.3 9.6-1.2 1.2-2.4 1.8-3.9 3.3z" id="path40" style="fill:#008245;fill-opacity:1"/><path class="fil3" d="M-119.25 101.1c-3-3-7.2-8.1-4.2-13.5l2.7-5.7c2.4 1.8 5.7 6 4.2 10.2h-1.8c0-1.2-.9-1.8-2.1-2.7-1.2.9 1.2 4.2 2.7 5.4.9 1.8 0 3.6-.6 6l-.9.3z" id="path41" style="fill:#008245;fill-opacity:1"/><path class="fil3" d="M114.15 100.8c-1.8-1.5-4.5-1.5-6.6-2.4v-3.3c2.1-2.4 4.8.6 6.9 1.5.9 1.5.9 2.4.9 3.9l-1.2.3z" id="path42" style="fill:#008245;fill-opacity:1"/><path class="fil3" d="M112.35 93.9c-1.5-.6-2.7-1.8-4.8-2.7l3.9-15.3c1.8 1.5 3.3 3.9 5.7 6 0 .9-.6 1.8-1.8 2.7-2.4 0 0-3.9-3-4.2-.9 1.5.6 2.7 0 4.8l-2.4.6-.3.9c2.4 1.2 5.7 4.5 3.6 7.2h-.9z" id="path43" style="fill:#008245;fill-opacity:1"/><path class="fil4" d="M-150.75 80.1c-.6-.6-2.4-.9-1.5-2.7l1.8-.9 1.5.6c.6.3 0 1.2-.6 2.4l-1.2.6z" id="path44"/><path class="fil4" d="m154.65 80.1-1.2-.6c0-1.5 2.1-.3 2.1.3l-.9.3z" id="path45"/><path class="fil4" d="m-140.25 76.5-1.5-1.5c0-.6 1.5-.9 2.4-1.5.6 0 .6.9 1.5 1.5-.6 1.5-1.5 1.5-2.4 1.5z" id="path46"/><path class="fil3" d="M-156.75 73.8c-.9 0-1.8-.3-2.7-1.2 1.5-1.2 6.3-2.4 8.1.3-.9 1.8-3.6 0-4.8.9h-.6z" id="path47" style="fill:#008245;fill-opacity:1"/><path class="fil4" d="m135.75 73.5-.6-.6c0-.9 1.5-.6 2.1 0l-1.5.6z" id="path48"/><path class="fil3" d="m-161.85 71.999-16.8-11.1c-3.3-4.5-7.5-9.3-8.4-15.3 8.4-1.2 17.4 1.8 24 7.2 4.5 2.7 6 9 7.2 14.1-2.1-.9-3.6-2.4-3.6-5.1 0-1.8 0-4.5-1.5-5.7l-.9.3c-.6 1.8.6 3.6 0 5.4-1.5 0-3-1.5-3.9-3.3-.9-2.1.9-6-2.1-7.5-2.1.3-.6 3.6-1.2 5.4-1.8 0-3.3-.9-4.2-3 0-1.2 0-3-.9-5.1l-1.2-.3c-.3.9 0 2.4-.3 3.3-1.2.9-2.4 0-3.3-1.5h-2.1c-.9 1.2 1.5 2.4 3 3.6-.6.6-2.4 1.2-3 3l.6.6c1.8.3 3.9-.6 6.3-.6.3.6 1.8 1.5 3.3 2.1 0 2.1-3 .6-4.5 2.4l-.3.9c3 1.8 9-2.7 12 1.8-.3 3-4.8 0-6 3 2.7 2.7 8.4-2.1 12 .9l.6.9c-.9 1.8-3.9.3-4.8 3v.6z" id="path49" style="fill:#008245;fill-opacity:1"/><path class="fil3" d="M-148.35 71.7c-8.7-8.7-10.5-21.3-10.2-33.3l4.5-12.3c2.7.9 3.6 3.6 6.6 5.7 5.4 7.8 5.1 17.1 5.1 26.4-2.4.3-1.8 3.6-4.2 3.9-1.8-1.5 0-4.8.9-7.5.9-.9 2.4-1.8 1.5-3.6-1.5 0-1.5 2.4-3.9 2.4-1.8-3.6.9-6.6 3-9.9l-.6-.9c-1.8 0-1.8 2.1-3.3 2.7-1.2-.9-1.8-4.8 0-6 .6-.3.9-1.8 1.5-3 0-1.5-2.4 0-3 .9-.3-.9-.9-2.4-1.2-3.6l-1.2-.6c-2.1.6 0 3.3-.9 4.5-.6.3-2.1-1.2-3-.3.9 3.3 6 4.5 4.5 8.7-1.5 0-2.7-2.4-4.5-1.5 0 1.8 2.7 2.7 3.9 4.5 1.5.9 2.1 2.7 2.1 4.8-1.5.3-3.3-.9-5.1-1.5l-.3.9c1.8 3 8.1 4.2 7.2 9.6-1.2 0-2.4 0-4.2-.9 0 3.6 7.5 4.2 5.1 9.3l-.3.6z" id="path50" style="fill:#008245;fill-opacity:1"/><path class="fil3" d="m-142.35 71.4.6-2.1 6.6-3.3v-1.5h-2.4l-.9-.9c.6-1.8 1.5-3 3.3-3.6 2.1-.6 3.3 0 5.7-1.5l-.6-1.2c-1.2-.9-3 1.2-4.5-.3.6-.9.3-2.4 1.5-3.3 2.7-2.1 6.6-.9 8.1-3.3-1.2-1.5-3-.6-4.8-.6l.6-2.7c1.2-1.8 4.5-1.8 6.9-2.7-1.8 9.3-7.8 20.1-16.2 24.9-.9.6-1.8 1.5-3.6 2.1h-.3z" id="path51" style="fill:#008245;fill-opacity:1"/><path class="fil3" d="M-145.05 69.3c-2.1-2.1 0-4.8 1.5-6.6 1.2 1.5-.9 4.5-1.5 6.6z" id="path52" style="fill:#008245;fill-opacity:1"/><path class="fil3" d="M164.55 69.3c0-.9-1.8-.9-2.1-2.1 2.1-.3 3.9.3 6 0l-.3-1.2c-.9-.6-3.3 0-3.6-2.4 3.3-2.4 6.6 0 10.2-.6 0-1.8-4.2-1.2-4.5-3 1.8-1.8 5.4-2.1 8.1-2.1 1.8-1.8-1.8-1.5-.6-3.3.9-.6 2.4-.9 3-2.4-1.5-.6-3.3 1.8-5.1.9l.6-2.7c2.4-.6 5.1-1.5 7.8-.6-1.2.6 0 1.8-.9 3.3-.9.3-1.2.6-1.8 1.8v1.5c-1.2.9-2.1 3.9-3.9 4.8-.9.6 0 1.8-.9 3-3.6 2.4-6.9 5.1-12 5.1z" id="path53" style="fill:#008245;fill-opacity:1"/><path class="fil3" d="M162.75 62.7c-.9-2.1.6-4.2-.9-6.3 2.7-3.6 6.9-3.6 11.1-5.4 1.2 2.1 0 4.5-1.8 6.9-.6 0-.9.9-2.4.6-.9-.6 0-2.4-.3-4.5h-1.2c-1.2 2.4-.3 6.9-4.2 8.1l-.3.6z" id="path54" style="fill:#008245;fill-opacity:1"/><path class="fil3" d="M-139.95 62.1c0-1.5-.3-3.9.6-5.7.6 2.1.6 3.9-.6 5.4v.3z" id="path55" style="fill:#008245;fill-opacity:1"/><path class="fil3" d="M130.95 61.8c-2.4-2.7-6.6-3.6-6.6-8.7l8.1 1.5c.3.9 1.2 1.5.9 3.3-1.8.6-3.6-.9-5.4 0 .9 2.1 4.5 1.5 6.3 2.7-.6-.3-1.8.3-3.3 1.2z" id="path56" style="fill:#008245;fill-opacity:1"/><path class="fil3" d="M137.85 57.9c-1.2-1.5.3-3 .3-4.8-1.8-.3-1.5 1.8-3 2.4l-.9-.6c-1.5-2.1.6-5.1 0-7.5-.6-1.2-.6.6-1.2.9l-2.1.6c-1.2-2.1-2.4-3.9-2.1-6.9l-1.2-.3c-.6 0-1.2-1.8-1.8-2.7h-1.5c0 1.5.9 2.7 1.8 4.2 0 1.2-1.8 1.2-2.7 1.5l6.3 6.6c-2.1.3-3.9-.6-6.3-.3l-.6-15.6c6.6 3.9 12.9 8.1 16.8 15.6 0 1.8-.6 3.6-.6 5.4l-1.2 1.5z" id="path57" style="fill:#008245;fill-opacity:1"/><path class="fil3" d="m150.15 57.9-.9-.6c.9-.9 3.3-3.6 6-3.6-.9.3-1.2 1.8-2.4 3.3-.9.3-1.8-.6-2.7.9z" id="path58" style="fill:#008245;fill-opacity:1"/><path class="fil3" d="M145.95 57c-2.4-1.5-4.8-6.3-4.2-9.9l8.4-15.6c.9-1.2 1.8-.3 3.6-.9l3.6 12.6c0 2.4-1.8 4.8-.6 7.8l-6.6 2.7v-2.4c0-2.4 5.1-2.4 5.4-5.4-.9-.3-2.1 1.5-3.9 1.2-1.5-.9 0-2.4.3-4.5.6-.6 2.1-.9 2.7-2.7l-.6-.6-.6.3c-1.8-1.2 0-4.2-.6-6l-.9-.6c-.9 1.5-.9 3.3-1.8 4.8l-2.7-.3c-.3 2.7 4.2 6 1.2 8.7-1.8.6-1.5-1.5-3.9-2.7l-.3 1.5c.9 1.8 2.4 3 3.3 5.4.6.6 0 1.8-.6 2.7-1.8-.3-1.8-2.1-3.3-3.3h-1.5c-.9 2.4 4.5 3.6 3.6 7.2z" id="path59" style="fill:#008245;fill-opacity:1"/><path class="fil3" d="M-135.75 56.1c-3-2.1-3.6-7.2-3.6-10.2 3.9-6.3 9.3-12.9 17.4-14.4.9 3.3.9 6.9.3 11.1-1.5 0-3 0-4.5-.9.6-1.2 1.5-2.1 1.5-3.6l-.9-.6c-.9.9-1.5 1.8-2.4 3-1.5 0-1.2-2.7-3-2.7-1.2 2.4 3 8.1-1.8 10.2-.3-.9-.3-2.7-1.8-4.5l-1.2 1.5c.6 2.1.6 3.9 1.5 6.3 0 1.8-2.1 2.4-1.5 4.8z" id="path60" style="fill:#008245;fill-opacity:1"/><path class="fil4" d="m-159.45 27-.9-.3c-.6-.6-.6-1.2 0-2.4.9-.9 2.4 0 2.7 1.2 0 .9-1.2 1.2-1.8 1.5z" id="path61"/><path class="fil4" d="M-149.55 26.7c-.6 0-1.2-1.2-.6-2.1.6 0 1.5-1.2 2.7-.3v2.1l-2.1.3z" id="path62"/><path class="fil3" id="polygon62" style="fill:#008245;fill-opacity:1" d="m143.55 25.5 2.4-.9z"/><path class="fil4" d="m163.35 25.5-1.2-.9c.6-.3 1.8 0 2.7-.3 1.2.6-.9 1.2-1.5 1.2z" id="path63"/><path class="fil3" d="m-159.45 21.6-15.6-8.7c-4.8-3.6-7.2-9.6-11.1-14.4-1.5-3.9-2.7-7.2-1.8-11.7 8.1-.6 16.5 5.4 21.9 11.1.3.3 1.2 1.5 1.8 2.4l-1.5.9c-.9 1.2-.3 3.6-.9 5.1l-.3.6c-2.1-.6-3-3.3-3-4.5.3-2.4.6-4.8-.3-7.5h-1.5c-1.5 1.8 0 3.6-.9 5.4l-2.1-.6c-2.4-3 .6-7.2-2.7-9.3-1.5 0 0 3-2.1 3.9 0-1.2-1.8-1.2-2.4-2.1l-.9.3c-.6 1.8.9 1.8 1.8 3.3-.3 1.2-1.8.9-3 1.8v.9c3 1.2 7.2 0 9 3.9-.6 1.5-3.6 0-5.4.9v1.2c2.7 1.2 9-.6 11.4 4.2-.9 1.8-4.2-.6-5.7 1.8.9 2.1 5.4.3 8.1.9.9.9 2.4 1.2 3 3-1.2 1.5-3.3-.6-5.1 1.8 1.2 2.4 4.8.6 7.5 1.5.9.6 1.8 1.2 3.3 3l-1.5.9z" id="path64" style="fill:#008245;fill-opacity:1"/><path class="fil3" d="M-149.55 21c0-.3.6-1.5 1.2-2.4 1.8-.9 3.6-.6 5.7-.9l.3-1.5c-.6-.3-2.1-.3-2.4-2.1.3-.6 1.5-.9 1.8-2.4 2.7-.9 6.3.9 8.7-.9l-.3-.6c-1.2-1.5-3-.6-4.8-.9-.6-2.1 1.8-3.3 3.9-4.5h5.1l.6-1.2c-.3-1.8-3.3 0-4.2-1.2l1.2-2.4c2.4-1.8 5.4.6 7.8-1.8 0-2.4-3-.3-3.9-2.4.9-1.2 2.4-2.4 3.3-4.5l-.9-.9c-.9 0-2.1 1.5-3 2.4l-.9-1.5h-2.4c-.3 2.7.6 6.3-2.4 8.4-1.8-.9.3-4.5-1.8-4.8l-4.2 11.1c0-2.4-3.6-7.5-.6-10.5l9.6-6.6 10.2-2.7c.6 9-5.4 20.7-12.9 26.7-3.6 3.3-8.1 6.6-13.8 8.1h-.9z" id="path65" style="fill:#008245;fill-opacity:1"/><path class="fil3" d="m151.95 19.8-7.2-9c.6-2.1 1.2-3.6 1.5-5.7 3 .3 5.7 2.7 7.5 5.4l-1.8 9.3z" id="path66" style="fill:#008245;fill-opacity:1"/><path class="fil3" d="m156.45 19.8-.3-9.6c.6-1.5 3-4.5 6-4.2 3.3 5.7-.3 10.5-5.4 13.8h-.3z" id="path67" style="fill:#008245;fill-opacity:1"/><path class="fil3" d="M-153.15 19.2c0-1.5-.6-3.9 1.8-5.4 0-.3 1.2-.6 2.4-1.2l-4.2 6.6z" id="path68" style="fill:#008245;fill-opacity:1"/><path class="fil3" d="M-155.85 18.9c-1.2-1.8-2.7-4.8-3-7.5 2.1 1.2 3.9 4.5 3.3 7.2l-.3.3z" id="path69" style="fill:#008245;fill-opacity:1"/><path class="fil3" d="M172.65 13.5c-.6 0-1.5-.3-2.4-.9h3.3l-.9.9z" id="path70" style="fill:#008245;fill-opacity:1"/><path class="fil3" d="M-162.15 12.9c-1.5-1.5-2.7-5.1-1.2-6.9 0 1.8 1.5 4.2 1.2 6.3v.6z" id="path71" style="fill:#008245;fill-opacity:1"/><path class="fil3" d="M136.35 12.9c-3.3-.3-5.7-1.8-7.8-5.1-2.4-5.1-4.2-12-5.1-18.3l7.5 3.3-.3 2.1h-2.1c-.3-.9-.9-1.5-2.1-2.1-1.2 1.8 2.4 3.9.9 6 1.5.9 5.4 1.2 6.3 4.5 0 1.5-3 0-3 2.1 1.8.6 4.2-.3 6 .9.6.9 1.2 1.8 1.5 2.4 0 1.8-1.8.6-3.3 1.8 0 1.8 3 0 3 2.1l-1.5.3z" id="path72" style="fill:#008245;fill-opacity:1"/><path class="fil3" d="m175.35 12.3-.3-1.2c-.9-1.5-3.3 0-4.5-1.5.6-1.8 2.4-2.7 4.5-2.7 1.2 0 3.3.3 4.2-.9v-.9c-.9-.6-1.8 0-3-.3V2.7c2.1-.9 3-2.1 5.7-2.7l-.6-1.5c0-1.8 1.8-3 2.7-4.5-1.8-1.2-2.4 1.5-3.9 1.8l-.9-1.8h-.9c-1.5 2.7 0 6.3-3.3 8.4h-1.2c.3-1.5-.3-2.1-.9-3.6l-.3-.3c-2.1 2.1.3 7.2-3.9 9.3-.6-1.8.6-3.9-.9-5.1l-.9.6c-1.5 1.2.6 3.9-1.5 4.8-.9-2.4 0-5.4.9-7.5 5.4-5.4 12.9-9.3 20.4-11.1l-2.4 9.3c-2.4 5.1-3 11.7-9 13.5z" id="path73" style="fill:#008245;fill-opacity:1"/><path class="fil3" d="M-152.85 11.4c-.3-.9-.3-2.7.6-4.2l4.8-4.8-.9-1.2c-1.8 0-2.1 2.7-4.5 2.4-.9-2.4 0-5.4 2.7-6.9.6-1.2 3-2.1 2.7-4.2-.9-.3-2.1 0-3 .6l-.9 1.5c-1.8 0-1.5-2.4-1.8-4.2.9-2.4 3.3-3.3 4.8-5.7-.3-.9-2.4-.6-3 .3-2.7 0 0-3.6-2.4-5.1l-.6.3c-1.2 1.2-1.2 3-1.2 4.8-.9 0-1.5-1.2-3-.9l3 9.9c-1.2 0-1.5-1.2-3.3-1.8l-1.5.3c1.8 3 6.3 5.7 4.8 10.8-1.5 0-2.4-2.4-4.8-3.3l-.9.6c1.8 3.9 6.9 5.1 5.7 10.2-1.5 0-2.4-2.7-4.8-2.7-2.7-10.2-2.1-22.8 4.5-32.4.3-1.2 1.5-1.5 2.7-2.1 8.4 8.7 7.5 21.9 6.6 32.7-.6.9-.9 2.4-1.8 3-1.8 0-2.4 1.5-4.5 2.1z" id="path74" style="fill:#008245;fill-opacity:1"/><path class="fil3" d="M-145.05 10.8c-.6-.3.9-3.6.3-.3l-.3.3z" id="path75" style="fill:#008245;fill-opacity:1"/><path class="fil3" d="M142.35 8.1V3.3c1.2.3 1.5 2.7.6 4.5l-.6.3z" id="path76" style="fill:#008245;fill-opacity:1"/><path class="fil3" d="m139.65 6.3-1.5-.6c-1.8-2.4 1.5-6.3-1.5-8.1-.3.6-.9 2.4-.9 3.6-2.7 0-4.2-4.2-3-6.9h1.5c2.1 2.4 4.8 2.7 6.9 5.4l.9 1.2c-1.5 1.5-.9 3.9-2.4 5.4z" id="path77" style="fill:#008245;fill-opacity:1"/><path class="fil3" d="M151.05 5.1c-.9-1.2-1.8-1.8-3.3-2.7-3-8.4 1.8-17.4 6.9-25.2 4.2 4.2 5.1 9.6 7.2 15-1.2.6-3 3.6-5.7 3 0-1.8-.9-3.3.6-5.7.6 0 2.1-.6 1.5-2.1l-1.8-.3c-.3-.6 0-2.1-.3-3l-1.2-.9c-1.2.6-.6 2.1-.9 3.3l-2.1.6c.6 2.4 2.7 4.2 2.1 7.5-2.1 1.2-1.5-1.8-3.9-1.2 0 1.5 1.5 3.3 3.3 4.5.9.3.3 1.8.6 3l-.6.9c-1.8 0-1.8-2.1-4.2-2.4l-.6.3c0 2.1 2.4 2.7 3.3 4.2l-.9 1.2z" id="path78" style="fill:#008245;fill-opacity:1"/><path class="fil3" d="M158.25 4.5c.6 0 .9-2.1 2.1-1.2 0 .6-1.2 1.2-2.1 1.2z" id="path79" style="fill:#008245;fill-opacity:1"/><path class="fil3" d="M156.15 2.699v-3.3c1.2-1.5 2.1-3.6 4.8-4.5 2.1.9.9 3.9.6 5.7-1.8-.9-2.7 1.8-5.1 2.1h-.3z" id="path80" style="fill:#008245;fill-opacity:1"/><path class="fil4" d="m-148.65-25.5-.9-.6.6-1.2h1.5c.9.3 0 1.5-.6 1.8h-.6z" id="path81"/><path class="fil4" id="polygon81" d="M-160.35-25.8v-1.5l1.8-.6v1.8z"/><path class="fil3" d="m138.75-27-.6-.9c0-.6 2.1-1.8 2.4-.6l-1.8 1.5z" id="path82" style="fill:#008245;fill-opacity:1"/><path class="fil3" d="m169.65-27-.9-.3c0-.9 1.5-1.8 1.8-1.2l-.9 1.5z" id="path83" style="fill:#008245;fill-opacity:1"/><path class="fil3" d="m164.85-27.3-1.5-.6c0-.9 1.2-.3 2.1-.6l-.6 1.2z" id="path84" style="fill:#008245;fill-opacity:1"/><path class="fil3" id="polygon84" style="fill:#008245;fill-opacity:1" d="m143.55-27.9 2.4-.6z"/><path class="fil3" d="M-149.55-31.5c1.2-3.6 6.3-1.2 8.4-3.6 0-.9-1.8-1.8-3-1.8l-.3-.9c.3-1.8 2.1-2.7 4.2-2.7 1.5-.6 3.9.9 5.4-.6l.3-.6-.3-.9c-.9-.9-2.7 0-4.5-.3 0-1.5 1.5-2.4 2.4-3.9 2.1-.9 4.8-.3 7.5-.6l.3-1.2c-.6-2.1-3.6 0-4.8-2.1 1.8-3.6 6.6-2.4 9-3.9-.6-1.2-1.5-.9-3-1.8 0-1.8 1.5-1.8 1.8-3.9l-.9-1.2c-.9 0-.9 1.2-2.4 1.5-.9 0-.3-1.5-1.8-1.8l-1.5.3c-.3 2.4.6 6.3-2.4 9-1.8-.9.3-4.8-2.4-5.7-2.7 3 0 7.5-1.8 10.8 0 .3-1.5 1.5-2.7.6v-3.3l-1.5-2.1c1.2-6 8.7-9.3 14.4-13.2 2.1 0 4.5-1.8 7.2-1.5 1.2 8.1-4.2 18.3-9.3 24.9-4.5 3.9-9.9 9.6-17.4 10.5h-.9z" id="path85" style="fill:#008245;fill-opacity:1"/><path class="fil3" d="M-161.25-31.5c-12-4.2-19.2-13.5-24.9-24.9-.9-3.6-2.1-6.6-1.8-10.2 8.4-.6 15.6 5.4 21.3 11.1.6.6 2.4 1.8 2.1 3l-1.2.3c-.9 1.5-.3 4.2-.9 6.3l-.3.6c-3.3-2.4-3.3-7.2-2.7-10.5-.3-.6-.6-2.4-1.8-2.4-2.4.3-.9 3.3-1.2 5.1l-1.5.6c-2.1-2.1-1.5-5.4-2.1-8.1l-1.5-1.2c-.3.3-1.2 1.5-1.8 2.7-.9-.9-1.5-1.8-3.3-2.4l-.6.9c.3 1.5 1.2 1.8 2.1 3.3 0 1.5-2.1.9-2.7 2.1 1.5 2.7 7.2 0 8.4 4.5-.6 1.5-3.3 0-3.9 1.5l-.3 1.2c2.7 1.2 8.4 0 10.5 3.9-.3 1.5-3 0-3.9 1.5l-.6.9c1.5 2.4 4.8.6 7.2 1.5.9.6 2.4.9 3 3 0 .9-2.4.3-2.4 2.4 1.5 1.5 4.8 0 6.6 2.1.9 1.2-1.8 1.2-1.8 1.2z" id="path86" style="fill:#008245;fill-opacity:1"/><path class="fil5" d="M157.35-32.7c-.9-1.5 0-3-.6-4.5.9-2.1 3.3-.9 5.4-1.5-.3 2.7-2.4 3.9-4.5 6h-.3z" id="path87"/><path class="fil5" d="M152.85-33.6c-1.8-.6-2.7-1.2-3.6-3.3.9-1.2 2.7-.9 4.5-1.2l.9 1.2c0 .6.3 2.4-.6 3l-1.2.3z" id="path88"/><path class="fil3" d="M-155.55-33.9c-1.2-1.8-3-4.2-3.3-6.6 1.8.3 2.7 1.8 3.6 3.6l-.3 3z" id="path89" style="fill:#008245;fill-opacity:1"/><path class="fil3" d="M-152.25-34.2v-3.6c0-.9 1.5-1.5 2.7-2.1.6 2.1-1.8 3.6-2.1 5.4l-.6.3z" id="path90" style="fill:#008245;fill-opacity:1"/><path class="fil3" d="M173.85-38.7c-.9-.6-2.7-.3-4.2-.9 1.5-.9 4.5.3 6-.9 0-2.1-3.6 0-4.5-2.1 0-1.8 2.4-1.8 3-4.2-1.5-3 0-5.7-1.2-9.6 1.8 0 1.8-1.8 3.3-2.4l1.2.6c.9 2.7 0 6.6-2.4 8.4l.3 1.5c.9-.9 2.1-.9 3-2.4.9-2.4 4.8 0 5.4-2.7l-.9-2.1c.3-.9.9-1.8 1.5-2.7l-.9-.9c-1.2.9-1.5 1.8-3.3 2.7 0-.9-.9-2.4-.9-3.6 1.8-.9 4.8-1.5 7.5-1.8l-1.2 7.5-7.2 13.8c-1.8.3-2.4 1.2-4.5 1.8z" id="path91" style="fill:#008245;fill-opacity:1"/><path class="fil3" d="M136.65-39.9c-.9-.6-1.8-.6-3.3-1.5-.6-.3-.9-2.1-2.7-2.1-3.3-6.3-5.7-11.7-5.7-18.3 6.6 1.5 15.3 4.5 19.5 11.7-.9 1.5 1.8 4.2-.6 5.1-.3-1.8.6-3.6-.3-5.1-2.7 0 0 3-1.8 4.8h-.9c-.6 0-1.8-.6-2.1-2.1-.6-2.4.3-5.1-.6-6.9l-.9.6c-.9.6 0 3-1.5 3-3-.9-.9-6.6-3.3-7.5l-1.8.9c-1.8 0-1.8-3.3-3.6-1.8 0 1.8 1.2 1.8 1.8 3.9l-1.8.9c1.2 2.7 6.6.6 7.8 5.1-.6 1.5-1.8 0-3.3 1.2l-.6.9c2.7.3 5.7 0 7.8 2.7l.3.3c-.9 1.5-3.3 0-4.2 1.5l.3 1.2c1.5 1.2 3.6-.3 5.7.9-1.2 0-2.7 0-4.2.6z" id="path92" style="fill:#008245;fill-opacity:1"/><path class="fil3" d="M-163.05-40.5c-.3-1.5-1.8-3.9-.3-4.8-.3 1.2 1.2 2.7.3 4.8z" id="path93" style="fill:#008245;fill-opacity:1"/><path class="fil1" d="M146.25-40.5c-1.8-2.1 1.2-3.9.6-6.3 2.4-.6 3.3 2.4 6 2.7l.9 2.7c-2.1.3-4.8 0-7.5.9z" id="path94"/><path class="fil3" d="M-145.65-41.1c.9-.9 0-1.8.9-3.3.6.9.3 2.4-.9 3.3z" id="path95" style="fill:#008245;fill-opacity:1"/><path class="fil1" d="M157.35-41.4c-.6-.6 0-1.2.3-2.7 1.5-.3 3.9-.9 4.5-3 .9.6.9 3 1.2 4.5-.9 1.5-3.6.9-6 1.2z" id="path96"/><path class="fil3" d="M-155.55-41.7c-1.5-.9-2.1-2.7-4.8-3.3-3-8.1-1.5-18.6.9-27.6l3.9-6.6h2.7c7.8 10.5 7.8 23.7 4.8 35.1-.9 1.2-2.7 1.2-3.6 2.1l-1.2-.6c-.3-4.5 4.2-5.7 5.7-9l-.3-.9h-.9c-1.8 0-1.8 1.8-3.9 2.7-2.7-4.8 2.4-7.5 4.8-11.1l-1.2-.6c-1.8-.3-1.5 1.2-3 1.8l-1.2-.6c-.9-3.3 2.7-4.8 4.5-7.8l-.3-.6c-1.5-.9-1.8.6-3 .9-1.5-.6-.6-3-1.5-3.9l-1.2-.6c-1.2.6-.6 3-.9 4.5-1.5 1.5-1.8-1.5-3.6-.6l-.6 1.2c1.8 1.8 4.5 3.6 4.2 6.9-1.5 1.5-2.4-2.4-4.2-.9l-.9.6 5.1 6v4.5l-.9.3c-.6-.9-1.8-2.7-4.2-3.3l-.9.6 5.7 10.8z" id="path97" style="fill:#008245;fill-opacity:1"/><path class="fil3" d="M168.75-44.1c-.9-.9.6-2.7-.9-3.9h-1.8l3.3-5.7 1.8-.6c.9 2.1 0 4.5.6 7.2-.6 1.2-1.5 1.8-2.4 3h-.6z" id="path98" style="fill:#008245;fill-opacity:1"/><path class="fil3" d="M151.95-47.1c-2.7-.9-2.7-3.6-4.5-6l3.6-15.3c.6-1.2 2.4-1.8 2.7-3.9.9-.3 1.8-1.8 3.6-.9 3 7.8 9 18.3 2.4 25.8l-.6-.3c0-.6.6-2.1 1.2-3-1.2-.9-1.2.9-3 .9l-.9-.3c-.9-3.6 3.3-5.1 4.5-8.1-.9-2.4-2.1 2.7-4.5.9-1.2-2.4.9-5.1 2.7-7.8l-2.4-.9c-.6-1.2.6-2.7-1.2-4.8-1.2 0-1.2 2.4-1.2 3.9 0 .9-2.4.6-2.4 2.4 1.8 1.5 3.6 5.7 1.8 8.1-1.8-.9-1.2-1.8-2.7-2.4l-1.5.6c.6 3 6 3.9 4.5 8.4-1.5 0-2.1-1.8-3.9-2.7l-1.2 1.5c.6 1.2 2.1 1.8 3 3.6v.3z" id="path99" style="fill:#008245;fill-opacity:1"/><path class="fil4" d="M-160.95-78.3c-.9 0-.9-1.8-.9-2.7.6-.9 3.3-.3 3.3.9 0 .9-.9.9-2.4 1.8z" id="path100"/><path class="fil4" d="M-148.95-78.9c-.9-.3-1.8-.3-1.5-2.1.6-.3 1.8-.9 3-.6l.3 1.5c0 .9-.9.9-1.5 1.2h-.3z" id="path101"/><path class="fil3" d="M139.05-79.8c-1.2 0 0-2.1 1.5-1.2l-1.5 1.2z" id="path102" style="fill:#008245;fill-opacity:1"/><path class="fil3" id="polygon102" style="fill:#008245;fill-opacity:1" d="m169.35-79.8.9-.3z"/><path class="fil3" d="M143.55-80.1c0-.9.9-1.5 1.8-.9l-1.8.9z" id="path103" style="fill:#008245;fill-opacity:1"/><path class="fil3" d="M-160.95-84.6c-12.3-4.5-20.4-13.2-26.7-26.7 0-2.7-1.2-5.1-.9-8.1 7.5-.9 16.2 6.3 21.9 10.8 0 1.5 2.7 2.1 2.4 3.9l-1.5.6c-1.8 1.2 0 4.8-1.2 6.6-5.4-2.7-2.7-8.7-4.5-13.2l-1.8.3c.6 1.5-.9 3.3 0 4.8l-.9.6c-3.6-1.5-1.2-7.2-3.6-10.5l-1.2.6c-.9.6.3 2.7-.9 3 0-1.2-2.4-1.2-2.7-2.1l-.9.3c-1.2 1.8 2.4 2.4.9 4.5l-2.1.9c1.8 2.7 7.5.3 9.3 5.1-.9 1.5-2.7 0-4.2 1.5v.9c3.3.9 9.6 0 10.8 4.8-.9 1.5-4.5-.3-6 1.2l.6 1.5 10.2 2.1c.3 1.5-2.1 1.2-1.8 2.4 1.8 1.5 5.4.6 7.2 3.9l-2.4.3z" id="path104" style="fill:#008245;fill-opacity:1"/><path class="fil3" d="M-149.55-84.6c.6-2.4 3.9-3 6.3-2.7-1.2 1.8-4.2 2.4-6.3 2.7z" id="path105" style="fill:#008245;fill-opacity:1"/><path class="fil3" d="m152.85-86.4-6.6-7.2c.9-2.1 3.9-4.8 7.2-2.7.3 3 .9 6.3 0 9.9h-.6z" id="path106" style="fill:#008245;fill-opacity:1"/><path class="fil3" d="m158.25-86.4.9-11.1c1.5 0 2.4-.9 3.6-1.8.3 1.5 1.8 4.2 1.8 6.6l-6.3 6.3z" id="path107" style="fill:#008245;fill-opacity:1"/><path class="fil3" d="M-155.55-86.4c-1.5-1.8-3-4.2-3.9-7.8l.6-.3c2.4 1.5 3.6 4.5 3.6 7.5l-.3.6z" id="path108" style="fill:#008245;fill-opacity:1"/><path class="fil3" d="M-152.25-87c-2.1-1.8.9-5.1 2.4-5.7l-2.4 5.7z" id="path109" style="fill:#008245;fill-opacity:1"/><path class="fil3" d="M-142.05-87.9c0-1.2-1.5-1.5-3-2.1 0-1.8 1.5-2.1 2.7-3 2.1 0 4.5 0 6.9.9-2.1.3-3.3 3.9-6.6 4.2z" id="path110" style="fill:#008245;fill-opacity:1"/><path class="fil3" d="M174.15-92.1c-1.5 0 1.2-2.4 1.5-1.2v-1.8c-.6-.6-1.8 0-2.7-.3l-.9-.9.6-1.2c2.1-1.5 5.7 1.2 6.6-2.4 0-.3-.9-.6-2.4-1.2v-1.2c1.5-2.4 4.5-1.8 6.9-3.3 1.8-.9-.3-.9-.9-1.8-.6-.9.3-1.5.6-3 .9 0 2.1-.9.6-1.8-1.2 0-1.8.9-3 1.8-.9 0-.3-1.5-2.4-.9-1.8 2.1 0 6.6-3.6 8.1-2.1-.6.6-4.2-2.1-5.1-2.7 1.8.9 7.5-2.7 10.5-1.8-.6 0-3.3-1.8-5.1-1.2-.9-1.5.6-2.1 1.8-.3-1.5 1.5-2.7 1.5-5.1l12.3-7.5c1.5-2.1 4.8-1.2 7.8-2.7-.9 7.2-3.9 16.2-9.6 22.8-.6.9-2.4 0-3.6 1.5h-.6z" id="path111" style="fill:#008245;fill-opacity:1"/><path class="fil3" d="M-162.15-92.1c-2.7-2.1-1.2-5.7-1.8-8.7.3 2.4 1.8 5.7 1.8 8.7z" id="path112" style="fill:#008245;fill-opacity:1"/><path class="fil3" d="m-145.95-92.7 1.5-8.1c.3 2.4.9 5.7-1.2 7.8l-.3.3z" id="path113" style="fill:#008245;fill-opacity:1"/><path class="fil3" d="m-134.55-93.3-.9-1.8c-1.2-.6-2.1 0-3.9-.3-.6-1.5.9-3 2.4-3.9 2.4-.9 4.8 0 7.5-.6v1.5c-1.8.9-2.7 3.6-5.1 5.1z" id="path114" style="fill:#008245;fill-opacity:1"/><path class="fil3" d="M-152.25-94.2c-1.5-.6-.9-3.3 0-5.1l4.2-4.5-.6-1.2c-1.8 0-2.1 1.8-4.2 2.4-.3-1.5 0-3-.3-5.4.9-2.4 5.7-2.7 4.8-6.3-1.2 0-2.1.6-3.3 1.2l-1.5-.6c0-.9 0-2.1.9-3.3 1.5-.6 2.4-2.4 3.9-4.2l-.6-.9c-1.5-.6-1.8.9-3.3 1.2-1.5-.3-.6-1.8-.9-3.3l-.9-.6-1.2.3c-.6.9 0 2.1-.3 3.3-1.2 1.2-2.1-1.5-3.9-1.5l5.4-10.2c8.1 7.2 7.5 20.7 7.5 30.3-1.5 1.5-.6 3.3-1.5 5.1-1.8.6-2.4 2.1-4.2 3v.3z" id="path115" style="fill:#008245;fill-opacity:1"/><path class="fil3" d="M-155.55-94.5c-.9-.3-1.5-.6-2.4-1.8h-2.4c-2.7-7.2-1.8-15.9 0-23.7l.9-.3c2.7 1.8 4.5 4.5 3.9 8.1-2.1 0-2.4-2.1-4.8-3.3l-.9 1.2c2.7 3 7.2 6 5.7 11.4-1.5 0-2.1-1.8-3.9-2.7l-.9.6c0 2.4 3.6 3.3 4.5 5.7.6 1.5 0 3.3.3 4.8z" id="path116" style="fill:#008245;fill-opacity:1"/><path class="fil3" d="M133.05-94.8c-4.8-5.1-7.8-14.1-8.1-21.9l16.8 8.4c0 2.7-.3 5.4 0 8.4l-.9-.3c-1.8-2.4-.6-5.4-1.2-8.1l-1.5-.6c-1.5.6 0 3.3-1.5 4.2l-1.2-.9c-1.5-.9-1.2-3.9-1.5-6.6l-2.4.9h-.9c-1.2-.9-1.8-3.3-3.6-3.6v2.7c.6.9 1.8.9 2.7 3.3 0 .3-1.2.6-2.1 1.5v.9c1.8.9 3.9 0 6 1.5l1.5 1.2.3 1.5c-1.2.9-2.1.9-3.9.9l-.6.9.6.6c2.4 1.5 5.7-.3 8.1 2.4v1.8c-1.5 0-4.2-.3-6.3.9h-.3z" id="path117" style="fill:#008245;fill-opacity:1"/><path class="fil3" d="M-141.15-99.3c-.9-1.5 0-3.3-.9-4.8l-2.1-1.5c3.9-6.6 12.9-12.9 22.2-13.8.9 3-1.2 6.3-1.8 9.9-.3 1.2-2.4 0-3.6 0 0-1.2 1.2-2.7 2.4-4.5l-1.2-.9c-.9 0-1.2.9-3 1.8l-.9-1.8h-2.1c-.9 2.7.3 5.7-1.8 8.4l-1.5-.6c0-1.2.3-2.1-.9-3.6h-1.5c-1.5 3.3.3 6.6-1.5 9.9 0 .3-.9.6-1.8 1.5z" id="path118" style="fill:#008245;fill-opacity:1"/><path class="fil3" d="M151.95-100.5c-.9-.6-1.8-1.2-2.7-2.7-2.1-8.7 1.8-17.7 6-25.5h1.2c3.9 6 5.4 12.3 6.9 19.2 0 3-.9 6.9-3.6 9v-.9c.9-.9 1.8-1.8 2.4-3.3l-1.2-.3c-.9.3-1.8.9-2.1 2.1h-1.5v-2.1l4.2-5.7c-.6-1.5-2.4.3-3.9.3-1.2 0 0-1.5-.9-2.7-.6-1.8 2.4-2.7 2.1-5.4h-1.2c-2.1-1.5.6-5.7-2.1-6.6-1.5 1.5 0 5.7-2.7 6.6 1.5 2.7 1.8 5.4 1.8 8.1-.9 0-1.8-.3-3-.9l-.6.9c.9 2.1 3.6 3.3 3.6 6.6-2.1.9-2.7-2.7-4.5-1.8-.6.9 0 2.1.9 3 .6.3.9.9 1.5 1.8l-.6.3z" id="path119" style="fill:#008245;fill-opacity:1"/><path class="fil3" d="M-128.55-100.8c-.6-2.4-3.6 0-5.4-2.1.9-.9 1.8-2.7 3.6-3.6 1.2.3 3.9-.6 4.8.9-.9 1.5-1.5 3.3-2.4 4.5l-.6.3z" id="path120" style="fill:#008245;fill-opacity:1"/><path class="fil5" d="M188.55-104.7c.3-3.3 0-8.4 1.2-12h1.8l-3 12z" id="path121"/></g><g id="g138"><path class="fil5" d="M122.55-27v-8.7l21-2.1c1.8 1.8 3.6 3.9 5.7 6.6-2.4 3.3-10.5-3.3-12.9 3l-13.8 1.2z" id="path122"/><path class="fil5" d="M174.15-27.3c-1.2-1.2-3-4.2-6-4.2-2.1.3-4.8 1.8-7.2 1.8 0-3 3-4.8 5.1-7.2 5.1.6 12.3 0 16.5-4.5l27-1.2-11.1 14.4-24.3.9z" id="path123"/><path class="fil5" d="M-140.25-28.2c-1.5-.3-2.4 0-3.9-.3l11.4-9.3c3.6-1.5 6.6 0 10.8 0 .6 3 0 5.7.3 9l-18.6.6z" id="path124"/><path class="fil5" d="M-191.55-28.5c-2.4-.6-4.5 0-6.6-2.1l-11.7-14.7 29.4 2.7 12.9 11.1c1.5.3 3 .9 3.9 2.4l-27.9.6z" id="path125"/><path class="fil1" d="M122.55-39v-15.6l6.3 13.2c.6.3 1.8.3 1.8 1.8-2.4.6-5.4.6-8.1.6z" id="path126"/><path class="fil1" d="m-127.05-41.1-.3-.3 5.4-11.1.3 10.8c-.6 1.5-3 0-4.8.6h-.6z" id="path127"/><path class="fil1" d="M144.45-54.3c-2.7-3-5.7-4.8-9.6-6.9l.6-1.2 10.8-3c.6 3.6-.9 7.2-1.8 11.1z" id="path128"/><path class="fil1" d="M-143.25-58.2c-1.5-2.4-.3-4.5-.9-7.2 1.8 0 4.8 0 6.3 2.4-1.5 2.1-3.3 2.4-5.1 4.2l-.3.6z" id="path129"/><path class="fil5" d="M127.95-63.6c-1.5 0-3-1.5-5.1-2.4l-.3-16.5c5.7-4.8 13.8-8.1 21-7.8l5.4 6.3c-2.7 2.1-7.2-1.5-10.8.9 0 .3-.3 1.2-1.5 2.1l1.2 2.1c3.9 4.5 11.1-2.4 15.9 1.5l-3.6 6.6-22.2 7.2z" id="path130"/><path class="fil5" d="m-133.95-66-12.3-3.9c-1.2-1.5-1.2-4.5-1.2-6.6l1.8-.9c.9-1.8 0-3.6.6-5.4l12-7.5 11.1 4.8.3 15.3-12.3 4.2z" id="path131"/><path class="fil5" d="M160.35-72.6c-1.2-.9-.6-3-2.1-4.2l.6-1.2.9-.9c3.3.6 7.5 2.4 11.4 2.1.6-1.2 1.5-1.2 1.8-2.4.6-1.2 0-2.4-.9-3.6-3.3-1.8-6.6 0-9.9 0l-.3-1.2c1.5-2.4 3-4.2 6.3-6 3.6.9 8.1 1.8 12-1.8 2.1-1.2 3-3.9 5.4-6.6.3.9.9 2.1.9 3l16.5 10.8-42.6 12z" id="path132"/><path class="fil5" d="m-163.05-74.4-39-11.1 18-12.3c6.3 6.3 9.9 10.2 20.4 15-.9 2.4 0 5.4 2.4 7.2l-1.8 1.2z" id="path133"/><path class="fil1" d="M122.85-108.6c2.1 6 4.5 12.9 9.6 16.8l-9 4.8-.6-21.6z" id="path134"/><path class="fil1" id="polygon134" d="m-122.55-88.8-7.5-4.5 7.8-12.9z"/><path class="fil5" id="polygon135" d="M125.85-119.4h-3.6v-15.9l-12.3-.3 40.5-39.002.6 19.502 19.2 5.1z"/><path class="fil5" d="m-127.35-122.1-42.9-32.1 19.5-2.4.9-22.8 42.9 44.1h-15v10.8c-.9 1.8-3 2.1-5.4 2.4z" id="path135"/><path class="fil5" id="polygon136" d="m-70.65-135.3-47.1-68.402 21.6 1.8 6-19.2 39.6 85.802z"/><path class="fil5" d="m-25.35-135.3-26.1-99.3 20.1 8.1 12.3-14.1c4.5 33.9 7.2 70.8 10.2 105.3h-16.5z" id="path136"/><path class="fil5" id="polygon137" d="M12.15-135.3 22.35-240l14.4 14.698 16.8-9.6-24.9 99.602z"/><path class="fil5" id="polygon138" d="m52.35-135.3 39.3-84.002 7.5 19.2 21.6-1.8-46.8 66.602z"/></g><path class="fil0 str0" d="M-16.65 181.2c-25.2-5.1-47.4-12.9-66.6-24.9l30.9 25.8c15 9.9 28.8 12 43.2 15l-7.5-15.9z" id="path138"/><path class="fil0 str0" d="M14.55 181.2c25.2-4.8 45.3-12 64.5-24l-31.2 26.1c-12.6 7.2-27.6 10.2-42.9 13.5l9.6-15.6z" id="path139"/><path class="fil0 str0" d="M88.65 198.9c19.8-12.6 36.9-26.7 51.3-42.6l-18.3 33-36 28.2 3-18.6z" id="path140"/><path class="fil5" id="polygon140" style="fill:#fff;fill-opacity:1" d="M-11.85-60h9.3l3-8.7 2.7 8.7h9.3l-7.5 5.7 3 8.7L.45-51l-7.5 5.4 2.7-8.7z"/><g id="g152"><g id="g151"><path class="fil5" d="M-53.25 66.9c0-.9-1.5-.3-1.5-1.5-.9 0-1.2-1.8-.6-2.7 2.7-2.1 5.7.9 9 0 2.1-2.1.9-6.3 4.2-8.1 1.2-.9 3-.6 5.1-.9l.9-21.6c-.6-1.8-3-.9-4.8-1.5-.9 0-1.5 1.5-1.8 3l-9.6 1.8c-.3-.9-1.2-2.7-1.8-3.9l-7.2-3.3c-1.2-1.2 0-2.7.9-3.3 2.7 1.2 6.3-.6 9 1.2 0 .6 0 2.1 1.8 2.7.9-1.5 2.7.9 4.2 0 .3-.9.6-2.1 1.2-3 .9-1.2 3-.9 4.8-1.8 2.4-1.8 4.2-4.8 3.6-8.1l-5.4-13.5c-.9-.6-3.9.3-4.2-1.5.3-.6.6-1.2 2.1-2.1 1.5 0 .6 2.4 1.8 3 1.5.6 3 .6 4.8-.6.6-.6.6-1.5.9-2.7 1.2 1.8 3.6 1.2 5.4 0v-.9c-.6-.9-1.5 0-2.7-.6.9-2.1 4.5-1.2 6.9 0 1.5.9.6 3 1.8 4.8 1.5.6 3.3 0 4.8.6 2.1 9.3 6.3 21.9 18.9 23.4.6.6.9 1.2.9 2.4 2.1 0 5.1 1.5 5.7-1.2 2.4-1.2 8.7-1.5 11.1 0 .3 1.2 1.2 1.2 2.1 1.8.9-1.5 2.1.9 3.6 0 0-.6 0-1.5.9-2.4l9.9-.3c1.2.3 1.2 1.2 2.1 2.7.9-.6 2.7.9 4.2 0 .3-1.5.9-1.8 2.1-2.4 3.3.3 6.6-1.5 9.9.3l.9 1.5c.3.9 1.8.6 3.3.6-3.3 1.8-7.5.9-11.4 2.4-1.8 4.2-2.4 11.4 1.8 16.2l-2.7.6c-1.5.9 0 4.2-1.5 5.1-3.3.6-6.6.6-9.9 3.3l-1.8-1.8c1.5-1.5 1.8-4.2.9-6.6-3 0-6.6-.9-7.8-4.5v-2.7c-1.5-1.8-3.9-.3-5.4-.9-1.8.6-.6 2.7-1.2 3.6 1.8 2.1 4.8 1.2 5.7 3.3l-30 1.2c-.6 1.8-3 3.3-5.4 3.3l-11.1-3.3-10.2 10.2c-6 .9-9.9 5.4-13.2 8.7h-6z" id="path141"/><g id="g150"><path class="fil5" d="m2.55 67.2-.9-.3-.6-.9c5.1-4.8 14.4-7.5 16.5-16.2 2.1-1.5 5.1-1.5 7.5 0 1.2.9-.3 2.7 1.2 3.6l.6.3v1.2c-2.7 2.1-6.9.6-9.6 2.1-.9 2.1-.3 6-3.6 7.5-.9 0-2.1 1.2-3.3 0-.3.9-1.5.9-2.1 1.8-1.5 1.2-3.3.6-5.7.9z" id="path142"/><path class="fil5" d="M50.25 67.2c-1.8-.3-1.8-1.8-3.9-2.7 2.4-1.8 6.6-1.8 9.6-1.8.6.9 1.5 2.7.6 3.9-.9 1.8-3.9.3-6.3.6z" id="path143"/><path class="fil5" d="M53.85 56.4c-1.2-.3-3-.3-5.1-1.8-.3-1.8 0-3.6 1.2-5.7 1.8 0 5.1 0 6.6.9.9 1.8 0 3.9 0 6.3l-2.7.3z" id="path144"/><path class="fil5" d="M-69.75 27.9c-.9-2.1-1.2-7.2.6-9.3.6.3.9 1.2 1.5 2.4-1.2 2.1 0 5.7-2.1 6.9z" id="path145"/><path class="fil5" d="m14.55 19.5.9-1.5 8.7-3.6 1.8 1.8c-2.4 2.7-7.2 3.3-10.5 3.3h-.9z" id="path146"/><path class="fil5" d="M7.35 18.9c-2.1-1.2-5.1-3.6-4.2-7.5h2.1c.3 2.1 5.1 5.1 2.7 7.5h-.6z" id="path147"/><path class="fil5" d="M-44.25 16.2c-.9-.3 0-2.1.3-2.4 2.1 0 1.2 1.5-.3 2.4z" id="path148"/><path class="fil5" d="M31.95 13.8c-.6-.3-1.8-.3-3-.9.3-.6 3.3-1.5 4.2-2.7l1.5.3c.9.6 0 1.2 0 2.4-.6 0-1.5.3-2.4.9h-.3z" id="path149"/><path class="fil5" d="M6.45 8.1c-.6-.9-.6-2.1-.6-3.3 4.5-4.5 11.1-1.5 16.8-4.2-.6 3.9-6.6 2.7-7.2 7.2-2.7 0-5.1-2.1-8.7.3h-.3z" id="path150"/></g></g><path class="fil5 str0" id="polygon151" d="m40.95 2.699 6.9-.899 4.2-1.5 8.1.3 5.7 3 3.6 4.2 1.8 7.199-2.7 6.601-5.7 5.7-6.3 1.8-1.2-2.4 2.1-2.4 4.8-4.5 2.7-5.7-2.1-5.401-4.5-4.199-5.1-.6-7.8 2.099-6.6 3.601z"/></g><g id="g163"><path class="fil0 str0" d="M1.05 45.3c-1.2-.3-.9-2.7-.9-4.5.6-1.2 3.3-.3 5.1-.6.3 1.5.6 3.3-.3 4.8l-3.9.3z" id="path152"/><path class="fil0 str0" d="m-33.15 45-.6-.6v-2.7c.9-1.8 4.2-2.4 5.7-.9v3.6c-.9.9-2.4.3-4.2.6h-.9z" id="path153"/><path class="fil0 str0" d="M-15.75 45c-.9-1.5 0-2.4-.3-4.2 1.2-.9 2.7-.3 4.2-.6 1.8 1.5-.3 2.4.3 4.2-.6.9-2.1.3-3.6.6h-.6z" id="path154"/><path class="fil0 str0" d="M35.55 45c-1.5-.3 0-2.4-.9-4.2.9-.9 3.3-.3 5.1-.6l.6 1.5v1.5c-.3.3-.6 1.2-1.8 1.8h-3z" id="path155"/><path class="fil0 str0" d="M-20.85 36.9c-1.2-.6-2.1 0-3.6-.6-1.2-.9-.3-2.4-.9-4.2.9-.9 3-.9 4.8-.9.9.6.9 2.7.9 4.2l-1.2 1.5z" id="path156"/><path class="fil0 str0" d="M-7.05 36.9c-1.2-.6 0-3.3-.6-5.1.9-1.2 2.4-.3 3.9-.6 1.5 1.2 1.5 3.6 0 5.1-.9.9-1.8 0-3.3.6z" id="path157"/><path class="fil0 str0" d="m10.65 36.9-1.5-1.5v-3.3c.9-.9 2.7-.9 4.5-.9.9.9.3 2.4.9 4.2-.6.9-1.8 1.8-3.3 1.5h-.6z" id="path158"/><path class="fil0 str0" d="m27.45 36.3-1.5-.9c0-.9.3-2.7.9-3.9 1.5-.3 3.6-.3 4.8.3.6.9.3 2.7-.3 3.6-1.2.9-2.4.9-3.9.9z" id="path159"/><path class="fil0 str0" d="m-31.95 28.8-1.5-.6v-4.8c1.5-.9 3 0 4.8-.3.9.9 0 1.8.6 3.3l-.9 1.8-3 .6z" id="path160"/><path class="fil0 str0" d="M-15.75 28.2c-1.5-.9 0-2.7-.3-4.2.3-1.8 2.7-.6 4.2-.9l.9.9c0 .9.6 2.7-.9 3.9-.9.9-1.8 0-3.3.3h-.6z" id="path161"/><path class="fil0 str0" d="M-24.45 19.2c-1.2-.9-1.2-5.1.6-5.7.9.6 2.4.6 3.3 0 .9.9 1.5 4.5.3 5.7h-4.2z" id="path162"/><path class="fil0 str0" d="m-31.95 11.1-1.5-.3V5.7c.6-.9 2.4-.3 3.9-.6 1.8.6.9 2.7 1.5 4.5-.6 1.2-2.4.6-3.9 1.5z" id="path163"/></g><path class="fil2 str0" d="M-169.35 138.9c27.9 42.3 62.1 61.2 82.8 77.1l-2.7 30.6c-47.1-15.3-87-51.6-105.6-92.7l22.5 6.6 3-21.6z" id="path164" style="fill:#214c92;fill-opacity:1"/><path class="fil2 str0" d="M168.15 138.9c-27.9 42.3-62.1 61.2-82.8 77.1l2.7 30.6c47.1-15.3 87-51.6 105.6-92.7l-22.5 6.6-3-21.6z" id="path165" style="fill:#214c92;fill-opacity:1"/><path class="fil2 str0" d="m-121.95 136.8-18.6 20.4c42.9 45.9 87.3 62.1 132 61.2v-21.9c-51.9-11.4-88.2-33-113.4-59.7z" id="path166" style="fill:#214c92;fill-opacity:1"/><path class="fil2 str0" d="m120.75 136.8 20.4 19.5c-44.1 47.1-91.5 65.1-137.4 64.2v-23.7c53.1-12 91.2-32.7 117-60z" id="path167" style="fill:#214c92;fill-opacity:1"/><path class="fil1" d="m-127.05 161.999 10.8-10.2 3.3 3.6-3.6 5.1c0 .3-.3.6-.9 1.2-.3.6-.9 1.2-1.2 1.8.3-.6.9-.9 1.5-1.5.9-.3 1.2-.6 1.2-.6l5.7-3.3 3 3.3-10.8 10.2-2.1-2.4 8.4-7.5-9.9 6-1.8-1.8 6.9-9.6-8.1 8.1-2.4-2.4zm17.1 9 1.5 1.5 3.3-5.7-4.8 4.2zm-6.9 1.5 12-9.3 3 2.7-6.9 13.5-2.7-2.4 1.5-2.4-2.1-1.8-2.1 2.1-2.7-2.4zm10.2 8.1 6.6-9.6-2.1-1.5 1.5-2.4 7.5 5.1-1.5 2.4-2.4-1.8-6.9 9.9-2.7-2.1zm14.7 2.4 1.2-2.4c.9-1.5 1.2-2.4 1.2-2.7 0-.6 0-.9-.6-1.2-.3-.3-.9-.3-1.2 0-.3.3-.9 1.2-1.8 2.4l-1.5 2.4c-.6 1.5-1.2 2.4-1.2 2.7 0 .6.3.9.9 1.2.3.3.9.3 1.2 0 .3-.3.9-1.2 1.8-2.4zm-5.1-4.5c.9-1.5 1.8-2.7 2.4-3.3.3-.6.9-.9 1.5-1.2.6-.3 1.2-.6 2.1-.6.6.3 1.5.3 2.4.9.9.6 1.5 1.2 1.8 1.8.6.6.6 1.2.6 2.1.3.3 0 1.2-.3 1.8-.3.9-.9 2.1-1.8 3.6s-1.5 2.7-2.1 3.3c-.6.6-.9.9-1.5 1.2-.6.3-1.5.6-2.1.6-.9-.3-1.5-.3-2.4-.9-.9-.6-1.5-1.2-1.8-1.8-.6-.6-.9-1.2-.9-2.1 0-.3 0-1.2.6-1.8.3-.9.6-2.1 1.5-3.6zm23.1 11.1-3 7.5-2.4-.9.3-.9c-.3 0-.9.3-1.5.3-.3 0-.9 0-1.2-.3-.6-.3-1.2-.6-1.5-.9-.3-.6-.6-.9-.9-1.5-.3-.6-.3-1.5 0-2.4 0-.9.6-2.1 1.5-4.2.6-1.2 1.2-2.4 1.5-3.3.6-.6.9-1.2 1.5-1.5.6-.3 1.2-.6 2.1-.6.6 0 1.5 0 2.4.3 1.2.6 2.1 1.5 2.4 2.4.3 1.2.3 2.4-.3 3.9l-.3.3-3-1.2v-.3c.3-.6.6-1.2.6-1.8 0-.3-.3-.6-.6-.6-.6-.3-.9-.3-1.2 0-.3.3-.9 1.5-1.5 3l-.6 1.2-.3.9c-.6 1.5-1.2 2.7-1.2 3 0 .6.3.9.9.9.3.3.6.3.9 0 .6-.3.9-.9 1.2-1.5v-.6s.3 0 .3-.3l-1.2-.3.9-2.4 4.2 1.8zm5.1 1.5h.3c.9.3 1.2.3 1.8.3.3-.3.6-.6.9-1.2.3-.6.3-1.2 0-1.5-.3-.3-.6-.6-1.2-.9h-.3l-.3-.3-1.2 3.6zm-6.3 6.9 5.1-14.1 3.9 1.5c1.2.3 1.8.9 2.4 1.2.6.3.9.6 1.2.9.3.6.3.9.3 1.5s0 1.2-.3 1.8c-.3.9-.6 1.5-1.2 1.8-.3.6-.9.9-1.8.9.9.9 1.2 2.1.6 3.9 0 .3-.3.3-.3.9-.6 1.5-.6 2.4-.3 3l-3.9-1.2c0-.3.3-.6.3-1.2 0-.3 0-.6.3-.9 0-.3 0-.6.3-.9 0-.3.3-.3.3-.6.3-.9.3-1.5.3-1.8-.3-.3-.6-.6-1.2-.9l-.6-.3-2.1 5.7-3.3-1.2zm18.6 0 .6-2.7c.6-1.5.6-2.7.6-3 0-.3-.3-.6-.9-.9-.6 0-.9 0-1.2.3-.3.3-.9 1.2-1.2 2.7l-.9 2.7c-.3 1.5-.6 2.4-.3 3 0 .3.3.6.9.9.3 0 .9 0 1.2-.3.3-.3.6-1.2 1.2-2.7zm-6-3.3c.6-1.5.9-2.7 1.5-3.6l.9-1.8c.6-.3 1.5-.6 2.1-.9.9 0 1.5 0 2.4.3 1.2.3 1.8.6 2.4 1.2.6.6.9 1.2 1.2 1.8 0 .6.3 1.2 0 2.1 0 .9-.3 2.1-.9 3.9-.3 1.5-.9 2.7-1.2 3.6-.3.6-.6 1.2-1.2 1.5-.6.6-1.2.9-2.1 1.2-.6 0-1.5 0-2.4-.3-.9-.3-1.5-.6-2.1-1.2-.6-.6-1.2-1.2-1.2-1.8-.3-.6-.3-1.2-.3-2.1.3-.9.6-2.1.9-3.9zm10.5 5.7 3 .6v.6c-.3.6-.3 1.2-.3 1.8.3.3.6.6.9.6h.9c.3-.3.6-.6.6-1.2.3-.6 0-1.5-.9-2.4-.3 0-.3 0-.3-.3h-.3c-.9-1.2-1.8-2.1-1.8-2.7-.3-.3-.3-.9-.3-1.2v-1.5c.3-1.5 1.2-2.4 2.1-2.7.9-.6 1.8-.9 3-.3 1.5.3 2.4.9 3 1.8.6.9.6 1.8.3 3.3v.3l-3-.6v-.3c0-.6.3-1.2 0-1.5 0-.3-.3-.6-.6-.6h-.9c-.3.3-.6.6-.6.9 0 .6.3 1.5 1.2 2.4l.3.3.3.3c1.2 1.2 1.8 2.1 1.8 2.7.3.3.3.6.3 1.2 0 .3 0 .9-.3 1.5-.3 1.2-.9 2.4-1.8 3-.9.6-2.1.6-3.6.3s-2.4-.9-3-2.1c-.6-.9-.6-2.1-.3-3.6v-.3c.3 0 .3 0 .3-.3zm9.9 2.4 3 .6v.6c-.3.6-.3 1.2-.3 1.8.3.3.6.6.9.6.6 0 .9 0 .9-.3.3 0 .6-.3.6-.9.3-.6-.3-1.5-.9-2.4-.3 0-.3-.3-.6-.3-1.2-1.2-1.8-2.1-2.1-2.7-.3-.3-.3-.9-.3-1.2v-1.5c.3-1.2.9-2.4 1.8-2.7.9-.6 2.1-.9 3.3-.6 1.5.3 2.4.9 3 1.8.6.9.6 2.1.6 3.3-.3 0-.3 0-.3.3v.3l-3-.9c.3-.6.3-1.2 0-1.5 0-.3-.3-.6-.6-.6-.3-.3-.6 0-.9 0-.3.3-.6.6-.6.9 0 .6.3 1.5 1.2 2.4.3 0 .3.3.6.3 0 0 0 .3.3.3.9.9 1.5 1.8 1.8 2.4 0 .3.3.9.3 1.2 0 .6 0 .9-.3 1.5-.3 1.5-.9 2.4-1.8 3-.9.6-2.1.9-3.3.6-1.5-.3-2.7-.9-3.3-1.8-.6-.9-.6-2.1-.3-3.6v-.3c0-.3 0-.3.3-.6zm16.5 2.4.6-2.7c.3-1.5.3-2.4 0-3 0-.3-.3-.6-.9-.6-.6-.3-.9 0-1.2.3-.3.3-.6 1.2-.9 3l-.3 2.7c-.3 1.5-.3 2.4-.3 3 0 .3.6.6.9.6.6.3.9 0 1.2-.3.3-.3.6-1.2.9-3zm-6-2.4c.3-1.8.6-3 .9-3.9l.9-1.8c.6-.3 1.2-.9 1.8-.9.9-.3 1.8-.3 2.7-.3.9.3 1.8.6 2.4.9.6.6.9 1.2 1.2 1.8.3.6.3 1.2.3 2.1 0 .9 0 2.1-.3 3.9-.3 1.8-.6 3-.9 3.9-.3.6-.6 1.2-1.2 1.8-.3.3-.9.9-1.8.9-.6.3-1.5.3-2.4.3-.9-.3-1.8-.6-2.4-.9-.6-.6-1.2-1.2-1.5-1.8 0-.6-.3-1.2-.3-2.1 0-.9.3-2.1.6-3.9z" id="path168"/><path class="fil2 str0" d="m-69.75 132.3-15.3 23.1c53.1 34.2 110.4 36.6 167.7-1.2l-15-20.1c-40.8 24-87 25.2-137.4-1.8z" id="path169" style="fill:#214c92;fill-opacity:1"/><path class="fil6" d="M-127.65 160.5c20.4 26.7 56.1 43.5 105.6 51.6" id="path170"/><path class="fil1" d="m42.15 194.4 1.5 9.3h.3c.6 0 .9-.3.9-.3.3-.3.6-.3.6-.6s.3-.6 0-1.2c0-.6 0-1.5-.3-3v-.6c-.3-1.2-.3-2.1-.6-2.4 0-.6-.3-.9-.3-.9-.3-.3-.3-.3-.6-.3-.3-.3-.6-.3-1.2 0h-.3zm-1.5 12.6-2.4-15 3.6-.6h3.3c.6 0 1.2.6 1.8.9.3.6.6.9.9 1.8.3.6.6 2.1.9 3.9.3 2.1.3 3.3.3 4.2 0 .6 0 1.2-.3 1.8-.3.6-.6 1.2-1.5 1.5-.6.3-1.5.6-3 .9l-3.6.6zm17.4-10.2-.6-2.7c-.6-1.5-.9-2.4-1.2-2.7-.3-.3-.9-.6-1.5-.3-.3 0-.6.3-.9.9 0 .3.3 1.5.6 3l.9 2.7c.6 1.5.9 2.4 1.2 2.7.3.3.6.3 1.2.3.6-.3.9-.6.9-.9.3-.6 0-1.5-.6-3zm-6.6.6c-.3-1.8-.9-3-.9-3.9v-2.1c.3-.6.6-1.5 1.2-1.8.6-.6 1.5-.9 2.4-1.2.9-.3 1.8-.6 2.4-.3.9 0 1.5.3 2.1.9.3.3.9.9 1.2 1.8.3.6.9 1.8 1.2 3.6.6 1.8.9 3 1.2 3.9 0 .6 0 1.5-.3 2.1 0 .6-.6 1.2-1.2 1.8-.3.6-1.2.9-2.1 1.2-.9.3-1.8.3-2.4.3-.9-.3-1.5-.6-2.1-.9-.6-.6-.9-.9-1.2-1.8-.3-.6-.9-2.1-1.5-3.6zm25.8-7.2 3-1.5v.3c.3.6.9 1.2 1.2 1.5h.9c.6-.3.6-.6.6-.9.3-.3 0-.6 0-.9-.3-.9-1.2-1.2-2.4-1.2h-.6c-1.8-.3-3-.6-3.3-.9-.6 0-.9-.3-1.2-.6-.3-.3-.6-.9-.9-1.2-.6-1.2-.6-2.4-.3-3.3.3-1.2.9-1.8 2.1-2.4 1.2-.9 2.4-.9 3.6-.6.9.3 1.8.9 2.4 2.1v.3l.3.3-3 1.5v-.3c-.3-.6-.6-.9-.9-1.2-.3-.3-.6-.3-1.2 0-.3.3-.3.3-.3.6-.3.3 0 .6 0 1.2.3.3 1.2.9 2.4.9h1.2c1.5.3 2.4.3 3 .6l.9.9c.3.3.6.6.9 1.2.6 1.2.9 2.4.6 3.6-.3.9-1.2 1.8-2.4 2.7-1.5.6-2.7.9-3.6.6-.9-.3-1.8-1.2-2.7-2.7v-.3l-.3-.3zm6-14.7 3-1.8 5.1 8.1c.6 1.2 1.2 1.8 1.5 2.1.3 0 .6 0 1.2-.3.3 0 .6-.3.3-.9 0-.3-.3-1.2-.9-2.4l-5.1-7.8 3-1.8 5.1 8.1c.6.9.9 1.5 1.2 2.1 0 .6.3.9.3 1.5s-.3 1.5-.6 2.1c-.3.6-1.2 1.2-2.1 1.8-.6.3-1.5.6-2.1.9-.9 0-1.5-.3-2.1-.6-.6-.3-.9-.6-1.5-1.2-.3-.6-1.2-1.5-2.1-3l-4.2-6.9zm25.8.3-6.3 4.8-9-12 2.7-2.1 7.2 9.6 3.6-2.7 1.8 2.4z" id="path171"/><path class="fil6" d="M35.25 207.3c25.8-.9 56.4-16.2 77.1-34.5" id="path172"/><path class="fil1" d="m-51.75 164.7 2.4-7.8-2.7-.9.6-1.5c1.2.3 1.8.3 2.4.3.6-.3.9-.6 1.5-1.5l1.8.6-3.9 11.7-2.1-.9zm9.3 3 2.4-7.8-3-.9.6-1.5c1.2.3 1.8.3 2.4 0 .6 0 1.2-.6 1.5-1.2l1.8.6-3.3 11.7-2.4-.9zm11.4-.6.6-2.1 4.5.9-.3 2.4-4.8-1.2zm13.8 6 .9-8.1-3-.3.3-1.8c1.2 0 1.8 0 2.4-.3.6-.3.9-.6.9-1.5l2.1.3-1.2 12-2.4-.3zm9-4.8c0 1.5 0 2.7.3 3.3.3.6.6.9 1.2.9.6.3 1.2 0 1.5-.9.3-.6.6-1.5.9-3 0-1.5 0-2.7-.3-3.3-.3-.6-.9-1.2-1.5-1.2s-1.2.3-1.5.9c-.3.6-.6 1.8-.6 3.3zm-2.4-.3c0-2.1.6-3.6 1.2-4.5.9-.9 2.1-1.5 3.6-1.5 1.5.3 2.4.9 3 2.1.9.9.9 2.7.9 4.5-.3 2.1-.6 3.9-1.5 4.8-.6.9-1.8 1.5-3.3 1.2-1.5 0-2.7-.6-3.3-1.8-.6-.9-.9-2.7-.6-4.8zm14.4 3-.3-2.4h4.8l.3 2.4h-4.8zm14.4 2.4-1.2-8.4-2.7.6-.3-1.8h.3c.9 0 1.8-.3 2.1-.9.3-.3.6-.9.6-1.8h2.1l1.5 12-2.4.3zm10.5-10.2c0-.6-.3-1.2-.6-1.5-.6-.3-.9-.3-1.5-.3-.6.3-1.2.6-1.2.9-.3.3-.3.9-.3 1.8 0 .6.3.9.9 1.2.3.3.9.6 1.5.3.3 0 .9-.3 1.2-.6.3-.6.3-.9 0-1.8zm.9 3.3-.9.9c-.6 0-.9.3-1.2.3-1.2.3-2.4 0-3.3-.6-.6-.6-1.2-1.5-1.5-2.4-.3-1.5 0-2.4.6-3.3.6-.9 1.5-1.5 2.7-1.8 1.5-.3 2.7 0 3.6.9 1.2.6 1.8 2.1 2.1 4.2.3 2.1.3 3.6-.3 4.8-.6 1.5-1.5 2.1-3.3 2.4-.9.3-1.8 0-2.7-.3-.6-.3-1.2-1.2-1.5-2.1l2.4-.3c.3.3.6.6.9.6 0 .3.6.3.9.3.6-.3 1.2-.6 1.2-1.2.3-.6.3-1.5.3-2.4zm8.4 2.4-2.4.9c-.3-1.8-.3-3.6-.3-5.1.3-1.8.9-3.9 1.5-5.7l-5.7 1.8-.6-2.1 8.4-2.4.6 1.8c-.9 1.8-1.5 3.6-1.8 5.4 0 1.8 0 3.6.3 5.4zm9.3-3.3-2.4 1.2c-.3-1.8-.6-3.3-.6-5.1 0-1.8.3-3.6.9-5.7l-5.4 2.1-.9-1.8 8.1-3.3.6 1.8c-.6 1.8-.9 3.6-.9 5.4-.3 1.8 0 3.6.6 5.4z" id="path173"/><path class="fil6" d="M-58.05 162.6c35.7 13.5 73.2 18.3 112.2 0" id="path174"/><path class="fil1" id="polygon174" d="M-77.85-28.2h156v2.1h-156z"/><path class="fil4" d="M145.05 24.3c.3 0 .6 0 .6.3 0 0-.3.3-.6.3s-.6-.3-.6-.3c0-.3.3-.3.6-.3z" id="path175"/><g id="g252"><path class="fil1" id="polygon175" d="M-100.836-110.443h-3.477l2.739-2.361-.947-3.823 2.949 2.249 3.056-2.022-1.159 3.596 2.845 2.361-3.583.112-1.159 3.374z"/><path class="fil1" id="polygon176" d="M-90.962-110.446h-3.37l2.739-2.361-.949-3.824 2.951 2.249 2.949-2.023-1.054 3.598 2.846 2.361-3.688.112-1.159 3.373z"/><path class="fil1" id="polygon177" d="M-80.682-110.443h-3.476l2.844-2.361-.949-3.823 2.739 2.249 3.056-2.022-1.054 3.596 2.844 2.361-3.686.112-1.265 3.374z"/><path class="fil1" id="polygon178" d="M-70.35-110.443h-3.582l2.844-2.361-.948-3.823 2.845 2.249 3.054-2.022-1.159 3.596 2.844 2.361-3.581.112-1.264 3.374z"/><path class="fil1" id="polygon179" d="M-60.227-110.443h-3.476l2.844-2.361-.947-3.823 2.844 2.249 3.054-2.022-1.053 3.596 2.739 2.361-3.476.112-1.264 3.374z"/><path class="fil1" id="polygon180" d="M-49.994-110.443h-3.371l2.845-2.361-.949-3.823 2.845 2.249 3.055-2.022-1.159 3.596 2.844 2.361-3.581.112-1.265 3.374z"/><path class="fil1" id="polygon181" d="M-39.583-110.443h-3.477l2.738-2.361-.842-3.823 2.844 2.249 3.161-2.022-1.159 3.596 2.844 2.361-3.582.112-1.264 3.374z"/><path class="fil1" id="polygon182" d="M-29.333-110.443h-3.371l2.739-2.361-.948-3.823 2.949 2.249 3.056-2.022-1.054 3.596 2.844 2.361-3.686.112-1.265 3.374z"/><path class="fil1" id="polygon183" d="M-18.726-110.443h-3.371l2.634-2.361-.949-3.823 2.951 2.249 3.054-2.022-1.053 3.596 2.843 2.361-3.686.112-1.265 3.374z"/><path class="fil1" id="polygon184" d="M-8.418-110.443h-3.476l2.739-2.361-.948-3.823 2.844 2.249 3.161-2.022-1.159 3.596 2.844 2.361-3.581.112-1.37 3.374z"/><path class="fil1" id="polygon185" d="M1.858-110.443h-3.476l2.738-2.361-.948-3.823 2.95 2.249 3.055-2.022-1.158 3.596 2.844 2.361-3.583.112-1.158 3.374z"/><path class="fil1" id="polygon186" d="M12-110.446H8.529l2.844-2.361-.947-3.824 2.949 2.249 2.949-2.023-1.054 3.598 2.73 2.361-3.466.112-1.264 3.373z"/><path class="fil1" id="polygon187" d="M22.277-110.443h-3.582l2.844-2.361-.948-3.823 2.949 2.249 3.16-2.022-1.157 3.596 2.632 2.361-3.371.112-1.264 3.374z"/><path class="fil1" id="polygon188" d="M32.319-110.443h-3.478l2.845-2.361-.948-3.823 2.95 2.249 2.95-2.022-.949 3.596 2.634 2.361-3.477.112-1.264 3.374z"/><path class="fil1" id="polygon189" d="M42.689-110.443h-3.581l2.844-2.361-.952-3.823 2.954 2.249 2.949-2.022-1.054 3.596 2.844 2.361-3.581.112-1.265 3.374z"/><path class="fil1" id="polygon190" d="M52.68-110.443h-3.477l2.738-2.361-.947-3.823 2.949 2.249L57-116.4l-1.16 3.596 2.844 2.361-3.477.112-1.369 3.374z"/><path class="fil1" id="polygon191" d="M62.538-110.443h-3.476l2.844-2.361-.948-3.823 2.845 2.249 3.055-2.022-1.159 3.596 2.844 2.361-3.581.112-1.159 3.374z"/><path class="fil1" id="polygon192" d="M72.474-110.443h-3.476l2.844-2.361-.949-3.823 2.846 2.249 2.949-2.022-1.159 3.596 2.95 2.361-3.688.112-1.159 3.374z"/><path class="fil1" id="polygon193" d="M82.409-110.477h-3.581l2.844-2.362-.948-3.822 2.949 2.249 2.95-2.025-1.053 3.598 2.739 2.362-3.476.112-1.16 3.373z"/><path class="fil6" id="polyline193" d="M82.409-110.477h-3.581l2.844-2.362-.948-3.822 2.949 2.249 2.95-2.025-1.053 3.598 2.739 2.362-3.476.112-1.16 3.373-1.264-3.485"/><path class="fil1" id="polygon194" d="M101.6-110.446h-3.476l2.844-2.361-.947-3.824 2.844 2.249 3.055-2.023-1.053 3.598 2.739 2.361-3.583.112-1.263 3.373z"/><path class="fil1" id="polygon195" d="M92.041-110.443h-3.476l2.844-2.361-.947-3.823 2.844 2.249 3.054-2.022-1.053 3.596 2.739 2.361-3.581.112-1.265 3.374z"/><path class="fil1" id="polygon196" d="M-28.415 122.947v3.823l-2.107-3.036-3.581 1.012 2.107-3.148-1.897-3.373 3.371 1.237 2.107-3.036.105 3.822 3.266 1.35z"/><path class="fil6" id="polyline196" d="M-28.415 122.947v3.823l-2.107-3.036-3.581 1.012 2.107-3.148-1.897-3.373 3.371 1.237 2.107-3.036.105 3.822 3.266 1.35-3.371 1.349"/><path class="fil1" id="polygon197" d="M-37.264 119.574v3.711l-2.212-3.037-3.477 1.012 2.002-3.147-1.791-3.261 3.266 1.124 2.212-3.036.105 3.935 3.266 1.35z"/><path class="fil6" id="polyline197" d="M-37.264 119.574v3.711l-2.212-3.037-3.477 1.012 2.002-3.147-1.791-3.261 3.266 1.124 2.212-3.036.105 3.935 3.266 1.35-3.371 1.349"/><path class="fil1" id="polygon198" d="M-45.586 115.414v3.822l-2.212-3.036-3.582 1.013 2.107-3.149-1.897-3.26 3.372 1.125 2.212-3.037.106 3.935 3.265 1.35z"/><path class="fil6" id="polyline198" d="M-45.586 115.414v3.822l-2.212-3.036-3.582 1.013 2.107-3.149-1.897-3.26 3.372 1.125 2.212-3.037.106 3.935 3.265 1.35-3.371 1.237"/><path class="fil1" id="polygon199" d="M-53.066 110.916v3.824l-2.107-3.037-3.582 1.012 2.107-3.149-1.896-3.26 3.371 1.237 2.107-3.037.106 3.712 3.265 1.462z"/><path class="fil6" id="polyline199" d="M-53.066 110.916v3.824l-2.107-3.037-3.582 1.012 2.107-3.149-1.896-3.26 3.371 1.237 2.107-3.037.106 3.712 3.265 1.462-3.371 1.236"/><path class="fil1" id="polygon200" d="m-84.047 78.336.632 3.709-2.633-2.586-3.372 1.686 1.58-3.485-2.422-2.923 3.476.563 1.686-3.374.737 3.711 3.476.674z"/><path class="fil1" id="polygon201" d="M-96.31 51.614v3.711l-2.213-3.035-3.582 1.01 2.107-3.147-1.896-3.261 3.371 1.237 2.213-3.148.104 3.936 3.266 1.348z"/><path class="fil1" id="polygon202" d="M-97.251 41.136v3.823l-2.212-3.037-3.582 1.012 2.107-3.148-1.896-3.26 3.371 1.124 2.212-2.924.105 3.711 3.266 1.349z"/><path class="fil1" id="polygon203" d="M-97.251 30.182v3.711l-2.212-3.035-3.582 1.011 2.107-3.149-1.896-3.26 3.371 1.124 2.212-3.035.105 3.935 3.266 1.349z"/><path class="fil1" id="polygon204" d="M-97.251 19.12v3.823l-2.212-3.037-3.582 1.013 2.107-3.149-1.896-3.26 3.371 1.124 2.212-2.923.105 3.822 3.266 1.35z"/><path class="fil1" id="polygon205" d="M-97.251 8.55v3.823l-2.212-3.035-3.582 1.011 2.107-3.149-1.896-3.372 3.371 1.237 2.212-3.036.105 3.823 3.266 1.461z"/><path class="fil1" id="polygon206" d="M-97.251-2.738v3.822l-2.212-3.035-3.582 1.012 2.107-3.149-1.896-3.373 3.371 1.237 2.212-3.036.105 3.823 3.266 1.349z"/><path class="fil1" id="polygon207" d="M-97.251-13.447v3.598l-2.212-2.923-3.582.898 2.107-3.035-1.896-3.261 3.371 1.238 2.212-3.149.105 3.935 3.266 1.349z"/><path class="fil1" id="polygon208" d="M-97.251-24.709v3.822l-2.212-3.035-3.582 1.012 2.107-3.149-1.896-3.373 3.371 1.237 2.212-3.035.105 3.823 3.266 1.348z"/><path class="fil1" id="polygon209" d="M-97.251-35.593v3.599l-2.212-3.036-3.582 1.012 2.107-3.036-1.896-3.261 3.371 1.125 2.212-3.036.105 3.936 3.266 1.349z"/><path class="fil1" id="polygon210" d="M-97.251-46.592v3.823l-2.212-3.037-3.582 1.013 2.107-3.148-1.896-3.261 3.371 1.124 2.212-3.036.105 3.935 3.266 1.35z"/><path class="fil1" id="polygon211" d="M-97.251-57.34v3.823l-2.212-3.037-3.582 1.013 2.107-3.148-1.896-3.261 3.371 1.237 2.212-3.036.105 3.822 3.266 1.35z"/><path class="fil1" id="polygon212" d="M-97.251-67.976v3.823l-2.212-3.035-3.582 1.011 2.107-3.148-1.896-3.373 3.371 1.237 2.212-3.036.105 3.822 3.266 1.35z"/><path class="fil1" id="polygon213" d="M-97.251-78.658v3.711l-2.212-3.037-3.582 1.013 2.107-3.148-1.896-3.261 3.371 1.237 2.212-3.036.105 3.823L-93.88-80z"/><path class="fil1" id="polygon214" d="M-97.251-89.341v3.822l-2.212-3.035-3.582 1.012 2.107-3.149-1.896-3.373 3.371 1.236 2.212-3.035.105 3.823 3.266 1.349z"/><path class="fil1" id="polygon215" d="M-97.251-100.323v3.711l-2.212-3.037-3.582 1.013 2.107-3.149-1.896-3.26 3.371 1.124 2.212-3.036.105 3.935 3.266 1.35z"/><path class="fil1" id="polygon216" d="M78.032 90.249v3.824l-2.212-3.037-3.476 1.012L74.45 88.9l-1.896-3.373 3.266 1.237 2.212-2.924.106 3.71 3.266 1.35z"/><path class="fil1" id="polygon217" d="M71.14 97.761v3.822l-2.212-3.035-3.582 1.012 2.107-3.149-1.896-3.373 3.371 1.237 2.212-3.036.105 3.823 3.266 1.349z"/><path class="fil1" id="polygon218" d="M91.076 71.54v3.824l-2.107-3.037-3.581 1.013 2.107-3.148-1.897-3.373 3.371 1.236 2.107-3.035.105 3.822 3.266 1.35z"/><path class="fil1" id="polygon219" d="M84.794 81.05v3.599l-2.212-2.924-3.583 1.013 2.107-3.149-1.896-3.26 3.372 1.124 2.212-3.036.106 3.935 3.265 1.35z"/><path class="fil1" id="polygon220" d="M63.658 103.608v3.823l-2.108-3.037-3.581 1.012 2.107-3.148-1.896-3.26 3.37 1.124 2.108-3.036.105 3.935 3.266 1.35z"/><path class="fil6" id="polyline220" d="M63.658 103.608v3.823l-2.108-3.037-3.581 1.012 2.107-3.148-1.896-3.26 3.37 1.124 2.108-3.036.105 3.935 3.266 1.35-3.371 1.237"/><path class="fil1" id="polygon221" d="M23.31 125.42v3.824l-2.212-3.036-3.582 1.012 2.107-3.149-1.896-3.261 3.371 1.125 2.212-3.035.105 3.935 3.266 1.349z"/><path class="fil6" id="polyline221" d="M23.31 125.42v3.824l-2.212-3.036-3.582 1.012 2.107-3.149-1.896-3.261 3.371 1.125 2.212-3.035.105 3.935 3.266 1.349-3.371 1.236"/><path class="fil1" id="polygon222" d="M15.515 126.995v3.823l-2.215-3.035-3.58 1.011 2.108-3.148-1.898-3.261 3.37 1.124 2.215-3.035.105 3.935 3.16 1.349z"/><path class="fil6" id="polyline222" d="M15.515 126.995v3.823l-2.215-3.035-3.58 1.011 2.108-3.148-1.898-3.261 3.37 1.124 2.215-3.035.105 3.935 3.16 1.349-3.265 1.237"/><path class="fil1" id="polygon223" d="M7.192 127.895v3.823l-2.212-3.037-3.476 1.013 2.106-3.149-1.896-3.26 3.266 1.124 2.212-3.036.105 3.935 3.266 1.35z"/><path class="fil6" id="polyline223" d="M7.192 127.895v3.823l-2.212-3.037-3.476 1.013 2.106-3.149-1.896-3.26 3.266 1.124 2.212-3.036.105 3.935 3.266 1.35-3.371 1.237"/><path class="fil1" id="polygon224" d="M-1.552 128v3.83l-2.212-3.036-3.476 1.012 2.002-3.148-1.792-3.261 3.266 1.124 2.212-3.036.105 3.935 3.266 1.35z"/><path class="fil6" id="polyline224" d="M-1.552 128v3.83l-2.212-3.036-3.476 1.012 2.002-3.148-1.792-3.261 3.266 1.124 2.212-3.036.105 3.935 3.266 1.35-3.371 1.23"/><path class="fil1" id="polygon225" d="M-9.979 127.445v3.823l-2.212-3.037-3.583 1.013 2.107-3.148-1.895-3.261 3.371 1.124 2.212-3.036.105 3.935 3.161 1.35z"/><path class="fil6" id="polyline225" d="M-9.979 127.445v3.823l-2.212-3.037-3.583 1.013 2.107-3.148-1.895-3.261 3.371 1.124 2.212-3.036.105 3.935 3.161 1.35-3.266 1.237"/><path class="fil1" id="polygon226" d="M-19.039 126.096v3.822l-2.213-3.035-3.581 1.012 2.106-3.149-1.895-3.261 3.37 1.124 2.213-3.035.105 3.935 3.16 1.349z"/><path class="fil6" id="polyline226" d="M-19.039 126.096v3.822l-2.213-3.035-3.581 1.012 2.106-3.149-1.895-3.261 3.37 1.124 2.213-3.035.105 3.935 3.16 1.349-3.265 1.238"/><path class="fil1" id="polygon227" d="M32.264 122.723v3.822l-2.212-3.036-3.476 1.012 2.001-3.148-1.791-3.26 3.266 1.123 2.212-3.036.105 3.936 3.266 1.349z"/><path class="fil6" id="polyline227" d="M32.264 122.723v3.822l-2.212-3.036-3.476 1.012 2.001-3.148-1.791-3.26 3.266 1.123 2.212-3.036.105 3.936 3.266 1.349-3.371 1.238"/><path class="fil1" id="polygon228" d="M56.073 109.792v3.823l-2.213-3.036-3.476 1.012 2.002-3.149-1.791-3.148 3.265 1.125 2.213-3.037.105 3.936 3.266 1.237z"/><path class="fil6" id="polyline228" d="M56.073 109.792v3.823l-2.213-3.036-3.476 1.012 2.002-3.149-1.791-3.148 3.265 1.125 2.213-3.037.105 3.936 3.266 1.237-3.371 1.237"/><path class="fil1" id="polygon229" d="M48.488 114.626v3.823l-2.212-3.035-3.583 1.012 2.107-3.149-1.895-3.261 3.371 1.125 2.212-3.036.105 3.936 3.161 1.349z"/><path class="fil6" id="polyline229" d="M48.488 114.626v3.823l-2.212-3.035-3.583 1.012 2.107-3.149-1.895-3.261 3.371 1.125 2.212-3.036.105 3.936 3.161 1.349-3.266 1.236"/><path class="fil1" id="polygon230" d="M40.903 119.236v3.823l-2.107-3.035-3.581 1.012 2.105-3.149-1.895-3.261 3.371 1.125 2.107-3.036.097 3.936 3.274 1.348z"/><path class="fil6" id="polyline230" d="M40.903 119.236v3.823l-2.107-3.035-3.581 1.012 2.105-3.149-1.895-3.261 3.371 1.125 2.107-3.036.097 3.936 3.274 1.348-3.371 1.237"/><path class="fil1" id="polygon231" d="m-88.804 69.451.632 3.824-2.738-2.587-3.267 1.574 1.581-3.485-2.423-2.923 3.581.562 1.581-3.373.737 3.71 3.372.9z"/><path class="fil1" id="polygon232" d="m-92.832 60.486.613 3.706-2.656-2.508-3.165 1.526 1.532-3.378-2.349-2.834 3.472.545 1.532-3.27.715 3.597 3.268.872z"/><path class="fil1" id="polygon233" d="M97.152 61.824v3.823l-2.214-3.037-3.476 1.013 2.002-3.148-1.896-3.261 3.37 1.236 2.214-3.035.105 3.822 3.266 1.238z"/><path class="fil1" id="polygon234" d="M100.619 50.648v3.711l-2.212-3.036-3.582 1.012 2.107-3.148-1.896-3.261 3.371 1.237 2.212-3.148.106 3.935 3.265 1.35z"/><path class="fil1" id="polygon235" d="M103.512 39.154v3.823l-2.212-3.036-3.58 1.011 2.1-3.147-1.89-3.261 3.37 1.124 2.212-2.923.105 3.71 3.161 1.35z"/><path class="fil1" id="polygon236" d="M103.512 28.609v3.711l-2.212-3.036-3.58 1.011 2.1-3.147-1.89-3.261 3.37 1.124 2.212-3.035.105 3.935 3.161 1.349z"/><path class="fil1" id="polygon237" d="M103.512 18.018v3.822l-2.212-3.036-3.58 1.013 2.1-3.149-1.89-3.26 3.37 1.124 2.212-2.924.105 3.823 3.161 1.349z"/><path class="fil1" id="polygon238" d="M103.512 7.18V11L101.3 7.967l-3.58 1.012 2.1-3.149-1.89-3.373 3.37 1.236 2.212-3.035.105 3.823 3.161 1.461z"/><path class="fil1" id="polygon239" d="M103.512-3.37V.454L101.3-2.583 97.72-1.57l2.1-3.149-1.89-3.373 3.37 1.237 2.212-3.037.105 3.823 3.161 1.35z"/><path class="fil1" id="polygon240" d="M103.512-13.74v3.598l-2.212-2.923-3.58.898 2.1-3.035-1.89-3.261 3.37 1.237 2.212-3.148.105 3.935 3.161 1.349z"/><path class="fil1" id="polygon241" d="M103.512-24.594v3.824l-2.212-3.037-3.58 1.012 2.1-3.148-1.89-3.373 3.37 1.236 2.212-3.036.105 3.823 3.161 1.35z"/><path class="fil1" id="polygon242" d="M103.512-35.073v3.599L101.3-34.51l-3.58 1.012 2.1-3.036-1.89-3.261 3.37 1.125 2.212-3.036.105 3.936 3.161 1.348z"/><path class="fil1" id="polygon243" d="M103.512-46.135v3.823l-2.212-3.036-3.58 1.012 2.1-3.149-1.89-3.26 3.37 1.125 2.212-3.037.105 3.935 3.161 1.35z"/><path class="fil1" id="polygon244" d="M103.512-57.292v3.823l-2.212-3.035-3.58 1.011 2.1-3.147-1.89-3.26 3.37 1.235 2.212-3.035.105 3.823 3.161 1.349z"/><path class="fil1" id="polygon245" d="M103.512-67.926v3.822L101.3-67.14l-3.58 1.012 2.1-3.148-1.89-3.374 3.37 1.237 2.212-3.036.105 3.824 3.161 1.349z"/><path class="fil1" id="polygon246" d="M103.512-78.542v3.71l-2.212-3.036-3.58 1.012L99.82-80l-1.89-3.265 3.37 1.237 2.212-3.036.105 3.823 3.161 1.349z"/><path class="fil1" id="polygon247" d="M103.512-89.428v3.823l-2.212-3.037-3.58 1.012 2.1-3.148-1.89-3.374 3.37 1.238 2.212-3.036.105 3.823 3.161 1.349z"/><path class="fil1" id="polygon248" d="M103.512-100.323v3.711l-2.212-3.037-3.58 1.013 2.1-3.149-1.89-3.26 3.37 1.124 2.212-3.036.105 3.935 3.161 1.35z"/><path class="fil1" id="polygon249" d="M-66.509 101.229v3.823l-2.212-3.036-3.581 1.012 2.107-3.148-1.897-3.373 3.371 1.237 2.212-3.036.106 3.822 3.16 1.35z"/><path class="fil1" id="polygon250" d="M-79.137 87.108v3.822l-2.108-3.036-3.581 1.013 2.106-3.036-1.895-3.373 3.37 1.236 2.108-3.036.105 3.823 3.265 1.35z"/><path class="fil1" id="polygon251" d="M-73.088 94.62v3.824l-2.212-3.037-3.582 1.013 2.107-3.148-1.896-3.373 3.371 1.236 2.212-3.035.105 3.822 3.266 1.35z"/><path class="fil1" id="polygon252" d="M-59.811 106.917v3.711l-2.212-2.923-3.477 1.012 2.002-3.149-1.896-3.373 3.371 1.237 2.212-3.036.105 3.823 3.266 1.349z"/></g></g></svg>