<svg width="256" height="256" version="1.1" viewBox="0 0 256 256" xmlns="http://www.w3.org/2000/svg">
 <defs>
  <clipPath id="clipPath23">
   <path transform="translate(-857.06 -128.42)" d="m808.45 86.022h303.1v56.848h-303.1z"/>
  </clipPath>
  <clipPath id="clipPath25">
   <path transform="translate(-844.46 -104.46)" d="m808.45 86.022h303.1v56.848h-303.1z"/>
  </clipPath>
  <clipPath id="clipPath27">
   <path transform="translate(-869.66 -104.46)" d="m808.45 86.022h303.1v56.848h-303.1z"/>
  </clipPath>
 </defs>
 <g transform="matrix(3.061 0 0 3.061 -695.9 -754.44)">
  <path transform="matrix(1.3333 0 0 -1.3333 292.82 268.26)" d="m0 0-7.152 12.454c-0.709 1.233-2.019 1.993-3.435 1.993h-14.306c-1.417 0-2.726-0.76-3.435-1.993l-7.153-12.454c-0.708-1.233-0.708-2.753 0-3.987l7.153-12.453c0.709-1.234 2.018-1.994 3.435-1.994h5.19l1.963 3.417h-7.153c-0.202 0-0.389 0.11-0.49 0.286l-7.153 12.452c-0.101 0.176-0.101 0.395 0 0.57l7.153 12.453c0.101 0.176 0.288 0.285 0.49 0.285h14.306c0.201 0 0.389-0.109 0.491-0.285l7.152-12.453c0.101-0.175 0.101-0.394 0-0.569l-4.159-7.242h3.925l3.178 5.533c0.709 1.234 0.709 2.754 0 3.987" clip-path="url(#clipPath23)" fill="#0785fb"/>
  <path transform="matrix(1.3333 0 0 -1.3333 276.02 300.22)" d="m0 0-3.177 5.532h-3.926l4.159-7.241c0.101-0.176 0.101-0.394 0-0.569l-7.153-12.454c-0.101-0.175-0.289-0.285-0.49-0.285h-14.306c-0.202 0-0.389 0.11-0.49 0.285l-7.153 12.453c-0.101 0.176-0.101 0.394 0 0.57l7.153 12.453c0.101 0.176 0.288 0.285 0.49 0.285h7.154l-1.963 3.418h-5.191c-1.417 0-2.726-0.76-3.435-1.994l-7.153-12.453c-0.708-1.233-0.708-2.753 0-3.987l7.153-12.453c0.709-1.234 2.018-1.994 3.435-1.994h14.306c1.416 0 2.726 0.76 3.435 1.994l7.152 12.453c0.709 1.234 0.709 2.754 0 3.987" clip-path="url(#clipPath25)" fill="#9d6ffb"/>
  <path transform="matrix(1.3333 0 0 -1.3333 309.62 300.22)" d="m0 0-7.152 12.453c-0.709 1.234-2.019 1.994-3.435 1.994h-14.306c-1.417 0-2.726-0.76-3.435-1.994l-3.974-6.92h3.925l2.994 5.211c0.101 0.176 0.288 0.285 0.49 0.285h14.306c0.201 0 0.389-0.109 0.491-0.285l7.152-12.453c0.101-0.176 0.101-0.394 0-0.569l-7.153-12.454c-0.101-0.175-0.289-0.285-0.49-0.285h-14.306c-0.202 0-0.389 0.11-0.49 0.285l-3.004 5.197-1.963-3.416 2.022-3.489c0.709-1.234 2.018-1.994 3.435-1.994h14.306c1.416 0 2.726 0.76 3.435 1.994l7.152 12.453c0.709 1.234 0.709 2.754 0 3.987" clip-path="url(#clipPath27)" fill="#00d6c8"/>
 </g>
</svg>
