<svg width="256" height="256" data-name="Camada 1" version="1.1" viewBox="0 0 256 256" xmlns="http://www.w3.org/2000/svg">
 <defs>
  <style>.cls-1{fill:#00a8bc;}.cls-2{fill:#f7a521;}</style>
 </defs>
 <path class="cls-2" d="m253.29 243.5-84.489-231.79a14.41 14.41 0 0 0-4.5145-7.0342 13.832 13.832 0 0 0-9.5539-3.0709h-53.439a13.858 13.858 0 0 0-9.5801 3.0709 14.593 14.593 0 0 0-4.462 7.0342l-84.883 231.79a13.701 13.701 0 0 0-0.36746 3.2546 8.0578 8.0578 0 0 0 7.5854 7.5854h44.41a11.444 11.444 0 0 0 8.6615-2.6247 14.672 14.672 0 0 0 3.2546-4.9082l9.029-24.226 27.034-86.011 26.037-73.911 51.838 157.32 10.263 26.824a13.596 13.596 0 0 0 3.4121 4.8819 11.024 11.024 0 0 0 8.1366 2.6247h44.41a7.6379 7.6379 0 0 0 5.5906-2.3622 7.2704 7.2704 0 0 0 1.6273-8.4778z" stroke-width="2.6247"/>
</svg>
