<svg width="96.092" height="96" version="1.1" viewBox="0 0 96.092 96" xmlns="http://www.w3.org/2000/svg">
 <g>
  <path transform="scale(1.3333)" d="M 4.148,0 H 67.852 C 70.148,0 72,1.852 72,4.148 V 67.852 C 72,70.148 70.148,72 67.852,72 H 4.148 C 1.852,72 0,70.148 0,67.852 V 4.148 C 0,1.852 1.852,0 4.148,0 Z" fill="#46ad44"/>
  <path transform="scale(1.3333)" d="m1.254 70.746c0.805 0.801 1.894 1.254 3.031 1.254h63.5c2.363-8e-3 4.274-1.922 4.285-4.285v-63.5c0-1.133-0.453-2.219-1.258-3.02" fill="#fabd10"/>
  <path transform="scale(1.3333)" d="m72.008 36.641h-0.133c-19.457 0-35.23 15.769-35.234 35.226v0.133h31.074c2.367-4e-3 4.285-1.922 4.293-4.289z" fill="#2864ae"/>
  <path transform="scale(1.3333)" d="m68.109 67c0.215-0.211 0.215-0.562 0-0.773l-3.371-3.372c-0.238-0.152-0.156-0.515 0.125-0.55l3.098-1.047c0.281-0.094 0.281-0.246 0-0.348l-10.402-3.719c-0.282-0.101-0.426 0.047-0.325 0.325l3.719 10.398c0.102 0.281 0.262 0.281 0.356 0l1.039-3.098c0.035-0.277 0.398-0.359 0.55-0.125l3.372 3.364c0.21 0.222 0.562 0.222 0.773 0z" fill="#fff"/>
 </g>
</svg>
