<svg width="256" height="256" xml:space="preserve" xmlns="http://www.w3.org/2000/svg"><g fill="#0e8938"><path d="M193.85 151.11c10.099 0 30.916-.042 37.942-.042 2.187 0 5.416.041 5.26-5.26v-8.417H211.61c-2.317-.058-4.85.213-7.292-.64-.344-.355 40.14-6.672 46.796-7.876 1.735 3.199 2.886 7.776 2.886 12.922v5.515c0 7.198-1.703 12.485-5.088 15.87-3.402 3.375-5.49 2.833-12.715 2.833-18.8 0-37.57.072-56.368 0l-5.005-24.744 16.437-2.678z"/><g fill-rule="evenodd"><path d="m59.464 109.342 20.593.328c3.995-.016 6.667-.47 8.359-2.568l12.86-17.473-53.229.172c-65.842 2.818-50.466 70.77-19.327 72.81l70.306-13.931v-28.906l-39.662-.13-13.353 16.837 29.536.11v10.406c-17.573-.145-50.978 4.959-51.134-19.39.51-14.849 14.39-19.213 35.051-18.265zM98.969 166.402c-37.927.792-61.26.265-66.197-1.927l81.243-13.266-2.818 15.261z"/><path d="M129.54 100.681c-4.89-16.365-19.28-15.161-21.713 2.099l-8.858 36.988-.215 8.984 16.297-3.343 4.792-25.395 9.104 22.718 35.707-7.245 5.813-15.473 2.9 13.8 15.969-3.16-6.427-31.869c-2.698-13.01-13.963-14.598-20.036.427l-16.453 36.984zM161.758 143.416l-30.675 5.005 4.838 11.323c5.061 11.775 16.192 9.874 21.113-3.656z"/></g><path d="M196.01 129.31c-1.874-3.386-3.04-8.307-3.04-13.957v-3.319c0-7.708 1.748-13.306 5.259-16.806 3.5-3.484 9.114-5.23 16.864-5.23H253.9v15.432h-34.385c-4.422 0-6.641 2.199-6.641 6.604v2.21c0 4.41 2.219 6.62 6.641 6.62l18.161.14c0 .155-33.046 6.692-41.666 8.306z"/></g></svg>