<svg width="256" height="256" version="1.1" viewBox="0 0 256 256" xml:space="preserve" xmlns="http://www.w3.org/2000/svg"><rect width="256" height="256" rx="25" ry="25" fill="#001640"/><g transform="translate(.0019504 .0061646)" fill="#fff"><path transform="scale(1.3333)" d="m145.39 113.33c7.574 0 23.187-0.031 28.457-0.031 1.64 0 4.062 0.031 3.945-3.945v-6.313h-19.082c-1.738-0.043-3.637 0.16-5.469-0.48-0.258-0.266 30.106-5.004 35.098-5.907 1.301 2.399 2.164 5.832 2.164 9.692v4.136c0 5.399-1.277 9.364-3.816 11.903-2.551 2.531-4.118 2.125-9.536 2.125-14.101 0-28.179 0.054-42.277 0l-3.754-18.559 12.328-2.008z"/><g fill-rule="evenodd"><path transform="scale(1.3333)" d="m44.598 82.004 15.445 0.246c2.996-0.012 5-0.352 6.269-1.926l9.645-13.105-39.922 0.129c-49.383 2.113-37.851 53.078-14.496 54.609l52.731-10.449v-21.68l-29.747-0.098-10.015 12.629 22.152 0.082v7.805c-13.18-0.109-38.234 3.719-38.351-14.543 0.382-11.137 10.793-14.41 26.289-13.699z"/><path transform="scale(1.3333)" d="m74.227 124.8c-28.446 0.594-45.946 0.199-49.649-1.445l60.934-9.95-2.114 11.446z"/><path transform="scale(1.3333)" d="m97.156 75.508c-3.668-12.274-14.461-11.371-16.285 1.574l-6.644 27.742-0.161 6.738 12.223-2.507 3.594-19.047 6.828 17.039 26.781-5.434 4.36-11.605 2.175 10.351 11.977-2.371-4.82-23.902c-2.024-9.758-10.473-10.949-15.028 0.32l-12.34 27.739z"/><path transform="scale(1.3333)" d="m121.32 107.56-23.007 3.754 3.629 8.492c3.796 8.832 12.144 7.406 15.835-2.742z"/></g><path transform="scale(1.3333)" d="m147.01 96.98c-1.406-2.539-2.281-6.23-2.281-10.468v-2.489c0-5.781 1.312-9.98 3.945-12.605 2.625-2.613 6.836-3.922 12.648-3.922h29.106v11.574h-25.789c-3.317 0-4.981 1.649-4.981 4.953v1.657c0 3.308 1.664 4.965 4.981 4.965l13.621 0.105c0 0.117-24.785 5.02-31.25 6.23z"/></g></svg>
