<svg width="500" height="720" version="1.1" viewBox="0 0 500 720" xmlns="http://www.w3.org/2000/svg">
 <g stroke="#000">
  <path transform="scale(1.3333)" d="m208.87 517.65c11.063-5.914 18.488-15.925 23.492-29.273l7.426 2.426-3.789-18.657-17.277 8.192 6.972 4.094c-9.246 22.421-18.488 30.336-28.339 23.355-4.852 0-6.063-32.883-6.668-74.781h13.453l11.058 20.023 61.075 15.774 14.703 21.996c13.937-7.883 25.761-18.961 36.371-32.137l-16.52-16.535 9.246-19.266c5.606 3.188 9.7 1.672 12.125-5.156 3.028 1.215 5.606 0.457 7.727-2.578l17.883-32.766c2.242-5.914 0.605-8.34-3.032-9.554-0.605-3.184-2.425-4.856-5.605-5.157-2.242-2.882-5.305-3.793-9.242-3.336-18.028-27.64 56.855-96.273 27.578-133.03l-26.524-32.14c-8.183-8.645-16.972-8.192-26.214 5.156-9.399-10.008-8.489-19.867 2.726-29.578l-13.453-13.653c-25.516 18.067-48.91-3.09-19.246-19.718-17.738-16.231-47.16-32.973-71.133-20.977-2.121-4.398-6.914-4.809-11.461-2.836-1.668-3.793-3.941-3.945-6.82-1.82-1.969-1.973-4.395-2.731-7.848-2.578-3.484-0.153-5.91 0.605-7.847 2.578-2.875-2.125-5.153-1.973-6.821 1.82-4.543-1.973-8.332-1.82-10.457 2.578-23.957-11.961-54.394 5-72.121 21.235 30.703 17.191 6.797 38.156-19.246 19.718l-13.453 13.653c11.211 9.707 12.121 19.57 2.726 29.578-9.246-13.348-18.035-13.801-26.218-5.156l-26.52 32.14c-30.019 37.684 47.071 103.14 27.578 133.03-3.941-0.453-6.968 0.458-9.242 3.34-3.183 0.301-5.004 1.973-5.605 5.157-3.637 1.214-5.305 3.64-3.032 9.554l17.883 32.766c2.121 3.035 4.696 3.793 7.727 2.578 2.426 6.828 6.515 8.344 12.125 5.156l9.242 19.266-16.516 16.535c10.895 13.656 23.219 25.543 36.371 32.137l14.7-21.996 61.074-15.774 11.062-20.023h13.454c-0.606 41.855-1.817 74.781-6.668 74.781-9.852 6.977-19.059-0.91-28.34-23.355l6.972-4.098-17.277-8.188-3.789 18.657 7.426-2.43c5 13.352 12.426 23.359 23.488 29.277 9.699 4.098 21.332 21.235 21.332 21.235s11.629-17.141 21.328-21.235z" fill="#fff212" stroke-width="1.4948"/>
  <path transform="scale(1.3333)" d="m304.09 281.02c0 73.27-52.199 132.66-116.59 132.66s-116.59-59.395-116.59-132.66c0-73.269 52.199-132.66 116.59-132.66s116.59 59.395 116.59 132.66z" fill="#fff" stroke-width="1.4948"/>
  <path transform="scale(1.3333)" d="m279.06 281.02c0 56.758-40.993 102.77-91.559 102.77s-91.559-46.012-91.559-102.77c0-56.757 40.993-102.76 91.559-102.76s91.559 46.008 91.559 102.76z" fill="#fff212" stroke-width=".7474"/>
  <path transform="scale(1.3333)" d="m27.93 399.6c2.121-1.215 4.859-1.215 5.605 0.148 0.91 1.496-0.457 3.793-2.578 5.156-2.242 1.215-4.848 1.215-5.605-0.304-0.907-1.493 0.304-3.641 2.578-5.004zm-2.426-5.309c2.121-1.211 4.851-1.211 5.605 0.148 0.911 1.497-0.453 3.793-2.574 5.161-2.242 1.21-4.851 1.21-5.605-0.305-0.91-1.496 0.3-3.641 2.574-5.004zm324.31 5.309c-2.121-1.215-4.847-1.215-5.605 0.148-0.906 1.496 0.457 3.793 2.578 5.156 2.242 1.215 4.848 1.215 5.606-0.304 0.91-1.493-0.305-3.641-2.575-5.004zm2.426-5.309c-2.121-1.211-4.847-1.211-5.605 0.148-0.91 1.497 0.453 3.793 2.578 5.161 2.242 1.21 4.847 1.21 5.605-0.305 0.907-1.496-0.304-3.641-2.578-5.004z" fill="#fff212" stroke-width="2.2422"/>
  <path transform="scale(1.3333)" d="m49.223 45.34c22.125 1.496 44.554 2.242 69.711-2.121 13.789-1.973 25.914 2.121 36.976 11.679 6.973 0.911 13.035 3.942 18.641 9.707 14.851 2.883 25.914-5.156 33.797-23.511 8.636-11.957 18.488-18.356 30.004-19.414 27.886-3.946 50.011-12.137 71.378-20.93 1.668 8.191-0.91 16.23-12.882 24.117-11.957 15.172-24.246 22.754-36.977 23.664-7.578 10.465-16.668 16.535-26.824 18.199-4.695 3.641-4.695 6.829 0 9.708l25.156 9.253c7.906 2.907 5.305 6.829-1.058 8.497-14.094 2.121-29.403 0.3-44.407-2.126-8.484-0.746-11.957 1.368-10.304 6.524l3.789 2.125-2.121 2.727c1.062 8.496 11.062 9.253 8.64 15.015l-14.551-1.062c-2.121-5.157 4.243-5.914 0.606-11.829l-3.332 1.059-5.762-6.976 0.457 3.793c-4.547-5.309-8.789-6.352-12.883-5.461v6.523h-2.726l-0.457 5.914c3.183 0.305 4.398 2.43 5.304 4.856l-16.062 5.914c-0.453-4.852 1.211-7.883 4.848-9.25l1.668-6.981h-2.727v-5.914c-15.457-1.367-25.766-6.828-25.156-20.93-6.52 1.973-12.707 0.911-18.793-2.726-6.973 1.972-13.942 0.91-20.914-2.727-11.668-0.457-20.461-2.242-26.219-5.308-14.699-0.91-23.641-8.344-26.824-21.996z" fill="#f8d45c" stroke-width=".7474"/>
  <path transform="scale(1.3333)" d="m310.19 5.418c-22.051 9.344-44.098 16.293-66.258 21.148l7.578 1.063-20.914 10.769h7.578l-11.211 9.102 5.301 0.605-11.821 10.165h4.247l-10.157 9.101 5.91 0.606-11.82 8.644 3.789 1.063-11.82 9.101 1.48 8.891c1.215-3.793 4.43-5.235 10.34-4.035 15.309 2.425 38.641 4.457 44.641 2.875 5.418-1.43 8.926-5.977 0.476-9.243-13.64-4.703-27.656-10.773-27.992-14.113 0.457-3.488 2.809-3.172 3.422-4.547 7.297 0.282 24.824-11.726 26.586-18.508 12.082 0.161 25.004-8.343 38.039-23.816 8.781-4.988 12.398-12.293 12.606-18.871zm-258.72 45.418c22.582 3.941 45.16 3.336 68.015-1.496 14.395-0.91 23.793 2.242 28.489 10.617 1.062 7.102 5.758 11.211 14.398 12.895-7.578 14.562-2.121 20.171 9.094 21.992l-4.246 4.261c-16.063-0.746-25.309-7.597-25.156-20.925-7.536 1.34-12.879 0-18.789-3.188-7.477 2.149-15.434 1.004-21.04-2.336-10.609-0.301-20.003-1.668-26.218-5.304-8.332 0-22.407-6.168-24.578-16.442zm118.96 29.273c0.91-5.605 5.605-8.191 14.547-7.433 4.546 0.75 9.394 0.355 14.246-2.676 2.121 13.195-10.285 7.434-14.528 15.016-3.336-3.336-8.203-4.907-14.265-4.907z" stroke-width=".7474"/>
  <path transform="scale(1.3333)" d="m287.1 22.113c0.75 0 1.496 1.215 1.496 2.578 0 1.368-0.746 2.43-1.496 2.43-0.747 0-1.364-1.062-1.364-2.43 0-1.363 0.606-2.578 1.364-2.578zm-13.454 11.075c1.215 0 2.243 1.214 2.243 2.578 0 1.363-1.059 2.578-2.243 2.578-1.21 0-2.121-1.215-2.121-2.578 0-1.368 0.911-2.578 2.121-2.578zm-11.363 1.363c0.906 0 1.664 0.91 1.664 1.972 0 1.063-0.746 1.973-1.664 1.973-0.91 0-1.668-0.91-1.668-1.973 0-1.062 0.746-1.972 1.668-1.972zm-7.101 8.801c0.746 0 1.363 1.058 1.363 2.425 0 1.364-0.606 2.426-1.363 2.426-0.746 0-1.211-1.062-1.211-2.426 0-1.367 0.453-2.425 1.211-2.425zm-2.122-11.961c1.059 0 1.969 0.91 1.969 2.125 0 1.211-0.91 2.121-1.969 2.121-1.062 0-1.82-0.91-1.82-2.121 0-1.215 0.75-2.125 1.82-2.125zm-5.761 8.496c1.062 0 1.82 1.058 1.82 2.242 0 1.211-0.746 2.121-1.82 2.121-1.059 0-1.817-0.91-1.817-2.121 0-1.215 0.746-2.242 1.817-2.242zm-3.785 9.402c-0.457-0.605-2.121 0.457-3.637 2.125-1.668 1.668-2.426 3.336-1.82 3.945 0.605 0.453 2.242-0.457 3.789-2.125 1.496-1.668 2.242-3.488 1.668-3.945z" fill="#e6e7e8" stroke-width=".3737"/>
 </g>
 <g stroke="#000">
  <path transform="scale(1.3333)" d="m249.39 26.953c-14.246-1.668-25.766 3.793-34.86 16.817-4.543 10.164-9.847 19.113-15.304 26.242m-14.852 14.715 10.91 10.16h-7.101l1.543 4.738m14.398 3.793-5.234 2.184m-24.344-1.082-4.633 0.418m6.641-17.782c2.425-0.304 4.09 0.746 4.847 2.578m-3.789 8.192-6.062-3.094" fill="none" stroke-width=".7474"/>
  <path transform="scale(1.3333)" d="m41.488 389.92c1.364-0.305 2.727 0.746 3.032 1.973 0.148 1.363-0.75 2.878-2.122 3.031-1.367 0.152-2.578-0.746-2.73-2.121-0.301-1.063 0.457-2.731 1.82-2.883zm-5.004-0.61c1.215-0.148 2.731 1.063 3.032 2.243 0.304 1.215-1.059 2.582-2.121 2.883-1.364 0.304-2.575-0.747-2.875-1.973-0.153-1.363 0.605-2.879 1.968-3.184zm-1.492 5.461c1.211-0.3 2.727 0.75 2.875 2.125 0.305 1.368-0.746 2.426-1.969 2.727-1.363 0.305-2.726-0.605-2.878-1.969-0.301-1.367 0.609-2.578 1.972-2.883zm5.153 0.305c1.363-0.305 2.726 0.746 3.031 2.125 0.148 1.211-0.91 2.727-2.121 2.883-1.367 0.301-2.578-0.75-2.879-1.82-0.305-1.368 0.605-3.036 1.969-3.188zm11.515-14.258c1.063 0 2.125 1.063 2.125 2.125 0 1.059-1.062 1.969-2.125 1.969-1.058 0-1.969-0.91-1.969-1.969 0-1.062 0.911-2.125 1.969-2.125zm-3.937-1.062c1.058 0 2.121 1.062 2.121 2.125 0 1.062-1.063 1.972-2.121 1.972-1.063 0-1.973-0.91-1.973-1.972 0-1.063 0.91-2.125 1.973-2.125zm-1.973 3.945c1.062 0 2.121 1.063 2.121 2.121 0 1.063-1.059 1.973-2.121 1.973-1.059 0-1.969-0.91-1.969-1.973 0-1.058 0.91-2.121 1.969-2.121zm4.094 1.063c1.058 0 2.121 1.058 2.121 2.121 0 1.062-1.063 1.972-2.121 1.972-1.063 0-1.973-0.91-1.973-1.972 0-1.063 0.91-2.121 1.973-2.121zm287.34 5.156c-1.364-0.305-2.727 0.746-3.032 1.969-0.148 1.367 0.747 2.882 2.122 3.035 1.363 0.148 2.578-0.746 2.726-2.125 0.305-1.059-0.453-2.727-1.816-2.879zm5-0.61c-1.211-0.148-2.727 1.063-3.032 2.243-0.3 1.215 1.063 2.578 2.122 2.883 1.367 0.304 2.578-0.747 2.878-1.973 0.149-1.363-0.605-2.879-1.968-3.184zm1.496 5.461c-1.215-0.3-2.731 0.75-2.879 2.125-0.301 1.364 0.746 2.426 1.973 2.727 1.363 0.305 2.726-0.605 2.875-1.969 0.304-1.367-0.606-2.578-1.969-2.883zm-5.153 0.305c-1.363-0.305-2.73 0.746-3.031 2.125-0.148 1.211 0.91 2.727 2.121 2.879 1.364 0.305 2.578-0.746 2.879-1.82 0.301-1.364-0.609-3.032-1.972-3.184zm-11.519-14.258c-1.059 0-2.121 1.063-2.121 2.121 0 1.063 1.062 1.973 2.121 1.973 1.062 0 1.973-0.91 1.973-1.973 0-1.058-0.911-2.121-1.973-2.121zm3.941-1.062c-1.062 0-2.121 1.062-2.121 2.125 0 1.062 1.059 1.969 2.121 1.969 1.059 0 1.969-0.907 1.969-1.969 0-1.063-0.91-2.125-1.969-2.125zm1.969 3.945c-1.059 0-2.121 1.059-2.121 2.121 0 1.063 1.062 1.973 2.121 1.973 1.063 0 1.973-0.91 1.973-1.973 0-1.062-0.91-2.121-1.973-2.121zm-4.09 1.059c-1.062 0-2.121 1.062-2.121 2.125 0 1.062 1.059 1.972 2.121 1.972 1.059 0 1.969-0.91 1.969-1.972 0-1.063-0.91-2.125-1.969-2.125z" fill="#fff212" stroke-width="2.2422"/>
  <path transform="scale(1.3333)" d="m160.53 420.41c-18.793-4.699-36.996-14.945-53.371-31.016l-7.472 9.34c-14.551-6.976-24.387-19.168-33.633-37.367l-3.739 13.078-13.078-1.867c18.793 30.488 40.211 50.824 63.7 61.758l6.07-10.883c10.152 7.586 22.121 11.68 34.855 14.41l-6.351 4.25c-4.852-0.148-8.031 1.973-9.547 6.352-5.004-0.301-8.941 1.215-12.578 3.64-3.789-1.972-7.852-3.035-12.125-1.496-4.395-1.968-8.637-2.578-13.336-2.121-1.496-5.765-5-10.164-13.641-11.211l-4.847-5.308c-2.426-9.102-7.102-13.039-14.704-12.59h-8.484l-4.246 3.035c-1.664 10.312 0.457 17.293 8.035 20.176 0.301 5.156 3.637 8.797 10 11.211 2.242 5.461 5.91 7.281 10.004 7.883l6.352 3.187c3.183 7.734 8.183 9.859 14.703 8.492 5.605 5.766 8.636 5.156 11.211 3.793l2.574-5.914c6.668 6.219 11.957 7.43 15.762 3.789l2.121-4.851c10.152 2.242 18.187 0 22.277-8.496 9.547 2.124 14.551-1.668 14.094-12.133 5-2.731 6.82-8.801 6.82-15.93l-17.43-13.195zm53.95 0c18.793-4.699 36.996-13.078 53.375-29.148l6.64 8.531c14.547-6.977 25.219-20.223 34.465-38.426l3.738 13.078h13.078c-18.793 30.489-40.211 48.953-63.703 59.891l-5.429-11.313c-10.157 7.586-22.762 12.11-35.493 14.836l6.352 4.25c4.848-0.152 8.031 1.973 9.547 6.352 5-0.305 8.941 1.215 12.578 3.64 3.789-1.972 7.848-3.035 12.125-1.496 4.395-1.968 8.637-2.578 13.336-2.121 1.496-5.765 5-10.164 13.637-11.211l4.851-5.308c2.426-9.102 7.102-13.043 14.699-12.59h8.489l4.242 3.035c1.668 10.313-0.453 17.293-8.031 20.172-0.305 5.16-3.637 8.801-10.004 11.211-2.242 5.461-5.91 7.281-10 7.887l-6.356 3.183c-3.179 7.738-8.183 9.863-14.699 8.496-5.605 5.766-8.637 5.157-11.211 3.793l-2.574-5.918c-6.672 6.223-11.961 7.434-15.762 3.793l-2.125-4.851c-10.152 2.242-18.183 0-22.277-8.496-9.547 2.125-14.547-1.668-14.094-12.137-5-2.727-6.816-8.797-6.816-15.926l17.425-13.195z" fill="#00a859" stroke-width="1.4948"/>
 </g>
 <g fill="#d2d3d5" stroke="#000" stroke-width=".7474">
  <path transform="scale(1.3333)" d="m153.87 423.96h3.738v5.605h-3.738z"/>
  <path transform="scale(1.3333)" d="m157.6 422.1h5.605v9.34h-5.605z"/>
  <path transform="scale(1.3333)" d="m170.66 418.36h-7.449v16.817h7.469z"/>
  <path transform="scale(1.3333)" d="m170.66 414.62h9.371v24.293h-9.343z"/>
  <path transform="scale(1.3333)" d="m217.47 423.93h3.734v5.605h-3.746z"/>
  <path transform="scale(1.3333)" d="m211.87 422.06h5.605v9.344h-5.605z"/>
  <path transform="scale(1.3333)" d="m204.41 418.32h7.461v16.817h-7.484z"/>
  <path transform="scale(1.3333)" d="m204.41 414.59h-9.363v24.289h9.344z"/>
 </g>
 <g stroke="#000">
  <g stroke-width=".7474">
   <path transform="scale(1.3333)" d="m274.9 250.32c2.426 9.407 4.157 20.391 4.157 30.703 0 55.821-40.735 102.9-90.438 102.9-13.031 0-28.398-3.949-40.066-9.863 8.941-22.602 22.324-42.825 40.507-52.379 13.032-5.008 23.34-17.746 31.219-35.797 11.668-21.539 30.074-33.738 54.625-35.559z" fill="#0098da"/>
   <path transform="scale(1.3333)" d="m261.94 221.18c-16.515-26.242-45.496-42.231-74.437-42.231-22.277 0-44.59 8.707-60.805 25.239 5.754 8.343 14.188 15.695 23.586 21.027 10 6.676 18.309 17.898 25.762 31.551 8.789 20.175 17.277 25.179 25.914 15.472 12.125-30.34 31.34-49.543 59.984-51.058z" fill="#0098da"/>
   <path transform="scale(1.3333)" d="m124.31 355.39c-17.273-18.657-28.371-46.961-28.371-74.262 0-17.899 4.907-37.172 12.637-52.188 22.125 9.407 35.375 20.485 36.25 31.254 7.274 13.805 16.063 23.059 25.309 31.551 7.101 6.219 6.211 12.137-2.578 17.899-9.7 4.55-17.883 12.136-23.914 22.906-2.879 7.433-10.243 15.863-19.336 22.84z" fill="#00a859"/>
  </g>
  <path transform="scale(1.3333)" d="m119.81 311.51-5.003 0.453-4.09 6.07 5 0.91 1.668 4.399 5.304-6.981zm15.458 0 5 0.453 4.093 6.07-5.004 0.91-1.664 4.399-5.304-6.981zm-13.454-38.074-6.668 3.792-1.21-9.859 7.847 6.067zm14.094 0 6.668 3.792 1.211-9.859-7.848 6.067zm-20.308 29.578c13.64-11.68 27.582-16.231 41.98-16.989 2.875 1.496 2.242 3.641-1.82 6.352-15.305 5.008-24.399 5.309-27.125 1.82l-13.035 8.801zm25.007 0.457c-11.961-11.211-24.703-16.071-38.191-17.567-2.875 1.063-2.422 3.188 1.367 5.766 13.938 5.305 22.422 6.066 25.156 3.183l11.668 8.649z" stroke-width=".3737"/>
 </g>
 <path transform="scale(1.3333)" d="m333.91 417.61c-9.852-2.73-15.609-7.738-18.945-14.715-3.485 1.668-5.606 7.586-6.516 17.141 3.031 0.91 6.063 0.746 9.094-0.305l3.937 3.036" fill="none" stroke="#000" stroke-width="1.4948"/>
 <g fill="#fff212">
  <path transform="scale(1.3333)" d="m239.74 280.93h12.57l3.899-11.981 3.879 11.981h12.566l-10.172 7.453 3.868 12.004-10.141-7.407-10.195 7.407 3.879-12.004z"/>
  <path transform="scale(1.3333)" d="m187.5 413.61c3.184 0.91 6.352-1.062 9.395-9.554 5.605 6.671 10.914 8.949 16.214 6.523 5.758 3.336 10.157 1.82 13.793-4.551-6.82 3.031-11.367 1.821-14.398-3.793l3.332-6.676 10.609-4.093c13.035 5.304 20.914 1.363 24.098-11.68l11.367-7.738c11.668-4.094 18.789-11.211 15.61-24.574l4.394-8.34c11.82-5.766 14.699-14.715 8.941-26.242l1.665-10.012c10.156-8.797 10.46-18.199 1.062-28.215l-0.301-9.102c6.969-11.527 7.426-21.234-5.457-26.847l-1.668-8.949c4.242-11.68 0.606-19.872-10.91-24.575l-6.351-6.351c-0.61-13.5-5.61-22.297-20.766-20.778l-7.848-5.007c-4.242-9.403-11.515-12.59-21.367-11.957l-5.305 11.832c7.426 8.796 15.309 12.707 24.852 6.066l8.031 4.703c0 11.074 5.754 16.988 16.668 17.445l6.063 8.797c-2.731 10.164 1.058 17.746 10.757 22.754l1.668 7.735c-5.605 8.949-5 17.293 5 25.179v10.164c-8.789 8.344-8.941 16.989-0.453 25.785l-2.242 11.376c-11.211 3.488-12.125 12.289-8.031 23.511l-3.637 7.434c-10.914 2.125-16.215 9.402-15.762 22.144l-9.246 7.739c-10.757-3.946-17.273 1.211-21.367 11.07l-10.91 3.793-6.668-5.156c0.148-2.727 1.363-4.399 4.09-5.309l12.277-5.461c-2.879-5.305-7.578-7.098-14.551-5.305-8.031 0.305-12.878 3.489-13.937 10.012-1.973-3.64-4.82-4.855-8.641-4.855-3.812 0-6.668 1.215-8.636 4.855-1.059-6.523-5.911-9.707-13.938-10.012-6.973-1.82-11.672 0-14.551 5.305l12.278 5.461c2.726 0.91 3.937 2.582 4.089 5.309l-6.667 5.156-10.911-3.793c-4.093-9.859-10.609-15.016-21.367-11.07l-9.246-7.739c0.453-12.703-4.851-20.019-15.762-22.144l-3.636-7.434c4.089-11.211 3.183-20.023-8.032-23.511l-2.242-11.376c8.489-8.796 8.332-17.445-0.453-25.785v-10.164c10-7.886 10.606-16.23 5-25.179l1.668-7.735c9.699-5.008 13.453-12.59 10.758-22.754l6.062-8.797c10.911-0.457 16.668-6.355 16.668-17.445l8.032-4.703c9.546 6.676 17.425 2.727 24.851-6.066l-5.305-11.832c-9.851-0.606-17.125 2.578-21.367 11.957l-7.847 5.007c-15.157-1.496-20.157 7.282-20.766 20.778l-6.352 6.351c-11.515 4.703-15.156 12.895-10.91 24.575l-1.668 8.949c-12.882 5.605-12.425 15.32-5.457 26.847l-0.301 9.102c-9.398 10.012-9.093 19.418 1.059 28.215l1.668 10.012c-5.754 11.527-2.879 20.476 8.941 26.242l4.395 8.34c-3.184 13.351 3.941 20.48 15.609 24.574l11.368 7.738c3.183 13.039 11.062 16.988 24.097 11.68l10.606 4.093 3.336 6.676c-3.032 5.606-7.579 6.824-14.399 3.793 3.637 6.352 8.035 7.883 13.789 4.551 5.305 2.426 10.61 0.148 16.219-6.523 3.027 8.492 6.211 10.464 9.395 9.554m-70.926-225.41c2.578-2.125 5.605-3.184 6.515-2.242 0.911 1.062-0.605 3.793-3.179 6.066-2.578 2.242-5.305 3.34-6.215 2.242-0.91-0.91 0.305-3.64 2.879-6.066zm30.613-18.355c3.184-1.059 6.352-0.911 6.82 0.304 0.453 1.367-1.972 3.336-5.152 4.551-3.336 1.063-6.215 1.063-6.668-0.305-0.457-1.211 1.664-3.336 5-4.55zm-51.828 47.023c1.969-2.578 4.699-4.398 5.758-3.789 1.211 0.746 0.304 3.637-1.492 6.519-1.821 2.731-4.247 4.399-5.458 3.641-1.062-0.605-0.605-3.488 1.211-6.351zm-8.184 29.43c1.817 0 3.032 2.879 2.727 6.218-0.301 3.336-2.121 6.067-3.942 6.067-1.816 0-3.027-2.727-2.726-6.067 0.305-3.339 2.121-6.218 3.941-6.218zm-1.82 36.707c1.82 0 3.184 2.883 3.184 6.218-0.149 3.336-1.821 6.067-3.637 6.067-1.82 0-3.184-2.727-3.031-6.067 0-3.335 1.668-6.218 3.484-6.218zm2.879 35.343c1.496 0 3.789 3.184 4.848 6.977 1.214 3.793 0.91 6.828-0.606 6.828-1.492 0-3.484-3.035-4.695-6.828-1.063-3.793-1.063-6.977 0.453-6.977zm14.398 32.887c1.664-0.304 5.301 2.121 7.727 5.606 2.578 3.336 3.184 6.351 1.496 6.672-1.82 0.457-5-1.969-7.578-5.305-2.574-3.488-3.484-6.524-1.668-6.977zm28.774 27c1.496-1.062 5.605 0.301 9.094 3.031 3.332 2.731 4.847 5.606 3.332 6.676-1.668 1.063-5.454-0.304-8.942-3.035-3.332-2.726-5.152-5.762-3.484-6.672zm127-190.07c-2.578-2.125-5.606-3.188-6.52-2.242-0.906 1.062 0.61 3.793 3.184 6.066 2.578 2.242 5.305 3.336 6.215 2.242 0.906-0.91-0.305-3.64-2.879-6.066zm-30.613-18.356c-3.184-1.062-6.356-0.91-6.821 0.305-0.453 1.363 1.969 3.336 5.153 4.551 3.335 1.062 6.214 1.062 6.668-0.305 0.453-1.211-1.668-3.336-5-4.551zm51.828 47.024c-1.969-2.578-4.7-4.399-5.758-3.793-1.215 0.75-0.305 3.64 1.492 6.523 1.82 2.727 4.246 4.399 5.457 3.641 1.059-0.606 0.605-3.488-1.211-6.352zm8.183 29.426c-1.82 0-3.031 2.882-2.726 6.222 0.3 3.336 2.121 6.067 3.937 6.067 1.82 0 3.031-2.731 2.731-6.067-0.305-3.34-2.121-6.222-3.942-6.222zm1.821 36.71c-1.821 0-3.184 2.883-3.184 6.219 0.148 3.336 1.816 6.067 3.637 6.067 1.816 0 3.183-2.727 3.031-6.067 0-3.336-1.668-6.219-3.484-6.219zm-2.879 35.344c-1.496 0-3.789 3.184-4.852 6.977-1.211 3.793-0.906 6.824 0.609 6.824 1.493 0 3.485-3.031 4.696-6.824 1.062-3.793 1.062-6.977-0.453-6.977zm-14.399 32.883c-1.664-0.301-5.304 2.125-7.726 5.605-2.578 3.34-3.184 6.356-1.496 6.676 1.82 0.457 5-1.972 7.578-5.304 2.574-3.493 3.484-6.524 1.668-6.981zm-28.773 27c-1.496-1.059-5.606 0.305-9.094 3.035-3.332 2.727-4.848 5.606-3.332 6.676 1.664 1.059 5.453-0.305 8.941-3.035 3.332-2.727 5.153-5.766 3.485-6.676z" stroke="#000" stroke-width="1.4948"/>
  <path transform="scale(1.3333)" d="m179.83 393.77-0.348-11.211c3.032-3.793 7.465-1.821 9.133 1.367 0.149 3.183-2.988 6.351-8.781 9.859zm12.422 2.578-0.148 11.211c-0.059 4.273-6.727 2.093-7.731-1.364-0.875-3.066 2.121-6.355 7.848-9.859z" stroke="#000" stroke-width="1.4948"/>
 </g>
 <path transform="scale(1.3333)" d="m57.926 316.35v-19.872c3.336-0.75 5.91-2.429 7.273-5.156 0.75-2.578 2.426-4.097 5.004-4.551 5.301-0.91 8.942-3.488 10.457-7.738-3.637 1.215-6.972 1.973-10.457 0.75-3.637 0.149-6.519 1.668-8.031 5.762-1.496 3.187-3.031 3.641-4.547 1.062-1.063-2.726-2.73-3.035-3.336 0.149-1.816 1.668-3.789 0.75-5.91-2.578 6.215-0.453 9.699-3.184 12.578-6.352 2.426-4.098 3.484-8.648 2.578-14.258-1.973-4.855-4.394-8.648-9.246-10.465v-6.675c2.426-3.336 2.426-5.305 0-5.606v-6.219c2.426-4.093 2.426-6.218 0-6.976v-7.281c1.211-3.641 1.668-6.219-0.91-6.219-3.18-5.766-5.453-5.461-6.817 1.215l0.149 3.64c-2.121 3.336-2.242 5.762 0.148 6.672l0.149 5.461c-1.817 3.488-1.817 5.918 0.152 6.977l0.149 5.918c-2.243 3.941-2.121 5.761 0.148 6.066l0.148 2.242c-5.605 0.457-10 2.883-12.578 6.977-3.179 6.355-3.332 12.137 0.153 17.293 1.363 2.43 2.726 4.398 4.695 5.918-3.637 0.91-6.82 0.605-9.547-1.063 2.578 5.157 6.356 8.192 11.063 9.403-4.094 4.55-5.457 9.558-3.637 14.867-0.91 6.066 0.301 10.769 2.726 14.863 0.458 4.856 2.122 6.981 4.094 8.043 0.746 4.852 1.969 6.672 3.485 6.824 2.121 4.246 4.242 6.352 6.351 6.825 2.578 3.339 5.004 5.46 7.426 6.222 1.973 1.363 3.941 2.727 5.91 4.246 2.121 1.668 4.246 2.125 6.356 1.821 2.425 0.605 3.937 0.148 5.152-1.063-0.75-2.125-2.426-3.945-5-4.855l2.422-4.246 1.215-5.305c0.3-2.582-0.457-4.703-2.121-6.07 0.906-2.426 0.746-5.305-0.153-8.493-0.91-1.496-3.031-3.339-9.242-4.097-2.879 0.91-5.605-5.762-8.484-4.094zm-14.094-23.664c3.184 3.64 6.82 3.792 10.457 3.792v17.442c-1.969-0.149-3.484-1.492-4.547-3.641-1.058-2.578-3.183-4.398-5.754-4.851 0.453-2.731 0-5.606-1.363-8.039l1.211-4.703zm3.789-19.266c1.668 0 3.031 1.367 3.031 3.035s-1.363 2.883-3.031 2.883-2.879-1.215-2.879-2.883 1.215-3.035 2.879-3.035zm8.488-6.52c1.664 0 3.032 1.364 3.032 3.032s-1.368 2.882-3.032 2.882c-1.668 0-2.879-1.214-2.879-2.882s1.211-3.032 2.879-3.032zm-6.972-8.949c1.668 0 3.031 1.363 3.031 3.031s-1.363 2.883-3.031 2.883-2.879-1.215-2.879-2.883 1.215-3.031 2.879-3.031zm-8.942 7.883c1.668 0 3.032 1.367 3.032 3.035s-1.364 2.883-3.032 2.883-2.879-1.215-2.879-2.883 1.215-3.035 2.879-3.035z" fill="#00a859" stroke="#000" stroke-width="1.4948"/>
 <g fill="none" stroke="#000" stroke-width="1.4948">
  <path transform="scale(1.3333)" d="m322.11 452.37c-10.308 12.438-22.125 22.602-34.707 31.856"/>
  <path transform="scale(1.3333)" d="m312.41 438.99c-4.394 4.856-8.637 6.219-12.707 5.461l1.063-6.824"/>
  <path transform="scale(1.3333)" d="m208.6 444.93-3.633-7.325"/>
  <path transform="scale(1.3333)" d="m293.31 461.9 0.911-7.434"/>
  <path transform="scale(1.3333)" d="m240.73 470.27 8.64-1.231"/>
  <path transform="scale(1.3333)" d="m207.99 461.45c-6.816 18.047-3.789 26.391 14.703 20.324"/>
  <path transform="scale(1.3333)" d="m355.91 371.96c-0.152 4.246-3.336 3.641-7.277 2.125-4.09-2.883-6.668-6.523-8.481-10.316"/>
  <path transform="scale(1.3333)" d="m350.3 367.26c-2.242 0.148-3.942 1.492-4.547 4.398"/>
  <path transform="scale(1.3333)" d="m279.67 145.04c-11.363-11.379-25.199-17.527-41.067-20.93-11.718-2.511-20.855-2.457-25.007 5.157-4.11 7.547-1.036 14.843 6.82 15.777 5.172 0.617 8.031-3.184 6.215-8.949-2.121 4.551-5.578 6.488-8.793 3.336-4.629-4.543-1.324-12.449 6.519-11.68 7.723 0.75 12.121 7.434 7.579 17.293-4.247 7.734-12.028 7.809-20.309 3.035-5.727-3.304-7.457-9.957-6.063-17.14 0.743-3.813 3.696-6.957 8.094-10.598"/>
  <path transform="scale(1.3333)" d="m218.3 461.75c2.426-3.488 7.426-3.488 15.156-0.605-10.762-2.125-18.641-6.219-20.461-15.473 5.91-0.91 11.52 1.062 16.668 5.766-4.242-4.098-5.152-7.434-2.242-9.407"/>
  <path transform="scale(1.3333)" d="m220.39 456.59c-6.516 0-12.125-2.242-15.914-11.074 3.789-0.746 7.273-0.746 10.609 0-2.242-2.727-3.336-5.461-2.879-8.192l10.457 0.75"/>
  <path transform="scale(1.3333)" d="m165.2 367.34c5.153 3.941 8.442 12.375 7.637 23.426-0.719 9.847-5.922 15.847-10.77 19.488"/>
  <path transform="scale(1.3333)" d="m166.74 382.93c0.746 6.523-0.965 13.078-4.597 19.925"/>
  <path transform="scale(1.3333)" d="m178.16 404.23c2.176-5.8 1.422-8.968 1.301-15.113-0.105-5.183-0.203-8.652-0.746-12.547"/>
  <path transform="scale(1.3333)" d="m188.52 383.79-4.27 21.785"/>
  <path transform="scale(1.3333)" d="m192.23 396.84 2.989-8.785"/>
  <path transform="scale(1.3333)" d="m211.4 367.02c-5.152 3.946-7.543 12.696-6.726 23.747 0.719 9.847 4.043 16.398 8.894 20.039"/>
  <path transform="scale(1.3333)" d="m208.26 382.93c-0.746 6.523 0.859 12.929 4.484 19.754"/>
  <path transform="scale(1.3333)" d="m196.9 404.05c-2.243-8.949-1.969-18.199-0.747-26.695"/>
  <path transform="scale(1.3333)" d="m119.64 311.44 19.547-36.711"/>
  <path transform="scale(1.3333)" d="m135.1 311.13-16.973-36.402"/>
  <path transform="scale(1.3333)" d="m179.95 115.46 3.945 15.469"/>
  <path transform="scale(1.3333)" d="m172.98 117.43 4.852 15.468"/>
  <path transform="scale(1.3333)" d="m60.066 203.13c1.496 7.887-2.875 11.527-4.695 17.293"/>
  <path transform="scale(1.3333)" d="m14.617 237.87c-22.558 47.035 41.649 77.469 28.492 125.44-4.093 14.926-15.461 18.051-25.918 17.567"/>
  <path transform="scale(1.3333)" d="m20.383 371.96c0.359 10.078 11.773-1.656 14.66-7.672"/>
  <path transform="scale(1.3333)" d="m25.797 367.62c2.242 0.152 3.062 0.527 4.73 3.035"/>
  <path transform="scale(1.3333)" d="m42.801 417.61c9.851-2.73 15.609-7.738 18.945-14.715 3.484 1.668 5.606 7.586 6.516 17.141-3.032 0.91-6.063 0.746-9.094-0.305l-3.938 3.036"/>
  <path transform="scale(1.3333)" d="m59.02 419.59c3.488-4.856 3.183-8.344-1.493-10.317"/>
  <path transform="scale(1.3333)" d="m54.172 452.37c10.305 12.438 22.121 22.602 34.703 31.856"/>
  <path transform="scale(1.3333)" d="M 94.637,406.852 119,423.48"/>
  <path transform="scale(1.3333)" d="m112.67 434.2-18.594-27.988 5.606-7.473"/>
  <path transform="scale(1.3333)" d="m53.41 313.26 5.156 2.726"/>
  <path transform="scale(1.3333)" d="m54.461 341.92c-1.664-3.641-1.492-7.734-0.149-12.133"/>
  <path transform="scale(1.3333)" d="m50.078 310.83c-1.816 1.059-2.242 2.879-1.969 6.067"/>
  <path transform="scale(1.3333)" d="m37.5 305.37 2.277-5.762"/>
  <path transform="scale(1.3333)" d="m40.379 319.93c-0.746-3.942-0.606-6.52 0.609-7.735"/>
  <path transform="scale(1.3333)" d="m44.473 328.43c-0.746-3.188-0.301-5.766 0.91-7.102"/>
  <path transform="scale(1.3333)" d="m48.109 335.4 0.907-5.003"/>
  <path transform="scale(1.3333)" d="m64.02 319.93c-2.727 0-4.543 0.91-6.059 3.34"/>
  <path transform="scale(1.3333)" d="m58.109 315.98c-2.879-0.304-4.547 0.149-5.605 1.668"/>
  <path transform="scale(1.3333)" d="m43.863 292.78c1.496-3.035 0.91-5.308-2.574-2.125"/>
  <path transform="scale(1.3333)" d="m39.141 282.46c3.031-0.91 6.351-0.457 9.394 1.492"/>
  <path transform="scale(1.3333)" d="m54.324 245.9-7.426 4.109"/>
  <path transform="scale(1.3333)" d="m54.324 240.45-7.426 4.09"/>
  <path transform="scale(1.3333)" d="m54.172 233.92-6.82 5.008"/>
  <path transform="scale(1.3333)" d="m53.867 227.1-6.82 4.972"/>
  <path transform="scale(1.3333)" d="m54.02 220.57-6.821 5.008"/>
  <path transform="scale(1.3333)" d="m53.262 213.9-6.821 5.008"/>
  <path transform="scale(1.3333)" d="m54.461 252.88c-2.242-0.91-4.848-1.211-7.578-0.746"/>
  <path transform="scale(1.3333)" d="m21.738 246.36c6.356 0.746 9.922-1.363 9.852-6.675-0.078-5.922-3.863-8.86-10.152-6.672-8.2 2.847-10.633 9.804-5.606 16.383 4.949 6.476 12.926 6.8 20.609 1.82 8.27-5.36 10.778-15.09 3.184-23.512-8.203-9.098-18.793-7.754-28.34-1.082"/>
  <path transform="scale(1.3333)" d="m65.387 419.29c5.453 7.586 11.211 12.137 16.664 11.961"/>
  <path transform="scale(1.3333)" d="m55.082 422.77c7.102 6.824 14.094 9.707 20.004 6.675"/>
  <path transform="scale(1.3333)" d="m63.871 438.99c4.395 4.856 8.641 6.219 12.707 5.461l-1.062-6.824"/>
  <path transform="scale(1.3333)" d="m73.113 454.94c0.606-4.703 0.606-8.039-0.301-10.465 3.938 6.981 8.184 11.532 14.547 10.622 1.063-4.704-0.91-9.102-6.214-13.352 6.062 7.434 12.882 9.406 19.855 6.523"/>
  <path transform="scale(1.3333)" d="m89.637 465.56c3.027 1.668 6.058 1.214 9.09-1.368-1.817-3.941-5.606-7.097-10.758-10.16 5.304 4.699 10.91 5.762 16.668 2.578-3.184-2.242-4.547-5.156-4.547-8.191"/>
  <path transform="scale(1.3333)" d="m114.34 450.98 3.031 4.856c-5.605 2.879-10.004 3.031-12.883 0.453 4.094 2.242 6.668 5.156 7.578 8.949-4.847 2.883-9.093 2.426-13.453-1.215l5.754 9.254"/>
  <path transform="scale(1.3333)" d="m122.97 465.56c7.425 0.91 12.277-1.215 14.699-6.676-3.332-1.969-6.516-2.426-10.152-1.363"/>
  <path transform="scale(1.3333)" d="m137.94 448.48c1.063 3.641 0.641 6.895-2.539 9.477 3.637-5.309 8.637-7.102 15.157-6.07-0.61 7.101-5.457 10.164-14.551 9.711l8.183 1.058c0.606 3.946-1.211 6.676-5.304 8.192"/>
  <path transform="scale(1.3333)" d="m157.98 461.75c-2.422-3.488-7.426-3.488-15.153-0.605 10.758-2.125 18.641-6.219 20.457-15.473-5.91-0.91-11.515 1.062-16.668 5.766 4.246-4.098 5.157-7.434 2.242-9.407"/>
  <path transform="scale(1.3333)" d="m155.86 456.59c6.516 0 12.121-2.242 15.911-11.074-3.79-0.746-7.274-0.746-10.606 0 2.242-2.727 3.332-5.461 2.875-8.192l-10.457 0.75"/>
  <path transform="scale(1.3333)" d="m167.68 444.93 3.64-7.325"/>
  <path transform="scale(1.3333)" d="m71.75 430.8c2.875 7.734 7.848 11.957 15.91 11.832l-1.969-7.102"/>
  <path transform="scale(1.3333)" d="m61.562 428.07c2.575 5.008 2.879 9.864 1.817 15.02"/>
  <path transform="scale(1.3333)" d="m82.965 461.9-0.91-7.434"/>
  <path transform="scale(1.3333)" d="m108.43 466.75c4.543 5.308 10.758 6.219 18.64 2.578l-16.214-6.68s13.636-1.054 16.668-5.152l-1.364-5.605"/>
  <path transform="scale(1.3333)" d="m135.55 470.27-8.637-1.231"/>
  <path transform="scale(1.3333)" d="m168.29 461.45c6.82 18.047 3.789 26.391-14.703 20.324"/>
  <path transform="scale(1.3333)" d="m75.391 332.37c0-2.883-1.368-5.461-5.153-7.433-4.547-1.821-8.035-0.911-10.457 2.125-2.578 6.976-1.062 13.953 2.242 21.234"/>
  <path transform="scale(1.3333)" d="m36.59 285.5c3.941-0.605 6.972-0.148 9.699 1.367 2.125 2.727 4.547 4.399 6.668 4.852"/>
  <path transform="scale(1.3333)" d="m73.57 282.77c-3.941 0-6.82 0.91-9.246 2.882-1.668 3.032-3.789 5.157-5.91 5.914"/>
  <path transform="scale(1.3333)" d="m237.4 448.7c-1.063 3.641 0.3 6.676 3.484 9.254-3.637-5.305-8.637-7.102-15.156-6.066 0.605 7.101 5.457 10.164 14.55 9.707l-8.183 1.062c-0.61 3.945 1.211 6.676 5.305 8.192"/>
  <path transform="scale(1.3333)" d="m253.27 465.56c-7.425 0.91-12.277-1.215-14.703-6.676 3.336-1.969 6.52-2.426 10.157-1.363"/>
  <path transform="scale(1.3333)" d="m267.85 466.75c-4.547 5.308-10.762 6.219-18.641 2.578 3.789-4.398 9.09-6.672 15.91-6.977-7.847 1.063-13.336-0.746-16.367-4.855l1.363-5.605"/>
  <path transform="scale(1.3333)" d="m261.94 450.98-3.031 4.856c5.606 2.879 10.004 3.031 12.883 0.453-4.094 2.242-6.668 5.156-7.578 8.949 4.847 2.883 9.094 2.426 13.453-1.215l-5.758 9.254"/>
  <path transform="scale(1.3333)" d="m286.64 465.56c-3.032 1.668-6.063 1.214-9.094-1.368 1.816-3.941 5.605-7.097 10.758-10.16-5.301 4.699-10.911 5.762-16.664 2.578 3.179-2.242 4.543-5.156 4.543-8.191"/>
  <path transform="scale(1.3333)" d="m303.16 454.94c-0.605-4.703-0.605-8.039 0.305-10.465-3.942 6.981-8.184 11.532-14.551 10.622-1.059-4.704 0.91-9.102 6.215-13.352-6.063 7.434-12.883 9.406-19.852 6.523"/>
  <path transform="scale(1.3333)" d="m304.53 430.8c-2.875 7.734-7.847 11.957-15.91 11.832l1.969-7.102"/>
  <path transform="scale(1.3333)" d="m314.68 428.07c-2.579 5.008-2.879 9.864-1.821 15.02"/>
  <path transform="scale(1.3333)" d="m321.2 422.77c-7.101 6.824-14.094 9.707-20.004 6.675"/>
  <path transform="scale(1.3333)" d="m310.9 419.29c-5.457 7.586-11.211 12.137-16.668 11.961"/>
  <path transform="scale(1.3333)" d="m317.26 419.59c-3.488-4.856-3.184-8.344 1.492-10.317"/>
  <path transform="scale(1.3333)" d="m315.18 203.72c-1.496 7.886 3.898 10.941 5.715 16.707"/>
  <path transform="scale(1.3333)" d="m361.64 237.87c21.886 45.633-42.165 85.071-28.489 125.44 4.965 14.661 15.457 18.051 25.914 17.567"/>
  <path transform="scale(1.3333)" d="m354.54 246.36c-6.355 0.746-9.922-1.363-9.851-6.675 0.078-5.922 3.863-8.86 10.152-6.672 8.199 2.847 10.633 9.804 5.605 16.383-4.949 6.476-12.925 6.8-20.609 1.82-8.27-5.36-10.777-15.09-3.184-23.512 8.203-9.098 18.239-6.879 27.786-0.203"/>
  <path transform="scale(1.3333)" d="m203.29 117.43-4.848 15.468"/>
  <path transform="scale(1.3333)" d="m196.32 115.46-3.965 15.469"/>
  <path transform="scale(1.3333)" d="m274.49 399.78 6.438 8.297-18.864 26.273"/>
  <path transform="scale(1.3333)" d="m280.93 408.08-24.289 14.949"/>
  <path transform="scale(1.3333)" d="m96.605 145.04c11.364-11.379 25.204-17.527 41.071-20.93 11.715-2.511 20.851-2.457 25.004 5.157 4.109 7.547 1.035 14.84-6.821 15.777-5.171 0.617-8.031-3.184-6.211-8.949 2.122 4.551 5 5.765 8.79 3.336 3.937-5.156 1.265-12.442-6.52-11.68-7.781 0.75-12.426 7.582-7.574 17.293 3.941 7.891 12.023 7.809 20.304 3.035 5.727-3.301 7.457-9.957 6.063-17.14-0.742-3.817-3.484-7.102-7.848-10.77"/>
 </g>
 <g>
  <path transform="scale(1.3333)" d="m286.12 404.5 1.606-1.609c0.363-0.36 0.668-0.61 0.914-0.746 0.328-0.18 0.683-0.266 1.058-0.254 0.371 0 0.746 0.105 1.121 0.289 0.372 0.183 0.746 0.48 1.172 0.89 0.36 0.36 0.621 0.707 0.793 1.063 0.207 0.426 0.309 0.836 0.305 1.234 0 0.301-0.094 0.625-0.274 0.969-0.128 0.254-0.359 0.547-0.687 0.871l-1.652 1.656-4.36-4.359zm1.617-0.144 2.887 2.89 0.656-0.656c0.246-0.246 0.371-0.438 0.493-0.574 0.105-0.18 0.164-0.36 0.171-0.539 0-0.18-0.054-0.371-0.191-0.653-0.133-0.254-0.371-0.55-0.707-0.886s-0.625-0.567-0.867-0.688c-0.238-0.121-0.465-0.18-0.672-0.172-0.207 0-0.41 0.074-0.609 0.203-0.153 0.094-0.375 0.321-0.75 0.68l-0.372 0.375zm7.137 0.101-4.359-4.363 3.23-3.235 0.738 0.743-2.347 2.351 0.965 0.965 2.187-2.187 0.735 0.734-2.188 2.187 1.184 1.188 2.437-2.434 0.735 0.735zm7.707-7.711-0.836 0.836-3.148-3.152c0 0.594-0.168 1.164-0.446 1.715l-0.75-0.75c0.149-0.289 0.25-0.661 0.305-1.114 0.059-0.457 0-0.867-0.172-1.226l0.68-0.68 4.375 4.383zm-0.375-4.32c-0.308 0.125-0.59 0.156-0.848 0.094-0.257-0.063-0.48-0.188-0.671-0.375-0.325-0.325-0.481-0.707-0.465-1.121 0-0.438 0.23-0.868 0.648-1.29 0.41-0.41 0.844-0.628 1.281-0.644 0.446 0 0.825 0.137 1.122 0.461 0.203 0.203 0.332 0.437 0.375 0.699 0.054 0.262 0 0.531-0.083 0.805 0.336-0.145 0.665-0.188 0.977-0.125 0.313 0.058 0.59 0.211 0.832 0.457 0.375 0.371 0.606 0.859 0.598 1.367 0 0.508-0.219 0.977-0.645 1.402-0.375 0.375-0.832 0.621-1.304 0.68-0.555 0.063-1.047-0.117-1.477-0.547-0.234-0.234-0.375-0.512-0.473-0.82-0.082-0.317-0.05-0.653 0.098-1.012zm-0.668-1.016c0.164 0.168 0.344 0.25 0.527 0.246 0.188 0 0.36-0.078 0.52-0.234 0.156-0.16 0.238-0.332 0.238-0.523 0-0.188-0.082-0.368-0.25-0.532-0.156-0.16-0.328-0.238-0.515-0.238-0.188 0-0.36 0.074-0.516 0.234-0.16 0.161-0.238 0.336-0.242 0.524 0 0.187 0.078 0.363 0.238 0.519zm1.789 1.942c0.231 0.23 0.469 0.351 0.715 0.363 0.246 0 0.457-0.07 0.633-0.246 0.172-0.176 0.254-0.375 0.242-0.617 0-0.235-0.133-0.473-0.367-0.707-0.203-0.203-0.426-0.309-0.664-0.321-0.238 0-0.445 0.075-0.621 0.254-0.207 0.203-0.285 0.426-0.246 0.668 0.039 0.238 0.144 0.442 0.308 0.606zm2.242-4.321c-0.308 0.125-0.589 0.157-0.847 0.098-0.258-0.063-0.485-0.187-0.672-0.375-0.324-0.324-0.481-0.707-0.465-1.121 0-0.441 0.23-0.871 0.648-1.289 0.411-0.41 0.844-0.629 1.282-0.645 0.441 0 0.824 0.137 1.121 0.461 0.203 0.203 0.328 0.434 0.375 0.699 0.051 0.262 0 0.532-0.082 0.805 0.336-0.144 0.664-0.187 0.976-0.125 0.313 0.059 0.59 0.211 0.832 0.457 0.375 0.371 0.602 0.856 0.598 1.367 0 0.508-0.219 0.973-0.648 1.403-0.372 0.371-0.829 0.621-1.301 0.679-0.559 0.063-1.051-0.117-1.477-0.546-0.238-0.235-0.375-0.512-0.476-0.825-0.078-0.312-0.047-0.648 0.097-1.008zm-0.668-1.011c0.164 0.164 0.34 0.25 0.528 0.246 0.187 0 0.359-0.078 0.515-0.235 0.161-0.16 0.239-0.332 0.243-0.523 0-0.188-0.082-0.367-0.25-0.535-0.157-0.157-0.329-0.235-0.516-0.235-0.188 0-0.359 0.075-0.516 0.235-0.16 0.16-0.242 0.336-0.242 0.519 0 0.188 0.078 0.364 0.238 0.524zm1.79 1.941c0.23 0.231 0.468 0.352 0.714 0.363 0.246 0 0.457-0.07 0.633-0.25 0.172-0.172 0.254-0.371 0.242-0.613 0-0.238-0.132-0.473-0.367-0.707-0.203-0.203-0.426-0.312-0.664-0.32-0.238 0-0.445 0.074-0.625 0.254-0.203 0.203-0.285 0.425-0.242 0.664 0.035 0.242 0.141 0.445 0.309 0.609zm2.91-2.242 0.718-0.895c0.184 0.141 0.36 0.211 0.52 0.207 0.164 0 0.312-0.074 0.449-0.211 0.172-0.171 0.238-0.371 0.199-0.675 0-0.282-0.285-0.688-0.746-1.223 0 0.457-0.105 0.84-0.422 1.121-0.343 0.344-0.746 0.508-1.285 0.492-0.511 0-0.98-0.234-1.406-0.66-0.441-0.441-0.664-0.93-0.672-1.465 0-0.531 0.192-1.004 0.598-1.41 0.441-0.441 0.976-0.633 1.601-0.578 0.625 0.062 1.328 0.48 2.114 1.266 0.796 0.796 1.222 1.492 1.281 2.168 0.055 0.648-0.149 1.207-0.625 1.679-0.344 0.34-0.707 0.524-1.098 0.555-0.375 0-0.801-0.109-1.219-0.375zm0.062-3.719c-0.269-0.269-0.539-0.418-0.812-0.441-0.274 0-0.489 0.043-0.653 0.207-0.152 0.152-0.222 0.343-0.203 0.566 0 0.223 0.168 0.477 0.449 0.746 0.282 0.281 0.543 0.434 0.786 0.453 0.242 0 0.445-0.05 0.613-0.215 0.16-0.164 0.234-0.363 0.215-0.597 0-0.238-0.149-0.481-0.375-0.727z"/>
  <path transform="scale(1.3333)" d="m225.45 429.83 0.164 1.078-3.175 0.793c0-0.418 0-0.828 0.132-1.234 0.118-0.375 0.375-0.977 0.801-1.707 0.336-0.586 0.535-0.981 0.598-1.176 0.086-0.274 0.109-0.524 0.078-0.75-0.039-0.258-0.125-0.441-0.254-0.555-0.129-0.113-0.289-0.144-0.481-0.097-0.187 0.046-0.328 0.16-0.417 0.332-0.09 0.175-0.118 0.433-0.086 0.746l-0.918 0.109c-0.043-0.652 0.054-1.121 0.297-1.492 0.242-0.352 0.574-0.578 1-0.684 0.468-0.117 0.859-0.047 1.171 0.211 0.317 0.254 0.512 0.621 0.582 1.102 0.043 0.273 0.043 0.543 0 0.808-0.035 0.266-0.117 0.555-0.242 0.864-0.082 0.207-0.242 0.515-0.476 0.922-0.235 0.371-0.375 0.675-0.442 0.804-0.058 0.129-0.105 0.25-0.136 0.367l1.796-0.449zm1.344 0.746-0.902 0.227-0.664-4.375c-0.274 0.48-0.618 0.871-1.039 1.172l-0.157-1.051c0.219-0.16 0.446-0.375 0.684-0.75 0.234-0.348 0.375-0.715 0.422-1.113l0.734-0.18 0.922 6.082zm2.086-6.832 1.707-0.629c0.375-0.14 0.687-0.211 0.906-0.211 0.297 0 0.57 0.098 0.82 0.293 0.254 0.184 0.473 0.453 0.657 0.793 0.187 0.344 0.34 0.793 0.465 1.348 0.109 0.484 0.156 0.926 0.14 1.312 0 0.473-0.105 0.883-0.262 1.231-0.113 0.262-0.296 0.5-0.55 0.715-0.184 0.16-0.453 0.3-0.797 0.429l-1.758 0.645-1.328-5.93zm1.16 0.66 0.879 3.922 0.695-0.254c0.262-0.097 0.446-0.183 0.555-0.262 0.141-0.105 0.246-0.234 0.32-0.374 0.074-0.149 0.114-0.376 0.117-0.665 0-0.285-0.046-0.66-0.148-1.121-0.102-0.457-0.215-0.797-0.332-1.019-0.117-0.223-0.25-0.371-0.371-0.477-0.149-0.097-0.313-0.136-0.496-0.121-0.141 0-0.375 0.086-0.75 0.227l-0.418 0.152zm4.754 3.61-1.488-5.868 3.363-1.414 0.25 0.993-2.465 1.031 0.328 1.301 2.301-0.957 0.25 0.984-2.297 0.961 0.371 1.594 2.559-1.063 0.25 0.988-3.481 1.45zm6.152-2.536-1.726-5.757 0.883-0.438 2.992 2.942-1.121-3.844 0.843-0.418 1.723 5.762-0.91 0.449-2.938-2.867 1.121 3.738-0.843 0.414zm3.364-5.062c-0.184-0.582-0.27-1.109-0.258-1.574 0-0.344 0.062-0.676 0.168-1 0.101-0.321 0.238-0.594 0.414-0.813 0.23-0.297 0.527-0.535 0.89-0.722 0.657-0.344 1.266-0.352 1.825 0 0.562 0.316 0.988 0.941 1.281 1.867s0.324 1.746 0.094 2.472c-0.223 0.723-0.668 1.258-1.321 1.594-0.668 0.344-1.273 0.36-1.832 0.043-0.554-0.316-0.976-0.93-1.261-1.84zm0.914-0.52c0.207 0.649 0.476 1.079 0.816 1.293 0.336 0.211 0.688 0.223 1.047 0.036 0.359-0.184 0.598-0.504 0.726-0.957 0.126-0.446 0.083-1.004-0.124-1.668-0.208-0.657-0.473-1.086-0.797-1.293-0.329-0.207-0.676-0.215-1.047 0-0.375 0.191-0.621 0.511-0.746 0.953-0.125 0.445-0.082 0.996 0.125 1.656zm6.144 0.106-3.66-4.578 0.949-0.594 2.653 3.422-0.5-4.766 0.925-0.582 0.563 6.516-0.934 0.582zm2.914-1.801-2.035-5.59 3.234-1.933 0.344 0.945-2.351 1.41 0.449 1.238 2.187-1.308 0.344 0.941-2.191 1.309 0.554 1.496 2.438-1.457 0.344 0.941-3.321 1.981zm4.063-2.422-2.184-5.5 1.293-0.847 2.242 3.242-0.718-4.25 1.296-0.848 2.188 5.496-0.805 0.524-1.718-4.328 0.867 4.859-0.832 0.543-2.571-3.738 1.719 4.328-0.805 0.523zm2.679-8.914 1.7-1.121c0.336-0.23 0.593-0.375 0.75-0.461 0.179-0.074 0.355-0.101 0.535-0.074 0.176 0 0.347 0.101 0.515 0.234 0.165 0.129 0.297 0.313 0.372 0.547 0.105 0.254 0.152 0.524 0.132 0.813 0 0.285-0.097 0.547-0.238 0.746 0.297-0.078 0.566-0.051 0.801 0.086 0.238 0.14 0.422 0.367 0.551 0.679 0.101 0.25 0.16 0.52 0.164 0.817 0 0.293-0.035 0.566-0.133 0.812-0.098 0.243-0.254 0.461-0.469 0.649-0.137 0.117-0.476 0.367-1.019 0.742l-1.45 0.988-2.242-5.449zm1.235 0.321 0.523 1.257 0.559-0.371c0.336-0.23 0.539-0.375 0.617-0.445 0.137-0.121 0.223-0.262 0.266-0.43 0.035-0.164 0-0.336-0.051-0.511-0.07-0.168-0.164-0.282-0.281-0.336-0.118-0.059-0.25-0.047-0.371 0-0.09 0.043-0.336 0.203-0.743 0.48l-0.492 0.336zm0.894 2.164 0.606 1.457 0.793-0.539c0.312-0.211 0.504-0.356 0.578-0.434 0.109-0.117 0.183-0.262 0.219-0.43 0-0.172 0-0.355-0.071-0.547-0.066-0.164-0.156-0.281-0.265-0.351-0.11-0.074-0.235-0.094-0.371-0.067-0.141 0-0.375 0.176-0.793 0.442zm4.243 0-2.336-5.395 1.789-1.269c0.449-0.321 0.8-0.504 1.047-0.551 0.242-0.051 0.48 0 0.707 0.168 0.23 0.16 0.414 0.371 0.55 0.718 0.176 0.375 0.227 0.809 0.157 1.204-0.071 0.371-0.278 0.746-0.618 1.089 0.247 0 0.461 0.047 0.653 0.129 0.191 0.078 0.476 0.258 0.859 0.532l0.969 0.687-1.016 0.723-1.121-0.739c-0.371-0.261-0.664-0.421-0.789-0.472-0.129-0.055-0.246-0.067-0.355-0.047-0.106 0-0.258 0.105-0.453 0.246l-0.172 0.121 0.972 2.242-0.851 0.606zm-0.497-3.719 0.629-0.445c0.371-0.29 0.653-0.493 0.735-0.61 0.082-0.113 0.129-0.25 0.14-0.375 0-0.148 0-0.301-0.09-0.465-0.078-0.179-0.179-0.297-0.304-0.359-0.125-0.059-0.262-0.051-0.41 0-0.075 0.039-0.286 0.18-0.629 0.426l-0.664 0.468 0.593 1.368zm2.774-1.387c-0.242-0.543-0.371-1.047-0.426-1.492 0-0.344 0-0.684 0.059-1.024 0.066-0.335 0.175-0.628 0.32-0.875 0.199-0.335 0.465-0.628 0.805-0.878 0.617-0.454 1.215-0.575 1.804-0.36 0.59 0.215 1.078 0.75 1.473 1.629 0.371 0.863 0.508 1.672 0.363 2.43-0.148 0.746-0.523 1.363-1.121 1.816-0.621 0.457-1.222 0.578-1.808 0.367-0.582-0.214-1.067-0.75-1.45-1.597zm0.851-0.676c0.274 0.602 0.59 0.981 0.95 1.121 0.359 0.149 0.703 0.102 1.039-0.148 0.336-0.246 0.543-0.605 0.617-1.074s0-1.012-0.305-1.633c-0.277-0.613-0.586-0.992-0.929-1.121-0.348-0.149-0.692-0.09-1.04 0.164-0.347 0.258-0.558 0.617-0.632 1.082-0.075 0.461 0 0.996 0.3 1.613z"/>
  <path transform="scale(1.3333)" d="m105.76 398.37 0.894 0.664-1.832 3.215c-0.238 0.418-0.457 0.719-0.648 0.895-0.258 0.234-0.551 0.351-0.883 0.363-0.332 0-0.684-0.125-1.059-0.375-0.441-0.324-0.699-0.715-0.746-1.172-0.074-0.457 0-0.957 0.344-1.496l0.914 0.516c-0.156 0.3-0.238 0.535-0.242 0.703 0 0.254 0.09 0.453 0.289 0.601 0.199 0.149 0.375 0.188 0.539 0.117 0.156-0.07 0.352-0.308 0.586-0.718l1.871-3.282zm1.773 1.449 0.91 0.645-1.496 2.785c-0.242 0.442-0.371 0.734-0.437 0.883-0.074 0.238-0.074 0.473 0 0.703 0.078 0.23 0.246 0.438 0.5 0.621 0.258 0.184 0.484 0.262 0.683 0.235 0.196 0 0.356-0.118 0.477-0.274 0.125-0.156 0.297-0.441 0.519-0.848l1.559-2.839 0.914 0.648-1.48 2.699c-0.34 0.617-0.602 1.035-0.793 1.254-0.188 0.223-0.371 0.371-0.625 0.449-0.227 0.082-0.485 0.094-0.746 0.043-0.282-0.054-0.598-0.211-0.958-0.465-0.429-0.304-0.726-0.593-0.886-0.867-0.16-0.269-0.254-0.543-0.285-0.816 0-0.274 0-0.524 0.058-0.746 0.102-0.336 0.313-0.793 0.625-1.367l1.496-2.743zm1.867 8.539 2.899-5.078 0.875 0.649-0.106 4.742 1.934-3.363 0.836 0.617-2.899 5.082-0.902-0.668 0.09-4.645-1.867 3.313-0.836-0.617zm4.7 2.95 2.816-5.137 0.91 0.648-1.109 2.02 1.785 1.269 1.109-2.019 0.91 0.648-2.816 5.137-0.91-0.648 1.23-2.243-1.785-1.269-1.23 2.242zm5.566 0.449c0.262-0.539 0.555-0.949 0.875-1.227 0.234-0.203 0.5-0.351 0.785-0.453 0.285-0.097 0.563-0.129 0.832-0.097 0.36 0.043 0.727 0.187 1.106 0.425 0.683 0.434 1.113 1.02 1.289 1.766 0.175 0.742 0.054 1.547-0.364 2.41-0.418 0.856-0.949 1.395-1.589 1.621-0.645 0.223-1.309 0.121-1.993-0.312-0.691-0.434-1.121-1.024-1.297-1.762-0.175-0.738-0.054-1.492 0.356-2.371zm0.984 0.574c-0.293 0.598-0.375 1.121-0.3 1.594 0.093 0.465 0.328 0.812 0.703 1.047 0.375 0.238 0.746 0.277 1.121 0.121s0.734-0.539 1.031-1.121c0.297-0.606 0.375-1.121 0.313-1.578-0.09-0.45-0.329-0.793-0.711-1.039-0.371-0.243-0.747-0.29-1.121-0.137-0.372 0.148-0.723 0.535-1.02 1.121zm7.071 0.695 1.781 0.946c0.371 0.211 0.691 0.371 0.875 0.59 0.242 0.246 0.414 0.543 0.516 0.89 0.105 0.352 0.136 0.727 0.097 1.121-0.035 0.375-0.164 0.868-0.371 1.383-0.187 0.449-0.375 0.817-0.629 1.09-0.281 0.336-0.586 0.566-0.91 0.695-0.246 0.098-0.535 0.125-0.859 0.074-0.25 0-0.551-0.148-0.911-0.339l-1.832-0.973 2.243-5.492zm0.593 1.446-1.488 3.636 0.727 0.372c0.269 0.144 0.476 0.234 0.609 0.261 0.176 0.035 0.336 0 0.488 0 0.149-0.05 0.305-0.183 0.473-0.375 0.164-0.211 0.336-0.527 0.508-0.953 0.176-0.426 0.273-0.746 0.301-1.027 0-0.262 0-0.488-0.059-0.68-0.066-0.191-0.184-0.355-0.348-0.5-0.121-0.105-0.371-0.265-0.746-0.476l-0.437-0.231zm2.024 6.715 1.906-5.657 3.68 1.606-0.321 0.957-2.679-1.172-0.422 1.258 2.492 1.086-0.32 0.953-2.492-1.09-0.52 1.539 2.774 1.215-0.321 0.953-3.777-1.652zm8.758 3.734-0.961-0.371 1.25-4.113c-0.465 0.238-0.965 0.355-1.496 0.343l0.3-0.996c0.278 0 0.606-0.062 0.981-0.207 0.371-0.148 0.668-0.375 0.883-0.679l0.746 0.304-1.739 5.754zm3.156-2.328c-0.223-0.203-0.367-0.434-0.426-0.684-0.062-0.25-0.058-0.504 0-0.746 0.11-0.433 0.332-0.746 0.668-0.945s0.75-0.215 1.242-0.055c0.489 0.156 0.828 0.422 1.028 0.793 0.195 0.371 0.238 0.75 0.129 1.211-0.067 0.27-0.184 0.488-0.368 0.66-0.172 0.168-0.371 0.274-0.64 0.313 0.254 0.222 0.422 0.48 0.504 0.746 0.086 0.297 0.089 0.609 0 0.933-0.133 0.539-0.371 0.926-0.746 1.164-0.375 0.239-0.829 0.278-1.329 0.114-0.464-0.149-0.816-0.418-1.054-0.797-0.285-0.449-0.352-0.957-0.211-1.496 0.082-0.313 0.222-0.578 0.426-0.801 0.203-0.215 0.472-0.348 0.8-0.371zm0.484-1.059c-0.054 0.223-0.043 0.414 0 0.574 0.078 0.161 0.211 0.274 0.375 0.333 0.184 0.062 0.348 0.046 0.492-0.043 0.145-0.09 0.243-0.247 0.297-0.469 0.055-0.207 0.039-0.371-0.035-0.555-0.078-0.164-0.207-0.273-0.375-0.332-0.187-0.062-0.351-0.047-0.496 0.043-0.144 0.09-0.242 0.242-0.293 0.449zm-0.718 2.465c-0.075 0.309-0.067 0.57 0 0.785 0.097 0.219 0.246 0.36 0.453 0.426 0.203 0.066 0.375 0.039 0.566-0.082 0.172-0.125 0.297-0.336 0.371-0.652 0.07-0.274 0.059-0.516 0-0.727-0.09-0.207-0.242-0.348-0.445-0.414-0.242-0.074-0.445-0.043-0.606 0.109-0.168 0.149-0.277 0.332-0.332 0.551zm3.039 1.27 0.976 0.199c-0.043 0.285 0 0.523 0.074 0.711 0.094 0.191 0.231 0.32 0.418 0.375 0.203 0.07 0.375 0.039 0.578-0.086 0.188-0.125 0.317-0.336 0.375-0.629 0.075-0.281 0.071-0.524 0-0.734-0.085-0.211-0.222-0.348-0.414-0.411-0.125-0.043-0.281-0.07-0.472-0.074l0.351-0.867c0.262 0.098 0.481 0.105 0.657 0 0.175-0.09 0.296-0.25 0.355-0.48 0.055-0.196 0.043-0.368 0-0.52-0.07-0.148-0.191-0.254-0.359-0.312-0.164-0.059-0.325-0.043-0.477 0.046-0.156 0.09-0.281 0.258-0.371 0.5l-0.852-0.484c0.157-0.328 0.325-0.574 0.508-0.742 0.18-0.164 0.371-0.266 0.66-0.309 0.258-0.043 0.524 0 0.805 0.082 0.481 0.168 0.817 0.477 1.008 0.926 0.164 0.367 0.195 0.731 0.101 1.086-0.136 0.508-0.488 0.832-1.058 0.965 0.269 0.172 0.461 0.41 0.57 0.722 0.106 0.305 0.11 0.633 0 0.985-0.137 0.512-0.418 0.887-0.84 1.121-0.422 0.246-0.875 0.285-1.359 0.113-0.461-0.16-0.805-0.445-1.027-0.851-0.219-0.371-0.289-0.86-0.207-1.368zm7.175 2.695-0.242 1.043-3.453-1.055c0.129-0.371 0.328-0.719 0.598-1.015 0.269-0.297 0.746-0.649 1.437-1.067 0.555-0.332 0.903-0.57 1.039-0.707 0.188-0.187 0.313-0.375 0.367-0.625 0.059-0.25 0.043-0.461-0.042-0.629-0.086-0.172-0.235-0.289-0.442-0.351-0.207-0.063-0.375-0.043-0.539 0.062-0.156 0.102-0.281 0.317-0.375 0.633l-0.953-0.41c0.203-0.598 0.492-0.985 0.859-1.16 0.371-0.172 0.789-0.192 1.25-0.047 0.508 0.152 0.871 0.433 1.086 0.832 0.215 0.371 0.27 0.828 0.16 1.293-0.062 0.262-0.164 0.5-0.3 0.715-0.137 0.211-0.329 0.422-0.567 0.629-0.16 0.132-0.437 0.32-0.82 0.546-0.375 0.231-0.637 0.375-0.746 0.469-0.106 0.082-0.199 0.164-0.274 0.25z"/>
  <path transform="scale(1.3333)" d="m67.539 388.28-0.75 0.746-2.855-2.859c0.316-0.254 0.679-0.434 1.093-0.535 0.371-0.102 1.055-0.137 1.934-0.106h1.375c0.277-0.054 0.5-0.164 0.664-0.328 0.184-0.183 0.273-0.371 0.273-0.566s-0.085-0.375-0.257-0.551c-0.172-0.172-0.356-0.254-0.559-0.254s-0.434 0.11-0.687 0.336l-0.731-0.894c0.5-0.375 0.973-0.571 1.422-0.512 0.449 0.062 0.867 0.281 1.25 0.664 0.418 0.422 0.633 0.867 0.648 1.332 0 0.465-0.148 0.867-0.484 1.203-0.191 0.192-0.375 0.336-0.648 0.445-0.243 0.106-0.536 0.176-0.872 0.219h-2.035c-0.144 0-0.277 0-0.375 0.059l1.621 1.621zm3.305 3.305-0.75 0.75-2.856-2.859c0.317-0.258 0.68-0.438 1.09-0.539 0.375-0.102 1.059-0.133 1.938-0.102h1.371c0.281-0.059 0.504-0.168 0.668-0.332 0.183-0.18 0.273-0.371 0.273-0.566 0-0.196-0.086-0.372-0.258-0.551-0.172-0.172-0.359-0.254-0.558-0.254-0.203 0-0.434 0.113-0.688 0.336l-0.73-0.891c0.496-0.375 0.968-0.57 1.422-0.512 0.445 0.059 0.867 0.282 1.25 0.665 0.418 0.421 0.632 0.863 0.648 1.328 0 0.468-0.148 0.871-0.484 1.207-0.192 0.191-0.375 0.336-0.653 0.445-0.238 0.102-0.531 0.176-0.867 0.215h-2.035c-0.145 0-0.277 0-0.375 0.058l1.621 1.622zm9.172 2.188 1.57 1.57c0.355 0.355 0.598 0.652 0.73 0.89 0.176 0.325 0.258 0.668 0.246 1.036 0 0.363-0.101 0.73-0.281 1.093-0.179 0.368-0.469 0.746-0.867 1.121-0.348 0.352-0.695 0.61-1.035 0.75-0.414 0.204-0.817 0.297-1.207 0.293-0.293 0-0.606-0.089-0.942-0.261-0.25-0.129-0.531-0.352-0.851-0.668l-1.613-1.617 4.25-4.258zm0.14 1.582-2.816 2.816 0.64 0.641c0.239 0.242 0.426 0.375 0.563 0.48 0.172 0.106 0.344 0.164 0.519 0.172 0.176 0 0.376-0.055 0.637-0.188 0.246-0.132 0.539-0.363 0.867-0.691 0.329-0.328 0.551-0.613 0.668-0.844 0.118-0.238 0.176-0.457 0.168-0.656 0-0.207-0.07-0.375-0.199-0.598-0.09-0.148-0.312-0.375-0.664-0.746l-0.371-0.375zm-0.097 6.972 4.25-4.258 3.152 3.157-0.719 0.722-2.293-2.297-0.941 0.942 2.133 2.137-0.715 0.718-2.137-2.136-1.121 1.156 2.379 2.379-0.719 0.718-3.234-3.238z"/>
 </g>
 <path transform="scale(1.3333)" d="m331.33 244.73c9.395 0.304 16.816 8.796 16.816 18.961 0 10.769-8.183 19.414-18.312 19.414-10.152 0-18.313-8.645-18.313-19.414 0-8.645 5.606-16.536 13.336-18.961l0.75-3.336c-1.062-1.496-0.91-4.25-0.152-7.282-1.211-0.609-1.059-2.882-0.148-6.523-1.364-2.426-1.364-4.703-0.149-6.828l-0.148-3.336c1.968-5.461 4.09-5.606 6.351-0.746 1.668 1.972 1.496 4.551 0 8.039 2.242 1.215 2.121 3.336 0 6.824 1.969 1.82 1.969 4.399 0 7.102v6.066z" fill="#00a859" stroke="#000" stroke-width="1.4948"/>
 <path transform="scale(1.3333)" d="m323.85 287.31c4.246 0 7.73 7.434 7.73 16.536 0 9.101-3.484 16.382-7.73 16.382-4.243 0-7.575-7.281-7.575-16.382 0-9.102 3.332-16.536 7.575-16.536zm0.285 45.633-13.164-12.105 0.746-8.344-3.637-0.148v-4.403l3.184-0.453 0.605-5.765-2.242-0.149 0.746-5.605 2.121 0.148 1.063-3.793-2.426-1.058 1.973-4.704 1.968 0.454 4.547-4.399h19.699c1.215 3.34 1.832 5.981 1.496 9.649 4.547 1.671 3.739 4.113 0.106 7.308 4.344 14.918-10.445 26.531-16.809 33.379z" fill="#00a859" fill-rule="evenodd" stroke="#000" stroke-width="1.4948"/>
 <g fill="none" stroke="#000" stroke-width="1.4948">
  <path transform="scale(1.3333)" d="m324.82 241.82 5.911-3.035m-5.754-4.551 5.754-2.242m-5.911-4.094 6.063-3.035m-6.516-4.097 6.668-3.641m-7.101 27.914 7.101-0.152"/>
  <path transform="scale(1.3333)" d="m332.8 324.88-2.121-5.313"/>
  <path transform="scale(1.3333)" d="m335.23 322.13-3.633-4.543"/>
  <path transform="scale(1.3333)" d="m337.05 319.11-4.848-3.793"/>
  <path transform="scale(1.3333)" d="m338.72 315.77-4.852-2.879"/>
  <path transform="scale(1.3333)" d="m339.93 312.28-5.453-2.125"/>
  <path transform="scale(1.3333)" d="m340.53 308.94-4.847-1.211"/>
  <path transform="scale(1.3333)" d="m340.84 305.76-5-0.453"/>
  <path transform="scale(1.3333)" d="m340.99 302.42-4.847 0.609"/>
  <path transform="scale(1.3333)" d="m340.53 290.9-4.39 2.73"/>
  <path transform="scale(1.3333)" d="m340.99 288.01-5 1.972"/>
  <path transform="scale(1.3333)" d="m340.38 285.28-4.699 2.27"/>
  <path transform="scale(1.3333)" d="m332.81 305.07-2.582 0.078-0.301 13.957v6.977l2.379 1.215"/>
  <path transform="scale(1.3333)" d="m330.15 297.34c1.364-5.156 2.352-7.965 0.684-13.121l3.336-1.215c4.379 16.324 2.781 26.969-3.68 35.129"/>
 </g>
 <g stroke="#000">
  <g stroke-width="1.4948">
   <path transform="scale(1.3333)" d="m332.81 305.07-2.579 0.078-0.304 13.957v6.977c11.328 5.711 1.129 16.793-4.258 19.777 3.637-7.734-0.598-13.703-10.598-14.16 2.153-3.207 6.563-7.523 10.289-6.68l-0.148-16.382-10.156 5.156v-5.606l16.129-8.164c2.98-2.668 4.125 4.852 1.625 5.047z" fill="#00a859"/>
   <path transform="scale(1.3333)" d="m329.82 249.68c10.153 0 18.313 8.187 18.313 18.199s-8.184 18.199-18.313 18.199c-10.152 0-18.312-8.191-18.312-18.199 0-10.012 8.183-18.199 18.312-18.199z" fill="#00a859"/>
   <path transform="scale(1.3333)" d="m337.36 257.31c1.969 0 3.485 1.496 3.485 3.488 0 1.973-1.496 3.488-3.485 3.488-1.968 0-3.488-1.492-3.488-3.488 0-1.973 1.496-3.488 3.488-3.488zm-0.457 12.285c1.973 0 3.489 1.496 3.489 3.492 0 1.969-1.496 3.488-3.489 3.488-1.968 0-3.484-1.496-3.484-3.488 0-1.973 1.496-3.492 3.484-3.492zm-9.847 3.945c1.969 0 3.484 1.496 3.484 3.488 0 1.973-1.496 3.489-3.484 3.489-1.973 0-3.489-1.493-3.489-3.489 0-1.972 1.497-3.488 3.489-3.488zm-9.551-7.281c1.82 0 3.184 1.367 3.184 3.187 0 1.821-1.364 3.184-3.184 3.184-1.816 0-3.18-1.363-3.18-3.184 0-1.82 1.364-3.187 3.18-3.187zm4.699-10.922c1.973 0 3.489 1.496 3.489 3.488 0 1.973-1.497 3.488-3.489 3.488-1.969 0-3.484-1.492-3.484-3.488 0-1.969 1.496-3.488 3.484-3.488zm6.356 8.949c1.816 0 3.484 1.668 3.484 3.488 0 1.821-1.668 3.34-3.484 3.34-1.821 0-3.336-1.496-3.336-3.34 0-1.82 1.496-3.488 3.336-3.488z" fill="#fff212"/>
  </g>
  <g stroke-width=".7474">
   <path transform="scale(1.3333)" d="m77.258 349.26c1.062 0 1.969 1.367 1.969 3.035s-0.907 2.883-1.969 2.883c-1.063 0-1.969-1.215-1.969-2.883s0.906-3.035 1.969-3.035zm-4.547-0.606c1.363 0 2.578 1.364 2.578 3.036 0 1.667-1.215 2.878-2.578 2.878s-2.426-1.211-2.426-2.878c0-1.672 1.063-3.036 2.426-3.036zm-4.848-0.91c1.211 0 2.242 1.063 2.242 2.426 0 1.367-1.062 2.43-2.242 2.43-1.215 0-2.125-1.063-2.125-2.43 0-1.363 0.91-2.426 2.125-2.426zm-3.941-4.703c1.668 0 3.031 1.367 3.031 2.883 0 1.496-1.363 2.883-3.031 2.883s-2.879-1.367-2.879-2.883c0-1.496 1.215-2.883 2.879-2.883zm6.211 0c1.367 0 2.578 1.367 2.578 2.883 0 1.496-1.211 2.883-2.578 2.883-1.363 0-2.422-1.367-2.422-2.883 0-1.496 1.059-2.883 2.422-2.883zm5.305-1.668c0.91 0 1.82 1.215 1.82 2.727 0 1.496-0.91 2.73-1.82 2.73-0.907 0-1.665-1.215-1.665-2.73 0-1.493 0.747-2.727 1.665-2.727zm0.152-6.676c1.363 0 2.422 1.063 2.422 2.43 0 1.363-1.059 2.242-2.422 2.242-1.367 0-2.242-0.91-2.242-2.242 0-1.367 0.906-2.43 2.242-2.43zm-4.395 2.243c1.664 0 3.032 1.367 3.032 3.187s-1.368 3.184-3.032 3.184c-1.668 0-3.031-1.364-3.031-3.184s1.363-3.187 3.031-3.187zm-5.457 0.75c1.364 0 2.574 1.363 2.574 3.031s-1.21 2.883-2.574 2.883c-1.363 0-2.578-1.215-2.578-2.883s1.215-3.031 2.578-3.031zm-5.152-1.668c1.492 0 2.875 1.363 2.875 3.031s-1.363 2.883-2.875 2.883c-1.496 0-2.731-1.215-2.731-2.883s1.215-3.031 2.731-3.031zm0.605-5.309c1.063 0 2.121 1.215 2.121 2.727 0 1.496-1.058 2.73-2.121 2.73-1.062 0-1.968-1.215-1.968-2.73 0-1.493 0.906-2.727 1.968-2.727zm5.911-0.606c1.363 0 2.425 1.821 2.425 3.942 0 2.125-1.062 3.945-2.425 3.945-1.364 0-2.243-1.82-2.243-3.945 0-2.121 0.911-3.942 2.243-3.942zm5.152-1.496c1.062 0 1.969 1.496 1.969 3.188 0 1.668-0.907 3.031-1.969 3.031-1.059 0-1.969-1.363-1.969-3.031s0.91-3.188 1.969-3.188zm-1.816-4.093c0.906 0 1.664 1.363 1.664 3.031s-0.747 2.883-1.664 2.883c-0.911 0-1.668-1.215-1.668-2.883s0.746-3.031 1.668-3.031zm-4.094-0.61c1.211 0 2.121 1.215 2.121 2.731 0 1.492-0.91 2.578-2.121 2.578s-2.121-1.063-2.121-2.578c0-1.496 0.91-2.731 2.121-2.731zm-3.942 1.973c1.063 0 1.821 1.062 1.821 2.426 0 1.367-0.746 2.429-1.821 2.429-1.058 0-1.816-1.062-1.816-2.429 0-1.364 0.746-2.426 1.816-2.426z" fill="#d2d3d5"/>
   <path transform="scale(1.3333)" d="m201.7 426.77c0 7.839-6.355 14.199-14.199 14.199s-14.199-6.36-14.199-14.199c0-7.844 6.355-14.204 14.199-14.204s14.199 6.36 14.199 14.204z" fill="#f00"/>
   <path transform="scale(1.3333)" d="m192.73 426.77c0 2.886-2.339 5.23-5.23 5.23s-5.23-2.344-5.23-5.23c0-2.891 2.339-5.235 5.23-5.235s5.23 2.344 5.23 5.235z" fill="#f00"/>
  </g>
 </g>
 <g fill="none" stroke="#000" stroke-width=".7474">
  <path transform="scale(1.3333)" d="m187.5 432v8.969"/>
  <path transform="scale(1.3333)" d="m187.5 412.57v8.969"/>
  <path transform="scale(1.3333)" d="m173.3 426.77h8.969"/>
  <path transform="scale(1.3333)" d="m192.73 426.77h8.969"/>
  <path transform="scale(1.3333)" d="m177.3 436.93 6.465-6.391"/>
  <path transform="scale(1.3333)" d="m197.64 416.6-6.407 6.503"/>
  <path transform="scale(1.3333)" d="m177.36 416.6 6.391 6.503"/>
  <path transform="scale(1.3333)" d="m197.7 436.93-6.5-6.391"/>
 </g>
 <path transform="scale(1.3333)" d="m172.67 239.12 34 1.313s0.633-10.36-2.84-13.575c0 0-0.305-6.351-4.09-8.593 0 0-0.617-5.469-6.035-6.11 0 0-2.242-2.59-6.062-2.613 0 0-6.727 1.867-8.032 3.133 0 0-6.785 5.691-8.066 7.941 0 0-4.485 0.93-2.922 4.176 1.547 3.195 7.008 1.309 6.695-0.613 0 0 5.125-0.625 7.418-2.531 0 0 0-1.922-2.242-2.243 0 0 2.242 0.977 2.242 2.243 0 1.261 5.094 3.265 8.965 0.707 0 0-4.023 2.71-8.965-0.707 1.11 0.812 0 0 0 0s-3.617 2.351-6.047 2.335l-4.019 15.165z" fill="#f00" stroke="#000" stroke-width=".7474"/>
 <path transform="scale(1.3333)" d="m224.87 165.18c0 20.64-16.73 37.371-37.371 37.371s-37.371-16.731-37.371-37.371c0-20.637 16.73-37.371 37.371-37.371s37.371 16.734 37.371 37.371z" fill="#fff212"/>
 <path transform="scale(1.3333)" d="m150.13 165.18h74.742" fill="none" stroke="#000" stroke-width="1.1211"/>
 <g stroke="#000">
  <path transform="matrix(1.3333 .10494 -.10494 1.3333 0 0)" d="m162.01 149.5 74.507-1e-3" stroke-width="1.1176"/>
  <path transform="matrix(1.3333 .21118 -.21118 1.3333 0 0)" d="m171.52 132.16h73.82" stroke-width="1.1073"/>
  <path transform="matrix(1.3333 .32011 -.32011 1.3333 0 0)" d="m178.44 113.61 72.672-1e-3" stroke-width="1.0901"/>
  <path transform="matrix(1.3333 .43323 -.43323 1.3333 0 0)" d="m182.6 94.3 71.085-4e-3" stroke-width="1.0662"/>
  <path transform="matrix(1.3333 .55229 -.55229 1.3333 0 0)" d="m183.91 74.696 69.054-2e-3" stroke-width="1.0358"/>
  <path transform="matrix(1.3333 .67937 -.67937 1.3333 0 0)" d="m182.37 55.287 66.593-1e-3" stroke-width=".99891"/>
  <path transform="matrix(1.3333 .81707 -.81707 1.3333 0 0)" d="m178.04 36.552 63.726-1e-3" stroke-width=".9559"/>
  <path transform="matrix(1.3333 .96872 -.96872 1.3333 0 0)" d="m171.03 18.949 60.467-3e-3" stroke-width=".907"/>
  <path transform="matrix(1.3333 1.1388 -1.1388 1.3333 0 0)" d="m161.57 2.913 56.834-2e-3" stroke-width=".8525"/>
  <path transform="matrix(1.3333 1.3333 -1.3333 1.3333 0 0)" d="m149.91-11.162h52.852" stroke-width=".79274"/>
  <path transform="matrix(1.1388 1.3333 -1.3333 1.1388 0 0)" d="m159.69-26.844h56.832" stroke-width=".8525"/>
  <path transform="matrix(.96872 1.3333 -1.3333 .96872 0 0)" d="m167.04-44.176 60.467 3e-3" stroke-width=".907"/>
  <path transform="matrix(.81707 1.3333 -1.3333 .81707 0 0)" d="m171.75-62.724 63.728-2e-3" stroke-width=".9559"/>
  <path transform="matrix(.67937 1.3333 -1.3333 .67937 0 0)" d="m173.68-82.04 66.593 1e-3" stroke-width=".99891"/>
  <path transform="matrix(.55229 1.3333 -1.3333 .55229 0 0)" d="m172.75-101.64h69.051" stroke-width="1.0358"/>
  <path transform="matrix(.43323 1.3333 -1.3333 .43323 0 0)" d="m168.97-121.05 71.081 2e-3" stroke-width="1.0662"/>
  <path transform="matrix(.32011 1.3333 -1.3333 .32011 0 0)" d="m162.4-139.79 72.675 3e-3" stroke-width="1.0901"/>
  <path transform="matrix(.21118 1.3333 -1.3333 .21118 0 0)" d="m153.19-157.39 73.82-3e-3" stroke-width="1.1073"/>
  <path transform="matrix(.10494 1.3333 -1.3333 .10494 0 0)" d="m141.57-173.42 74.508-3e-3" stroke-width="1.1176"/>
 </g>
 <path transform="matrix(0 1.3333 -1.3333 0 0 0)" d="m127.8-187.5h74.742" fill="none" stroke="#000" stroke-width="1.1211"/>
 <g stroke="#000">
  <path transform="matrix(-.10494 1.3333 -1.3333 -.10494 0 0)" d="m112.24-199.27 74.508 3e-3" stroke-width="1.1176"/>
  <path transform="matrix(-.21118 1.3333 -1.3333 -.21118 0 0)" d="m95.253-208.43 73.821 3e-3" stroke-width="1.1073"/>
  <path transform="matrix(-.32011 1.3333 -1.3333 -.32011 0 0)" d="m77.277-214.78 72.675-3e-3" stroke-width="1.0901"/>
  <path transform="matrix(-.43323 1.3333 -1.3333 -.43323 0 0)" d="m58.759-218.14 71.081-2e-3" stroke-width="1.0662"/>
  <path transform="matrix(-.55229 1.3333 -1.3333 -.55229 0 0)" d="m40.171-218.44h69.051" stroke-width="1.0358"/>
  <path transform="matrix(-.67937 1.3333 -1.3333 -.67937 0 0)" d="m21.99-215.67 66.593-1e-3" stroke-width=".99891"/>
  <path transform="matrix(-.81707 1.3333 -1.3333 -.81707 0 0)" d="m4.686-209.9 63.728 2e-3" stroke-width=".9559"/>
  <path transform="matrix(-.96872 1.3333 -1.3333 -.96872 0 0)" d="m-11.286-201.26 60.467-2e-3" stroke-width=".907"/>
  <path transform="matrix(-1.1388 1.3333 -1.3333 -1.1388 0 0)" d="m-25.503-189.99h56.832" stroke-width=".8525"/>
  <path transform="matrix(-1.3333 1.3333 -1.3333 -1.3333 0 0)" d="m-37.588-176.34h52.852" stroke-width=".79274"/>
  <path transform="matrix(-1.3333 1.1388 -1.1388 -1.3333 0 0)" d="m-55.262-188.1 56.834 2e-3" stroke-width=".8525"/>
  <path transform="matrix(-1.3333 .96872 -.96872 -1.3333 0 0)" d="m-74.408-197.27 60.467 3e-3" stroke-width=".907"/>
  <path transform="matrix(-1.3333 .81707 -.81707 -1.3333 0 0)" d="m-94.587-203.62 63.726 1e-3" stroke-width=".9559"/>
  <path transform="matrix(-1.3333 .67937 -.67937 -1.3333 0 0)" d="m-115.34-206.98 66.593 1e-3" stroke-width=".99891"/>
  <path transform="matrix(-1.3333 .55229 -.55229 -1.3333 0 0)" d="m-136.17-207.28 69.054 1e-3" stroke-width="1.0358"/>
  <path transform="matrix(-1.3333 .43323 -.43323 -1.3333 0 0)" d="m-156.59-204.51 71.085 3e-3" stroke-width="1.0662"/>
  <path transform="matrix(-1.3333 .32011 -.32011 -1.3333 0 0)" d="m-176.12-198.74 72.671 2e-3" stroke-width="1.0901"/>
  <path transform="matrix(-1.3333 .21118 -.21118 -1.3333 0 0)" d="m-194.3-190.11h73.82" stroke-width="1.1073"/>
  <path transform="matrix(-1.3333 .10494 -.10494 -1.3333 0 0)" d="m-210.68-178.83 74.508 1e-3" stroke-width="1.1176"/>
 </g>
 <path transform="scale(1.3333)" d="m208.06 165.18c0 11.351-9.203 20.554-20.555 20.554s-20.555-9.203-20.555-20.554c0-11.352 9.203-20.555 20.555-20.555s20.555 9.203 20.555 20.555z" fill="#fff212"/>
</svg>
